<svg xmlns="http://www.w3.org/2000/svg" width="230" height="200" viewBox="0 0 230 199.83" shape-rendering="geometricPrecision" image-rendering="optimizeQuality" fill-rule="evenodd" xmlns:v="https://vecta.io/nano"><style><![CDATA[.T{fill:#fdc878}.U{fill:#122646}.V{fill:#5ac5f1}.W{fill:#132745}.X{fill:#fef7da}.Y{fill:#e44c07}.Z{fill:#142c4c}.a{fill:#fd660d}.b{fill:#07132a}.c{fill:#0d2447}]]></style><circle cx="130.08" cy="99.92" r="99.92" fill="#0093ad"/><use href="#B" fill="#ff690d"/><use href="#C" class="W"/><use href="#D" class="X"/><use href="#E" fill="#d5c6b0"/><g class="W"><use href="#F"/><use href="#G"/></g><use href="#H" class="Y"/><use href="#I" class="T"/><g fill="#fe620b"><use href="#J"/><use href="#K"/></g><use href="#L" fill="#122949"/><use href="#M" class="Z"/><use href="#N" class="a"/><use href="#O" class="U"/><use href="#P" class="T"/><use href="#Q" class="V"/><use href="#R" class="X"/><use href="#S" class="Y"/><use href="#T" class="U"/><use href="#U" class="Z"/><use href="#V" class="T"/><use href="#W" class="U"/><use href="#X" class="V"/><use href="#Y" class="a"/><g class="T"><use href="#Z"/><use href="#a"/></g><use href="#b" class="b"/><use href="#c" class="T"/><use href="#d" class="V"/><use href="#e" class="b"/><use href="#f" class="c"/><use href="#g" class="T"/><use href="#h" fill="#dc4709"/><use href="#i" class="c"/><use href="#j" class="U"/><use href="#k" fill="#081a4a"/><use href="#l" fill="#fd8c32"/><g fill="#fdfdf9"><use href="#m"/><use href="#n"/><use href="#o"/></g><circle cx="130.08" cy="99.92" r="99.92" fill="#0093ad"/><use href="#B" fill="#ff690d"/><use href="#C" class="W"/><use href="#D" class="X"/><use href="#E" fill="#d5c6b0"/><g class="W"><use href="#F"/><use href="#G"/></g><use href="#H" class="Y"/><use href="#I" class="T"/><g fill="#fe620b"><use href="#J"/><use href="#K"/></g><use href="#L" fill="#122949"/><use href="#M" class="Z"/><use href="#N" class="a"/><use href="#O" class="U"/><use href="#P" class="T"/><use href="#Q" class="V"/><use href="#R" class="X"/><use href="#S" class="Y"/><use href="#T" class="U"/><use href="#U" class="Z"/><use href="#V" class="T"/><use href="#W" class="U"/><use href="#X" class="V"/><use href="#Y" class="a"/><g class="T"><use href="#Z"/><use href="#a"/></g><use href="#b" class="b"/><use href="#c" class="T"/><use href="#d" class="V"/><use href="#e" class="b"/><use href="#f" class="c"/><use href="#g" class="T"/><use href="#h" fill="#dc4709"/><use href="#i" class="c"/><use href="#j" class="U"/><use href="#k" fill="#081a4a"/><use href="#l" fill="#fd8c32"/><g fill="#fdfdf9"><use href="#m"/><use href="#n"/><use href="#o"/></g><defs ><path id="B" d="M165.01 104.12c.39-1.8 1.41-3.4 1.86-5.44.6-2.75.12-4.77.32-7.39 2.02 4.93 1.91 12.37 1.15 17.46-1.19-1.25-1.89-3.15-3.33-4.63zm-8.3-17.09c1.86.42 1.69 1.19 3.17 2.36.84.66.64.23 1.24 1.45.99 2 .95 4.03-.08 5.95-.72 1.33-1.89 1.99-3.45 2.46-.11-9 1.07-1.86-.88-12.22zM74.58 93.2c-.58-10.93 18.15-20.97 28.94-6.77 1.6 2.1 3.42 6.15 2.65 9.18-.39 1.57-.8 2.06-2.25 2.23-2.7-5.21-5.95-9.25-12.31-10.43-9.94-1.84-14.2 5.84-17.03 5.79zm-45.53-1.57c-1.41-3.34 1.46-7.78 2.94-9.56 1.56-1.86 4.75-4.47 8.79-4.3 4 .16 6.52 2.77 8 5.09 1.33 2.1 2.38 5.23 1.84 7.89-.27 1.32-.5 1.49-1.24 1.92-2.12-.91-2.98-8.85-9.93-8.44-3.31.2-6.31 3.62-7.96 5.96-.38.54-.7 1.02-1.11 1.27l-1.33.17zm113.03-14.47c4.9.45 11.04 10.26 6.39 16.66-1.04 1.44-1.16.71-2.07 1.44-.79-1.31-.32-3.64-.32-4.88-.04-4.95-3.91-11.17-4-13.22zm-63.39-2.03c.26-2.83 4.25-6.76 6.31-7.99 8.64-5.15 23.79-2.8 25.19 12.8l-1.5-1.67c-.43-.64-.76-1.04-1.29-1.68-2.68-3.22-6.58-5.83-11.14-6.74-8.81-1.75-12.89 2.4-17.57 5.28zm-1.02-16.76c1.75-6.48 11.43-6.41 15.95-4.5 1.28.55 4.49 2.64 5.17 3.49.03.04.92 1.27.97 1.37.42.89.28.4.2 1.53-1.01-.04-3.31-1.62-4.99-2.07-11.17-3-14.13 4.83-17.3.18zm-31.21 5.62c2.51 2.32 4.27 3.73 4.29 8.68-2.24-1.45-2.4-3.9-6.27-4.71-.97 1.31-5.83 3.18-6.78 3.21l-1.19-.19c-.3.03-1.81.87-2.31 1.29-2.14 2.12-3.72 4.71-5.42 7.58-1.11 1.87-4.14 6.94-4.51 8.75 1.04.46-.77.43.5-.2.77-.38-.19-.54.39-.19-.44 3.37-.64 6.16-.19 9.57.26 1.95 1.49 6.61 2.87 7.68l1.1-.11c1.08-.15 4.14-2 5.77-2.64 1.2-.47 5.22-2.07 6.01-1.95 8.66-3.49 25.91-1.89 35.77-.23l8.07 1.88c1.38.36 1.54.21 2 1.33 5.31 2.16 12.32 6.23 17.15 9.04 4.46 2.58 11.92 7.71 17.52 8.72 1.54-5 1.33-8.87 1.42-14.05 1.16 1.11 2.91 4.53 3.33 6.57 1.07-.68 2.11-1.48 3.23-2.32 1.06-.78 2.2-1.35 3.32-2.28-.18-9.14-4.61-24.89-8.04-33.7l-4.24-10.06c2.08 1.28 5.08 5.53 6.95 8.02 2.18 2.9 3.85 5.78 5.51 9.41 2.45 5.38 6.48 16.29 6.48 23.34 5.22-2.75 14.29-6.82 21.7-4.14 9.05 3.28 8.68 15.57 6.81 18.89l.88-.34c-.3-.69.2-1.83.34-2.55.22-1.15.29-2.4.27-3.57-.07-4.19.17-2.55 2.21-4.57.64-.63.83-1.12 1.45-1.85 2.91-3.41 4.2-6.49 4.2-6.5.81-.45-.99-.36.19.12.75.31-.47.58.38.09 1.22-1.99-.9-.85 4.56-3.61l11.37-5.22c1.67-.67 4.7-2.02 6.33-2.37-.29.34-.15.21-.53.54l-.58.44-3.86 2.43c-4.5 2.67-12.04 6.23-16.88 7.85l.73.64c3.94 2.88 19.16-1.07 23.14-1.64-1.33 2.8-2.28 2.09-1.44 2.39.62-.18 1.75-1.66 2.33-2.33a46.38 46.38 0 0 0 2.22-2.77c1.22-1.65 3.03-4.18 4.05-6.21 2.09-4.15 4.62-10.36 2.86-16.06-.31.72.51.04-.5.54-1.05-.89-3.96-.7-5.33-.49-2.34.35-7.21 2.21-9.47 3.26-1.34.62-2.54 1.55-3.8 2.13l-11.41 7.16c-.69.5-1.09.85-1.7 1.28-.73.53-1.09.65-1.74 1.29l.06 6.64-.86-.68-.5-.32c-.07-.05-.16-.11-.23-.17l-1.02-1.03c-.74-.86-.61-.83-1.19-1.78-1.23-2.04-4.04-4.61-6-5.93-2.43-1.64.67-.11-3.22-2.74-.81-.55-.87-.98-1.25-1.38-.75-.79-1.02-.43-1.94-1.4l-4.06-3.57c-.45-.42-.22-.33-.61-.69l-4.48-3.48-.17-.17-1.27-1.04c-.69-.49-.25-.15-.76-.56l-4.82-3.79-.2-.13-3.56-2.42c-1.02-.81-2.29-1.55-3.56-2.39-3.61-2.4-12.2-6.19-16.12-7.75-12.06-4.8-27.23-6.88-41.36-5.79-11.63.89-23.43 5.08-32.84 11.96a18.29 18.29 0 0 0-1.55 1.34z"/><path id="C" d="M121.36 168.13c.61-.26 10.59-3.04 11.04-3.05 1.5 2.07 3.79 4.09.56 6.74-5.47 4.48-19.19 2.21-24.86-.8l-1.03-.7c1.85-.09 9.93-1.41 10.46-1.3.55.13 4.47 2.93 8.77 3.43-.35-2.61-2.95-3.11-4.94-4.32zm55.81-70.91a48.62 48.62 0 0 0 .86.68l-.06-6.64-.63-3.04c3.32-2.4 6.75-5.45 11.6-8.93 5.54-3.98 18.54-11.86 22.98-3.2 1.76 5.7-.77 11.91-2.86 16.06-1.02 2.03-2.83 4.56-4.05 6.21a46.38 46.38 0 0 1-2.22 2.77c-.58.67-1.71 2.15-2.33 2.33-1.32 2.07-3.14 3.88-4.84 5.38 2.31 4.49 4.36 7.54 6.41 12.99 1.15 3.08 4.19 12.66 1.79 15.46-2.86 3.33-12.42-1.3-14.65-2.62-4.84-2.87-6.83-5.49-10.35-9.01l1.34-6.04c4.1 1.3 10.52 5.11 14.34 5.71-.91-1.37-6.04-4.96-8.18-6.03l-7.47-3.15c-.83-.47-.37-.07-.79-.87l-.49-1.17c-.91 4.66-3.03 8.01-4.86 11.58-.88 1.7-5.33 7.9-6.85 9.43-.61.6-.56.44-1.14 1.14-3.94 4.71-5.55 5.48-9.33 8.92-3.18 2.9-13.68 9.14-17.44 10.77-13.64 5.9-21.83 8.97-38.52 10.21-14.95 1.11-27.69-1.57-41.25-6.85-5.74-2.23-10.86-5.42-15.94-8.57-1.65-1.02-3.19-2.15-4.67-3.31l-4.43-3.84c-2.53-2.2-3.03-3.04-5.14-5.15-.35-.35-.52-.57-.94-1.05-3.4-3.93-9.05-13.56-9.49-18.64-2.19-3.98-.62-12.85.64-16.97.86-2.83 4.56-11.7 6.06-13.18.37-1.81 3.4-6.88 4.51-8.75 1.7-2.87 3.28-5.46 5.42-7.58 1.47-1.96 5.74-5.9 10.28-4.31 3.87.81 4.03 3.26 6.27 4.71-.02-4.95-1.78-6.36-4.29-8.68-2.37-.7-2.45-1.02-5.38-1 1.24-1.96 12.1-9.28 15.21-10.64 6.35-2.79 11.72-5.15 19.53-6.32 15.19-2.27 31.85-.71 45.32 4.21 14.97 5.46 28.91 14.74 39.17 25.13 5.15 5.21 10.36 11.65 14.33 17.82.83 1.29 1.85 2.46 2.53 4.03zm-81.76-58.5l-6.96-.21c1.2-1.43 8.12-5.61 10.33-6.98 3.16-1.97 7.9-4.17 11.7-5.54 4.23-1.53 9.04-2.92 14.12-3.08 4.88-.15 11.7.59 12.69 4.72 1.43 3.97-4.73 8.36-5.43 9.87 2.94-.03 4.77.1 7.32 1 10.08 3.6 4.81 12.27 2 14.22-2.08-1.15-5.07-3.55-7.6-4.26.98-1.84 3.71-3.72 3.98-6.01-1.93.52-4.15 1.77-5.62 2.7-3.12 1.97-2.22 1.27-5.68-.05-4.08-1.54-8.02-2.94-12.6-3.92 1.46-2.28 6.67-6.84 8.43-10.03-3.81 1.3-8.96 4.93-11.76 6.96-3.38 2.47-1.43 1.96-6.5 1.22-2.76-.4-5.68-.6-8.42-.61zM9.95 110.09c0 9.26.39 14.06 5.19 22.65 1.42 2.53 2.64 4.37 4.32 6.62 1.44 1.92 6.06 7.32 7.86 8.71l12.89 9.65c3.19 1.9 7.68 4.57 10.97 5.93l7.76 3.18c10.78 4.01 21.6 6 33.2 5.9 4.01-.03 5.98 2.19 12.46 4.45 8.69 3.03 25.7 6.37 33.36-1.03 2.97-2.88 3.89-5.78 2.37-9.85-.51-1.34-1.17-1.97-1.8-3.17 3.7-.31 14.35-7.06 18.55-10.28.83-.64 1.54-1.14 2.47-1.84 1.27-.95 7.47-6.37 8.66-7.91 1.56-2.01 6.6-7.32 7.1-9.48.91.25 3.16 2.6 4.97 3.99 6.55 5.01 12.54 7.95 21.54 7.95 6.04 0 9.95-4.45 9.95-10.94 0-7.72-5.17-19.26-7.96-24.53 1.62-1.09 4.13-4.17 5.4-5.88 1.69-2.27 3.11-4.28 4.56-6.7l3.59-7.68c1-2.97 1.7-6.1 1.7-9.91 0-7.13-5.01-13.59-11.93-13.59-5.13 0-6.58.31-11.37 2.22l-7.72 3.88c-4.8 2.89-7.44 5.2-11.45 8.44-.69.55-.87.88-1.61 1.37-.86-1.3-1.92-2.44-2.93-3.7l-6.26-7c-2.86-2.99-14.76-13.44-18.65-15.49.84-1.58 1.69-2.42 2.47-4.17 3.18-7.1 1.49-14.04-5.62-17.54-.75-.37-1.17-.49-1.82-.83 4.94-9.34-3.9-16.25-14.58-16.25-9.62 0-16.24 1.27-24.41 5.08-8.24 3.84-16.89 9.21-23.21 15.57-1.83 1.84-2.24.97-4.83 1.47-2.01.39-3.49.71-5.46 1.17-11.58 2.7-21.08 7.84-30.1 14.98-2.83 2.23-4.2 3.76-6.68 6.24-5.67 5.66-9.62 12.08-13.23 19.25-1.54 3.06-2.39 6.12-3.76 9.17-.64 1.43-1.42 2.68-2.08 4.22-1.75 4.05-3.88 11.05-3.88 15.68z"/><path id="D" d="M28.94 105.35l-4.45 3.69c-1.57 1.35-2.44 2.42-3.45 4.46 1.61-.72.3-.23.84.23-.11 5.52 4.41 13.39 7.45 17.75.49.7.62.84 1.16 1.49l2.42 2.88c2 2.5 1.31 1.77 3.98 3.98l1.1 1.19c.75.84.62.5 1.53 1.14l1.6 1.37c.05.05.13.11.18.15.05.05.13.11.18.15a3.13 3.13 0 0 1 .19.14c6.42 4.56 14.17 8.56 21.8 10.63 11.85 3.22 25.14 3.18 37.39.94 8.88-1.62 15.7-3.08 23.94-6.87 2.41-1.11 5.07-3.23 6.91-3.75-.96-.59-10.01-2.8-12.58-5.66.76-1.49 2.67-1.79 3.49-4.11-1.48 1.12-1.81 2.7-6.31 5.44-1.7 1.03-5.91 2.91-8.46 2.86 3.01-2.85 5.52-5.57 8.04-9.58 3.77-6.01 3.24-7.08 5.34-12.37-5.6-1.01-13.06-6.14-17.52-8.72-4.83-2.81-11.84-6.88-17.15-9.04 2.44 9.66-6.54 41.03-25.07 38.39-13.38-1.9-24.97-29.07-20.77-41.37-.79-.12-4.81 1.48-6.01 1.95-1.63.64-4.69 2.49-5.77 2.64z"/><path id="E" d="M17.57 118.75c.44 5.08 6.09 14.71 9.49 18.64.42.48.59.7.94 1.05 2.11 2.11 2.61 2.95 5.14 5.15l4.43 3.84c1.48 1.16 3.02 2.29 4.67 3.31 5.08 3.15 10.2 6.34 15.94 8.57 13.56 5.28 26.3 7.96 41.25 6.85 16.69-1.24 24.88-4.31 38.52-10.21 3.76-1.63 14.26-7.87 17.44-10.77 3.78-3.44 5.39-4.21 9.33-8.92.58-.7.53-.54 1.14-1.14 1.52-1.53 5.97-7.73 6.85-9.43 1.83-3.57 3.95-6.92 4.86-11.58-.39-.46.45-1.05-1.15.32-2.21 1.88-5.26 5.21-7.84 6.41l-.88.34c-1.17 3.78-2.52 6.26-4.63 9.15l-4.43 4.52c-.88.62-1.5 1.26-2.43 1.85-6.48 4.09-13.82 5.12-21.29 3.17-7.12-1.85-8.63-4.17-11.97-5.63l-.33.91c-.82 2.32-2.73 2.62-3.49 4.11 2.57 2.86 11.62 5.07 12.58 5.66-1.84.52-4.5 2.64-6.91 3.75-8.24 3.79-15.06 5.25-23.94 6.87-12.25 2.24-25.54 2.28-37.39-.94-7.63-2.07-15.38-6.07-21.8-10.63a3.13 3.13 0 0 0-.19-.14c-.05-.04-.13-.1-.18-.15-.05-.04-.13-.1-.18-.15l-1.6-1.37c-.91-.64-.78-.3-1.53-1.14l-1.1-1.19c-2.67-2.21-1.98-1.48-3.98-3.98l-2.42-2.88c-.54-.65-.67-.79-1.16-1.49-3.04-4.36-7.56-12.23-7.45-17.75-.54-.46.77-.95-.84-.23-1.95 1.54-1.81 3.75-3.47 5.25z"/><path id="F" d="M79.47 121.08c-2.01 5.78-4.2 10.22-8.26 13.15-12.08 8.73-25.8-3.21-9.2-12.5 5.33-2.99 11.76-3.32 17.46-.65zm-34.84-18.09c8.2-2.91 29.94-1.31 37.46 1.67-7.5 4.32-21.03 5.52-30.33 2.7-4.95-1.51-5-2.48-7.13-4.37zm-3.91-2.23c-4.2 12.3 7.39 39.47 20.77 41.37 18.53 2.64 27.51-28.73 25.07-38.39-.46-1.12-.62-.97-2-1.33l-8.07-1.88c-9.86-1.66-27.11-3.26-35.77.23z"/><path id="G" d="M127.27 120.36c.59-1.39 1.76-1.8 3.57-3.05 3.69-2.55 7.11-4.89 11.38-6.82 4.44-2 14.54-6.54 18.85-1.61 5.56 3.98-2.28 28.82-23.31 25.5-5.89-.94-8.39-3.45-12.15-5.27.63-2.99 1.67-5.21 1.66-8.75zm-6.04 1.14c-2.1 5.29-1.57 6.36-5.34 12.37-2.52 4.01-5.03 6.73-8.04 9.58 2.55.05 6.76-1.83 8.46-2.86 4.5-2.74 4.83-4.32 6.31-5.44l.33-.91c3.34 1.46 4.85 3.78 11.97 5.63 7.47 1.95 14.81.92 21.29-3.17.93-.59 1.55-1.23 2.43-1.85l4.43-4.52c2.11-2.89 3.46-5.37 4.63-9.15 1.87-3.32 2.24-15.61-6.81-18.89-7.41-2.68-16.48 1.39-21.7 4.14 0-7.05-4.03-17.96-6.48-23.34-1.66-3.63-3.33-6.51-5.51-9.41-1.87-2.49-4.87-6.74-6.95-8.02l4.24 10.06c3.43 8.81 7.86 24.56 8.04 33.7-1.12.93-2.26 1.5-3.32 2.28-1.12.84-2.16 1.64-3.23 2.32-.42-2.04-2.17-5.46-3.33-6.57-.09 5.18.12 9.05-1.42 14.05z"/><path id="H" d="M191.78 109.19c.27.06.53.13.79.22.55.2.42.17.72.38-2.85.66-3.6 1.49-7.38 1.36-2.37-.08-5.32-.49-6.8-1.76 2.46-1.48 9.55-.88 12.67-.2zm-13.75-7.12l-.41-.06c-.85.49.37.22-.38-.09-1.18-.48.62-.57-.19-.12 0 .01-1.29 3.09-4.2 6.5-.62.73-.81 1.22-1.45 1.85-2.04 2.02-2.28.38-2.21 4.57.02 1.17-.05 2.42-.27 3.57-.14.72-.64 1.86-.34 2.55 2.58-1.2 5.63-4.53 7.84-6.41 1.6-1.37.76-.78 1.15-.32l.49 1.17c.42.8-.04.4.79.87l7.47 3.15c2.14 1.07 7.27 4.66 8.18 6.03-3.82-.6-10.24-4.41-14.34-5.71l-1.34 6.04c3.52 3.52 5.51 6.14 10.35 9.01 2.23 1.32 11.79 5.95 14.65 2.62 2.4-2.8-.64-12.38-1.79-15.46-2.05-5.45-4.1-8.5-6.41-12.99 1.7-1.5 3.52-3.31 4.84-5.38-.84-.3.11.41 1.44-2.39-3.98.57-19.2 4.52-23.14 1.64l-.73-.64z"/><path id="I" d="M46.46 63.99a18.29 18.29 0 0 1 1.55-1.34c9.41-6.88 21.21-11.07 32.84-11.96 14.13-1.09 29.3.99 41.36 5.79 3.92 1.56 12.51 5.35 16.12 7.75 1.27.84 2.54 1.58 3.56 2.39l3.56 2.42.2.13 4.82 3.79c.51.41.07.07.76.56l1.27 1.04.17.17 4.48 3.48c.39.36.16.27.61.69l4.06 3.57c.92.97 1.19.61 1.94 1.4.38.4.44.83 1.25 1.38 3.89 2.63.79 1.1 3.22 2.74 1.96 1.32 4.77 3.89 6 5.93.58.95.45.92 1.19 1.78l1.02 1.03c.07.06.16.12.23.17l.5.32c-.68-1.57-1.7-2.74-2.53-4.03-3.97-6.17-9.18-12.61-14.33-17.82-10.26-10.39-24.2-19.67-39.17-25.13-13.47-4.92-30.13-6.48-45.32-4.21-7.81 1.17-13.18 3.53-19.53 6.32-3.11 1.36-13.97 8.68-15.21 10.64 2.93-.02 3.01.3 5.38 1z"/><path id="J" d="M148.83 127.63c-1.15.74-6.07 1.02-7.32 1.02-3.18-.01-8.1-.68-10.61-1.64 1.09-.68 8.15-.4 9.3-.33 3.03.18 5.58.86 8.63.95zm-16.21-6.01c2.8-1.77 16.64-4.29 21.25-4.28l-2.41 1.06c-.78.27-1.56.56-2.47.83-1.61.48-3.28.87-5.05 1.25-3.67.77-7.49 1.55-11.32 1.14zm-5.35-1.26c.01 3.54-1.03 5.76-1.66 8.75 3.76 1.82 6.26 4.33 12.15 5.27 21.03 3.32 28.87-21.52 23.31-25.5l-8.46 2.71c-2.97.89-5.54 1.71-8.53 2.74l-16.81 6.03z"/><path id="K" d="M95.41 38.72c2.74.01 5.66.21 8.42.61 5.07.74 3.12 1.25 6.5-1.22 2.8-2.03 7.95-5.66 11.76-6.96-1.76 3.19-6.97 7.75-8.43 10.03 4.58.98 8.52 2.38 12.6 3.92 3.46 1.32 2.56 2.02 5.68.05 1.47-.93 3.69-2.18 5.62-2.7-.27 2.29-3 4.17-3.98 6.01 2.53.71 5.52 3.11 7.6 4.26 2.81-1.95 8.08-10.62-2-14.22-2.55-.9-4.38-1.03-7.32-1 .7-1.51 6.86-5.9 5.43-9.87-6.92-2.32-17.14-.27-23.58 1.95-3.84 1.32-10.5 4.52-13.75 6.79-2.39 1.67-2.74 2.49-4.55 2.35z"/><path id="L" d="M25.28 42.46c-5.14-.14-10.16.2-14.71-1.63C4.73 38.47 3.72 34 6.5 31.71c1.64-1.36 4-1.98 6.39-1.14 4.25 1.48 8.17 5.97 10.68 9.53.59.85.99 1.63 1.71 2.36zM.01 34.17c0 3.05-.25 4.6 2.56 7.38 4.53 4.49 10.54 5.55 17.65 5.55 2.79 0 11.27-.47 11.27-2.66 0-1.99-9.9-18.89-21.54-18.89-4.66 0-9.94 4.07-9.94 8.62z"/><path id="M" d="M38.11 30.18l-1.65-1.03c-1.36-1-.46-.75-2.19-2.4-1.72-1.63-1.53-.92-2.57-2.39-2.61-3.72-10.53-13.01-5.61-17.8 2.2-2.15 4.39-1.85 6.97-.48 6.16 3.25 4.63 20.96 5.05 24.1zM24.86 1.82c-1.33.04-1.11.05-1.66.97 1.48.82.35-.8.12.29-.2.97-7.25 5.54-.11 16.87 1.56 2.46 3.11 4.94 5.32 6.91.36.32.47.48.78.86 2.01 2.41 3.4 3.18 4.42 4.19.82.81-.05.16 1.04.95l1.19.79.42.24c.51.3.11.03.6.35l2.36 1.42c2.21.8 2.08-1.9 2.22-3.52.56-6.82 1.12-13.22-.54-19.84-1.46-5.81-3.94-10.39-9.52-11.27-3.81-.6-4.29.83-6.64.79z"/><path id="N" d="M79.47 121.08c-5.7-2.67-12.13-2.34-17.46.65-16.6 9.29-2.88 21.23 9.2 12.5 4.06-2.93 6.25-7.37 8.26-13.15z"/><path id="O" d="M74.58 93.2c2.83.05 7.09-7.63 17.03-5.79 6.36 1.18 9.61 5.22 12.31 10.43 1.45-.17 1.86-.66 2.25-2.23.77-3.03-1.05-7.08-2.65-9.18C92.73 72.23 74 82.27 74.58 93.2z"/><path id="P" d="M95.41 38.72c1.81.14 2.16-.68 4.55-2.35 3.25-2.27 9.91-5.47 13.75-6.79 6.44-2.22 16.66-4.27 23.58-1.95-.99-4.13-7.81-4.87-12.69-4.72-5.08.16-9.89 1.55-14.12 3.08-3.8 1.37-8.54 3.57-11.7 5.54-2.21 1.37-9.13 5.55-10.33 6.98l6.96.21z"/><path id="Q" d="M26.99 7.71c1.9-1.4 4.53 1.9 1.93 3.34-1.02.57-2.13.28-2.64-.51-.62-.97-.29-2.1.71-2.83zm11.12 22.47c-.42-3.14 1.11-20.85-5.05-24.1-2.58-1.37-4.77-1.67-6.97.48-4.92 4.79 3 14.08 5.61 17.8 1.04 1.47.85.76 2.57 2.39 1.73 1.65.83 1.4 2.19 2.4l1.65 1.03z"/><path id="R" d="M44.63 102.99c2.13 1.89 2.18 2.86 7.13 4.37 9.3 2.82 22.83 1.62 30.33-2.7-7.52-2.98-29.26-4.58-37.46-1.67z"/><path id="S" d="M24.27 88.6c-1.5 1.48-5.2 10.35-6.06 13.18-1.26 4.12-2.83 12.99-.64 16.97 1.66-1.5 1.52-3.71 3.47-5.25 1.01-2.04 1.88-3.11 3.45-4.46l4.45-3.69-1.1.11c-1.38-1.07-2.61-5.73-2.87-7.68-.45-3.41-.25-6.2.19-9.57-.58-.35.38-.19-.39.19-1.27.63.54.66-.5.2z"/><path id="T" d="M29.05 91.63l1.33-.17c.41-.25.73-.73 1.11-1.27 1.65-2.34 4.65-5.76 7.96-5.96 6.95-.41 7.81 7.53 9.93 8.44.74-.43.97-.6 1.24-1.92.54-2.66-.51-5.79-1.84-7.89-1.48-2.32-4-4.93-8-5.09-4.04-.17-7.23 2.44-8.79 4.3-1.48 1.78-4.35 6.22-2.94 9.56z"/><path id="U" d="M4.84 59.94c.32-1.26 1.14-2.03 2.79-2.11 2.73-1.77 6.41-1.29 9.85-1.06-.44 1.32.09.16-.89 1.26-1.95 2.19-2.91 3.66-5.49 5.47-4.81 3.37-8.51-1.89-6.26-3.56zm16.97-4.22c-3.48-2.64-10.8-2.67-14.9-1.36-13.18 4.25-3.24 19.74 6.88 11.45 2.64-2.17 1.76-1.74 3.3-3.26l.65-.65a3.13 3.13 0 0 0 .14-.19l3.93-5.99z"/><path id="V" d="M177.97 91.26c.65-.64 1.01-.76 1.74-1.29l1.7-1.28 11.41-7.16c1.26-.58 2.46-1.51 3.8-2.13 2.26-1.05 7.13-2.91 9.47-3.26 1.37-.21 4.28-.4 5.33.49 1.01-.5.19.18.5-.54-4.44-8.66-17.44-.78-22.98 3.2-4.85 3.48-8.28 6.53-11.6 8.93l.63 3.04z"/><path id="W" d="M78.69 75.13c4.68-2.88 8.76-7.03 17.57-5.28 4.56.91 8.46 3.52 11.14 6.74.53.64.86 1.04 1.29 1.68l1.5 1.67c-1.4-15.6-16.55-17.95-25.19-12.8-2.06 1.23-6.05 5.16-6.31 7.99z"/><path id="X" d="M6.9 32c.89-.29 2.28-.82 3.21.02 3.1 2.8-4.5 6.37-3.21-.02zm18.38 10.46c-.72-.73-1.12-1.51-1.71-2.36-2.51-3.56-6.43-8.05-10.68-9.53-2.39-.84-4.75-.22-6.39 1.14-2.78 2.29-1.77 6.76 4.07 9.12 4.55 1.83 9.57 1.49 14.71 1.63z"/><path id="Y" d="M121.36 168.13c1.99 1.21 4.59 1.71 4.94 4.32-4.3-.5-8.22-3.3-8.77-3.43-.53-.11-8.61 1.21-10.46 1.3l1.03.7c5.67 3.01 19.39 5.28 24.86.8 3.23-2.65.94-4.67-.56-6.74-.45.01-10.43 2.79-11.04 3.05z"/><path id="Z" d="M127.27 120.36l16.81-6.03 8.53-2.74 8.46-2.71c-4.31-4.93-14.41-.39-18.85 1.61-4.27 1.93-7.69 4.27-11.38 6.82-1.81 1.25-2.98 1.66-3.57 3.05z"/><path id="a" d="M77.67 58.37c3.17 4.65 6.13-3.18 17.3-.18 1.68.45 3.98 2.03 4.99 2.07.08-1.13.22-.64-.2-1.53-.05-.1-.94-1.33-.97-1.37-.68-.85-3.89-2.94-5.17-3.49-4.52-1.91-14.2-1.98-15.95 4.5z"/><path id="b" d="M24.86 1.82c2.35.04 2.83-1.39 6.64-.79 5.58.88 8.06 5.46 9.52 11.27 1.66 6.62 1.1 13.02.54 19.84-.14 1.62-.01 4.32-2.22 3.52l-2.36-1.42c-.49-.32-.09-.05-.6-.35l-.42-.24-1.19-.79c-1.09-.79-.22-.14-1.04-.95-1.02-1.01-2.41-1.78-4.42-4.19-.31-.38-.42-.54-.78-.86-2.21-1.97-3.76-4.45-5.32-6.91-7.14-11.33-.09-15.9.11-16.87.23-1.09 1.36.53-.12-.29-2.85 1.24-4.56 5.98-3.68 10.2 2.21 10.7 16.69 23.56 20.6 23.55 1.6 0 1.75-.46 1.95-1.73 1.06-6.67.96-17.67-.57-23.59C39.68 4.14 35.03-.91 27.6.43c-1.24.22-2 .52-2.74 1.39z"/><path id="c" d="M148.47 93.82c4.65-6.4-1.49-16.21-6.39-16.66.09 2.05 3.96 8.27 4 13.22 0 1.24-.47 3.57.32 4.88.91-.73 1.03 0 2.07-1.44z"/><path id="d" d="M7.63 57.83c.61.82 1.22.88.7 2.28-.29.8-.92 1.23-1.7 1.53-1.03-.31-1.61-.64-1.79-1.7-2.25 1.67 1.45 6.93 6.26 3.56 2.58-1.81 3.54-3.28 5.49-5.47.98-1.1.45.06.89-1.26-3.44-.23-7.12-.71-9.85 1.06z"/><path id="e" d="M17.88 61.71l-.14.19-.65.65c-1.54 1.52-.66 1.09-3.3 3.26-10.12 8.29-20.06-7.2-6.88-11.45 4.1-1.31 11.42-1.28 14.9 1.36l-3.93 5.99zM.01 61.02c0 2.5.09 3.91 2.56 6.06 8.46 7.39 19.64-8.43 19.64-11.36 0-3.83-22.2-5.43-22.2 5.3z"/><path id="f" d="M177.62 102.01l.41.06c4.84-1.62 12.38-5.18 16.88-7.85l3.86-2.43.58-.44c.38-.33.24-.2.53-.54-1.63.35-4.66 1.7-6.33 2.37l-11.37 5.22c-5.46 2.76-3.34 1.62-4.56 3.61z"/><path id="g" d="M156.71 87.03c1.95 10.36.77 3.22.88 12.22 1.56-.47 2.73-1.13 3.45-2.46 1.03-1.92 1.07-3.95.08-5.95-.6-1.22-.4-.79-1.24-1.45-1.48-1.17-1.31-1.94-3.17-2.36z"/><path id="h" d="M165.01 104.12c1.44 1.48 2.14 3.38 3.33 4.63.76-5.09.87-12.53-1.15-17.46-.2 2.62.28 4.64-.32 7.39-.45 2.04-1.47 3.64-1.86 5.44z"/><path id="i" d="M132.62 121.62c3.83.41 7.65-.37 11.32-1.14 1.77-.38 3.44-.77 5.05-1.25.91-.27 1.69-.56 2.47-.83l2.41-1.06c-4.61-.01-18.45 2.51-21.25 4.28z"/><path id="j" d="M179.11 109.39c1.48 1.27 4.43 1.68 6.8 1.76 3.78.13 4.53-.7 7.38-1.36-.3-.21-.17-.18-.72-.38-.26-.09-.52-.16-.79-.22-3.12-.68-10.21-1.28-12.67.2z"/><path id="k" d="M148.83 127.63c-3.05-.09-5.6-.77-8.63-.95-1.15-.07-8.21-.35-9.3.33 2.51.96 7.43 1.63 10.61 1.64 1.25 0 6.17-.28 7.32-1.02z"/><path id="l" d="M34.2 72.27c.5-.42 2.01-1.26 2.31-1.29l1.19.19c.95-.03 5.81-1.9 6.78-3.21-4.54-1.59-8.81 2.35-10.28 4.31z"/><path id="m" d="M6.9 32c-1.29 6.39 6.31 2.82 3.21.02-.93-.84-2.32-.31-3.21-.02z"/><path id="n" d="M26.99 7.71c-1 .73-1.33 1.86-.71 2.83.51.79 1.62 1.08 2.64.51 2.6-1.44-.03-4.74-1.93-3.34z"/><path id="o" d="M4.84 59.94c.18 1.06.76 1.39 1.79 1.7.78-.3 1.41-.73 1.7-1.53.52-1.4-.09-1.46-.7-2.28-1.65.08-2.47.85-2.79 2.11z"/></defs></svg>