<svg xmlns="http://www.w3.org/2000/svg" width="224" height="200" viewBox="0 0 224 199.79" shape-rendering="geometricPrecision" image-rendering="optimizeQuality" fill-rule="evenodd" xmlns:v="https://vecta.io/nano"><style><![CDATA[.X{fill:#15263e}.Y{fill:#162941}.Z{fill:#ffc979}.a{fill:#fecc7c}.b{fill:#e44b04}.c{fill:#fefefb}.d{fill:#ff6709}.e{fill:#d6c9b4}.f{fill:#fefef5}.g{fill:#132542}]]></style><g fill="#0093ad"><circle cx="123.22" cy="99.9" r="99.9"/><circle cx="123.22" cy="99.9" r="99.9"/></g><use href="#B" class="d"/><use href="#C" class="X"/><use href="#D" fill="#fff5d6"/><use href="#E" class="e"/><use href="#F" class="Y"/><use href="#G" class="X"/><use href="#H" class="b"/><use href="#I" class="Z"/><use href="#J" fill="#68c3e8"/><use href="#K" class="d"/><use href="#L" fill="#162640"/><g fill="#ff6809"><use href="#M"/><use href="#N"/></g><use href="#O" class="f"/><use href="#P" class="Y"/><use href="#Q" class="f"/><use href="#R" class="X"/><use href="#S" class="Y"/><use href="#T" class="Z"/><use href="#U" class="e"/><use href="#V" class="b"/><use href="#W" class="Z"/><use href="#X" class="X"/><use href="#Y" class="Z"/><use href="#Z" class="b"/><g class="a"><use href="#a"/><use href="#b"/></g><use href="#c" fill="#17273e"/><use href="#d" class="X"/><use href="#e" fill="#6ac4e7"/><use href="#f" class="a"/><g class="Y"><use href="#g"/><use href="#h"/><use href="#i"/></g><use href="#j" class="a"/><use href="#k" class="g"/><use href="#l" class="a"/><g class="c"><use href="#m"/><use href="#n"/></g><use href="#o" class="g"/><use href="#p" class="c"/><use href="#q" fill="#0e2445"/><use href="#r" fill="#162a45"/><use href="#s" fill="#061749"/><use href="#t" class="c"/><use href="#u" fill="#fcd17c"/><use href="#v" fill="#161927"/><use href="#w" fill="#01020b"/><use href="#B" class="d"/><use href="#C" class="X"/><use href="#D" fill="#fff5d6"/><use href="#E" class="e"/><use href="#F" class="Y"/><use href="#G" class="X"/><use href="#H" class="b"/><use href="#I" class="Z"/><use href="#J" fill="#68c3e8"/><use href="#K" class="d"/><use href="#L" fill="#162640"/><g fill="#ff6809"><use href="#M"/><use href="#N"/></g><use href="#O" class="f"/><use href="#P" class="Y"/><use href="#Q" class="f"/><use href="#R" class="X"/><use href="#S" class="Y"/><use href="#T" class="Z"/><use href="#U" class="e"/><use href="#V" class="b"/><use href="#W" class="Z"/><use href="#X" class="X"/><use href="#Y" class="Z"/><use href="#Z" class="b"/><g class="a"><use href="#a"/><use href="#b"/></g><use href="#c" fill="#17273e"/><use href="#d" class="X"/><use href="#e" fill="#6ac4e7"/><use href="#f" class="a"/><g class="Y"><use href="#g"/><use href="#h"/><use href="#i"/></g><use href="#j" class="a"/><use href="#k" class="g"/><use href="#l" class="a"/><g class="c"><use href="#m"/><use href="#n"/></g><use href="#o" class="g"/><use href="#p" class="c"/><use href="#q" fill="#0e2445"/><use href="#r" fill="#162a45"/><use href="#s" fill="#061749"/><use href="#t" class="c"/><use href="#u" fill="#fcd17c"/><use href="#v" fill="#161927"/><use href="#w" fill="#01020b"/><defs ><path id="B" d="M80.34 118.7c-2.31-.2-4.22-.94-5.96-1.8-1.51-.74-3.73-2.44-4.55-3.47-2.47-3.12-4.85-9.23-3.56-11.92-1.23-3.47 2.16-13.98 9.55-17.6 15.53-7.59 28.8 10.87 22.06 26.08-3.08 6.93-8.71 10.8-16.25 9.44-1.68-.3-1.11.08-1.29-.73zm75.32-9.12c.8-1.31 6.88-3.65 9.62-5.14 3.23-1.74 6.78-3.49 10.24-4.77-.96 1.61-6.3 4.94-8.65 6.09-2.48 1.22-7.94 3.55-11.21 3.82zm-18.52-18.21c6.1 2.41 6.74 12.69 2.25 11.94-.83-1.33-.43-4.12-.82-6.13-.37-1.9-.88-3.73-1.43-5.81zm-95.48 9.12c.46 1.45-3.43 5.85-4.34 6.68-2 1.81-4.91 3.14-8.58 3.11l-.36.29c-.34.22-.25.2-.56.34-3.23 1.44-11.63-2.23-11.62-11.8.01-7.81 3.85-14.24 7.61-17.79 5.78-5.47 13.57-5.83 17.5-.55 4.53 6.08 3.79 15.52.35 19.72zm84.16-17.1c2.66-.21 5.55 3.97 6.29 6.27 1.03 3.21 1.07 8.68-2.61 9.46-.42-3.15-.6-5.23-1.47-8.31-.57-2.02-2.59-5.55-2.21-7.42zm-52.71-3.81c.5-3.21 3.16-5.8 5.38-7.07 5.8-3.3 13.75-1.16 17.95 3.68 1.31 1.5 4.05 5.45 3.43 8.5-1.22-.81-8.02-11.91-20.13-8.32-2.94.87-4.45 2.21-6.63 3.21zM55 69.96c.06-1.3.62-2.81.79-4.24.2-1.8.02-3.37 1.91-3.49 1.16 1.54.92 3.44.13 5.11-.39.82-.58 1.34-1.11 1.8-.23.19-1.28.82-1.72.82zm24.13-9.61c8.42-1.11 14.36 4.67 12.48 6.61-.29.3.59.34-.73.2L89 66.41c-1.88-.69-4.36-1.46-6.6-1.34-7.46.41-10.89 5.59-11.93 2.44-1.03-3.11 5.06-6.68 8.66-7.16zm-46.59 10.3c2.59 1.14 8.59 1.41 11.44.66 4.89-1.3 5.76-4.25 8.32-4.71.16 12.26-19.26 10.89-21.08 3.82-.29-.06-.4-.05-.65-.16-.16-.07-.26.09-.38-.25-.04-.1-.13-.11-.19-.16-3.29 2.96-5.93 5.48-8.73 9.21-1.44 1.92-6.47 8.98-7.15 11.21l1.22-1.34c-.74 8.82-2.46 4.2.13 15.65-.6.53-.6.55-1.13 1.15-.36.41-.22.3-.57.59-1.06.86-2.47 1.51-2.78 3.49-.37 2.41.62 6.28 1.24 8.27l.87-.07c1.08-.2 2.88-1.63 5.12-2.65 2.13-.97 3.51-1.45 5.93-2.1 4.59-1.22 8.97-1.24 13.13-2.97 5.56-2.31 10.79-5.43 19.12-1.8 8.38 3.65 11.68 9.93 23 16.92 5.97 3.68 14.57 8.23 22.78 9.37 3.79-6.55 6.08-12.12 5.75-21.93 1.73 1.13 2.46 4.15 2.96 6.04 1.55-.71 3.27-1.93 4.69-2.95 2.7-1.95 2.51-1.38 2.42-5.61-.11-4.53-.94-9.93-1.89-14.2-1.12-5.05-3.42-13.69-5.52-18.31-.7-1.54-2.26-4.23-2.63-5.39 3.62 1.23 9.51 11.07 11.42 15.57 2.84 6.69 4.83 14.07 4.72 22.58 4.1-1.06 22.07-11.88 24.46 5.13.7 4.93-.59 7-1.55 10.9 1.71-.27 1.68-7.52 2.31-9.04.27-.66.75-.81 1.3-1.62l3.03-3.57c.91-1.01.72-.63.98-1.71l.68.44c1.56.8 3.75.57 5.49.38 8.62-.94 9.86-.88 18.9-3.33-.9 1.97-1.33 1.45-.83 1.59 2.42-.72 11.32-16.38 8.13-21.39-5.28-1.23-8.1-.76-13.22 1.35l-7.19 3.46c-.65.38-.84.71-1.44 1.11-.89.57-.92.3-1.89 1l-6.56 4.4c.27 2.82.11 4.8-.88 7.13l-.68-.46c-1.01-.39-1.79-1.97-2.52-3.08-.03-.05-.07-.12-.11-.17l-1.43-1.71c-.3-.35-2.3-3.47-4.2-5.3l-2.72-3.02c-1.57-2.24-.62-.51-1.6-1.82-2.3-3.08-.77-.66-2.12-2.18-.45-.5-.74-1.07-1.24-1.66-2.25-2.61-5.35-4.73-5.99-5.5-.55-.66.01-.28-.76-.94-.37-.3-.51-.27-.87-.6l-.14-.14-1.36-1.22c-.99-.76-.02-.01-.72-.7l-.94-.78c-.05-.04-.11-.1-.16-.13l-1.32-.98c-.27-.18-.24-.16-.5-.36l-6.15-4.45c-2.28-1.47-4.66-2.7-7.29-4.22-2.54-1.48-5.29-2.49-7.79-3.7-10.85-5.25-26.7-7.46-39.34-5.47-11.23 1.76-16.35 4.03-25.68 8.75-2.1 1.06-5.66 2.98-7.65 3.68z"/><path id="C" d="M98.85 167.3l10.04-2.62c1.63 1.6 2.96 4.63.52 6.28-6.04 4.1-21.01.72-22.74-2.59 4.5.49 6.42-1.48 8.83.09 1.56 1.03 4.87 2.97 7.47 2.67-.3-.75-3.28-3.25-4.12-3.83zm-62.58-24.13c2.2.27 3.48-.88 6.37.33 1.91.8 3 2.32 3.28 4.62.18 1.7-.12 2.41-.76 3.43-.47-.06-5.1-2.37-7.56.42 4.03-.22 8.04 1.46 6.61 5.78-1.06 3.19-5.06 4.01-9.06 3.97 1.11 1.74 4.84 2.56 7.31 2.31 4.64-.47 2.71-2.46 5.76-.55.58.36.44.21.82.56-5.15 3.43-25.86 3.58-26.41-10.33-.18-4.8 1.26-7.19 3.13-10.49 1.6-3.2 5.88-8.02 8.83-10.05 1.47-1.01 3.82-2.56 6.07-3.11 3.52-.87 5.87.07 5.81 3.53-2.26 6.1-9.06 7.47-10.23 9-.44.58-.66.09.03.58zm142.6-33.42c-1.65 2.88-4.94 5.22-7.31 7.65 1.91 3.19 9.73 22.7 5.1 26.03-3.15 2.27-10.67-1.99-12.66-3.27-3.56-2.3-6.31-5.2-8.92-7.93l1.75-5.55c.03-.07.09-.16.12-.21a1.2 1.2 0 0 1 .12-.21c4.31 1.48 8.05 3.82 12.68 5.02-1.25-2.8-13.65-7.92-15.58-8.92-2.75 5.53-2.9 7.01-6.84 12.11-.63.81-1.36 1.8-2.06 2.55l-2.3 2.57c-3.33 3.44-6.52 6.01-10.42 8.82-5.35 3.86-13.2 7.15-19.49 9.55-14.87 5.67-33.88 8.24-49.77 4.52-3.6-.84-7.7-1.77-11.14-3.22-1.24-.52-2.24-1.2-3.47-1.48.06-2.78-.47-2.73 1.03-4.58.68-4.06 1.07-6.86-1.54-10.35-.88-1.17-1.44-1.21-2.18-2.13.76-.32 1.14-.88 1.79-1.53.65-.63.95-1.04 1.42-2.05 4.52-9.57-6.41-15.54-17.92-6.99-1.52 1.12-2.54 2.06-3.75 3.14-.93.84-2.66 3.14-3.47 3.48l-3.14 4.84c-.42.6-.1.26-.55.64-1.31-.91-3.19-2.73-4.17-3.93-.94-1.17-.77-.57-1.96-2.06-2.55-3.21-6.5-8.66-7.21-12.99-2.12-5.17-1.03-12.78.51-18.3.91-3.24 4.76-13.22 6.58-14.7.68-2.23 5.71-9.29 7.15-11.21 2.8-3.73 5.44-6.25 8.73-9.21 19.17-18.6 50.78-20.41 75.16-11 8.47 3.28 20.02 9.99 26.91 15.89l9.49 8.86c.89.89 1.86 2.18 2.79 3.26 3.63 4.15 9.46 13.56 10.79 19.49l.68.46c.99-2.33 1.15-4.31.88-7.13l-.78-3.26c3.05-1.72 7.61-6.23 14.56-9.71 4.74-2.37 15.12-5.86 16.52 1.65 3.19 5.01-5.71 20.67-8.13 21.39zM80.33 47.71l-7.26.11c.22-.56 3.39-2.99 4.2-3.51 6.07-3.92 8.02-5.44 15.48-8.36 5.66-2.2 22.21-5.51 23.82 2.85-.13 4.47-3.65 5.2-5.23 7.5 4.55.51 8.45 1.24 10.88 3.8 3.28 3.44.92 8.08-1.62 9.93l-7.48-4.28c1.49-1.37 3.58-2.88 4.06-5.52-1.92.09-3.93 1.66-5.31 2.53-2.86 1.81-1.28 1.92-5.07.4-3.8-1.52-8.25-2.12-11.98-3.46 1.76-2.29 6.73-7.32 7.17-8.55-3.86 1.39-6.83 3.28-9.66 5.58-2.31 1.89-1.4 2.27-5.2 1.72-2.27-.34-4.69-.4-6.8-.74zM-.89 116.65c0 7.72 3.08 14.07 6.38 18.9 2.51 3.69 8.44 10.36 12.29 12.4-.04 1.94-.57 3.07-.57 5.75 0 4.31 2.45 8.64 4.66 10.85 2.71 2.69 5.85 4.58 9.95 5.85 13.83 4.26 24.96-2.63 26.17-2.63.76 0 1.67.42 2.52.64l8.44 1.61c6.63.71 5.09.15 10.39 2.83 6.5 3.29 14.42 5.55 23.16 5.55 6.08 0 14.94-2.63 14.94-8.33 0-1.84-.02-2.14-.54-3.77-.32-1.02-.81-1.81-.9-2.83 3.42-.29 12.43-5 16-6.99 6.06-3.38 10.11-6.97 14.95-11.75.85-.84 1.1-1.34 1.86-2.16 1.72-1.85 2.7-3.83 3.67-4.09.44 1.65 2.88 3.07 4.09 4.23 10.04 9.59 34.92 15.4 26.17-13.82l-2.6-7.46c-.22-.46-.4-.71-.57-1.18-.67-1.87.61-1.54 2.32-3.77 1.7-2.21 3.15-3.2 5.78-7.14 2.9-4.33 6.16-11.23 6.16-17.68 0-3.46-1.54-7.61-3.22-9.42-4.82-5.17-10.66-4.78-17.56-2.75l-7.08 2.97c-2.16 1.08-4.25 2.46-6.26 3.8-1.62 1.07-5.13 3.99-6.08 4.25-.24-1.01-.65-1.46-1.23-2.22-5.24-6.86-4.8-6.83-11.05-13.08-4.2-4.19-10.35-8.97-15.3-12.28l2.19-3.56c2.73-4.89 1.03-11.07-3.78-14.37-1.21-.83-2.09-.97-3.29-1.6.74-3.15.86-.82.86-5.74 0-5.65-8.11-9.48-14.36-9.48-9.23 0-15.02 1.06-23.06 5.08-.72.35-1.29.55-1.96.91-6.39 3.35-7.37 4.36-12.85 8.41-2.05 1.52-5.62 5.34-6.43 5.63l-9.98 2.08c-11.4 3.02-19.03 7.76-27.69 14.53-2.39 1.87-6.99 6.71-8.86 9.23-4.39 5.92-5.75 7.54-9.11 15.02-.62 1.38-1.09 2.96-1.72 4.31L3.9 97.3c-2.37 4.71-4.79 12.41-4.79 19.35z"/><path id="D" d="M40.42 118.39c-1.48-2-1.06-3.88.7-5.97 1.16-1.38 3.46-2.54 5.95-2.57 11.54-.15 11.97 16.46 8.31 11.16-1.09-1.57-.92-2.7-3.4-4.97-4.88-4.5-7.25-1.12-9.74 2.37l-1.82-.02zm-27.32-.38c-.67.99-.8.55-1.46 1.42l1.03-.21c.56 3.24 5.28 10.93 7.5 13.16.54.54 2.91 2.07 3.63 3.72l.05.15c.01.03.04.11.05.14 0 .02.03.1.04.12.38 1.01-1.37-.71.12.26.81-.34 2.54-2.64 3.47-3.48 1.21-1.08 2.23-2.02 3.75-3.14 11.51-8.55 22.44-2.58 17.92 6.99-.47 1.01-.77 1.42-1.42 2.05-.65.65-1.03 1.21-1.79 1.53.74.92 1.3.96 2.18 2.13 2.61 3.49 2.22 6.29 1.54 10.35.42.83 0 .67.44-.41l.63-3.68c7.07 2.28 6.28 2.55 14.5 4.11 12.54 2.37 31.76-.2 43.57-6.17l3.18-1.73c-1.45-.29-6.6-3.8-7.51-4.55.01-.07.06-.24.08-.2l.3-.54c.08-.1.51-.52.7-.74.52-.57.88-.99 1.26-1.74-1.18.86-1.96 2.04-3.14 3.02-3.5 2.91-7.73 4.81-12.57 5.24.44-.75.65-.67 1.43-1.16 1.78-1.11 3.15-2.41 4.59-3.74 1.91-1.76 3.34-3.83 5.01-6.13-8.21-1.14-16.81-5.69-22.78-9.37-11.32-6.99-14.62-13.27-23-16.92-8.33-3.63-13.56-.51-19.12 1.8-4.16 1.73-8.54 1.75-13.13 2.97-2.42.65-3.8 1.13-5.93 2.1-2.24 1.02-4.04 2.45-5.12 2.65z"/><path id="E" d="M146.52 127.65c-.48.63-.87 1.77-1.39 2.64-1.17 1.93-3.27 4.8-4.88 6.3-6.37 5.93-14.17 8.26-22.88 5.4-3.85-1.26-7.36-2.91-10.04-5.08l-.47.64c-.38.75-.74 1.17-1.26 1.74-.19.22-.62.64-.7.74l-.3.54c-.02-.04-.07.13-.08.2.91.75 6.06 4.26 7.51 4.55l-3.18 1.73c-11.81 5.97-31.03 8.54-43.57 6.17-8.22-1.56-7.43-1.83-14.5-4.11l-.63 3.68c-.44 1.08-.02 1.24-.44.41-1.5 1.85-.97 1.8-1.03 4.58 1.23.28 2.23.96 3.47 1.48 3.44 1.45 7.54 2.38 11.14 3.22 15.89 3.72 34.9 1.15 49.77-4.52 6.29-2.4 14.14-5.69 19.49-9.55 3.9-2.81 7.09-5.38 10.42-8.82l2.3-2.57c.7-.75 1.43-1.74 2.06-2.55 3.94-5.1 4.09-6.58 6.84-12.11l-1.27-.39c-1.04 2.07-2.86 3.19-4.64 4.54-.67.51-.93.62-1.74 1.14z"/><path id="F" d="M167.36 14.05c-3.73.45-6.09 2.66-6.99 5.95-.34 1.27-.06 1.4-1.83 1.44-7.14.15-9.17-7.22-2.53-11.84 6.65-4.61 18.13-4.47 24.89-.07 2.38 1.56 4.92 4.09 6.21 6.7.72 1.48 1.26 3.07 1.51 4.79.75 5.22-.2 6.7-2.2 10.08-1.21 2.03-1.57 1.66-3.32 3.02-5.85 4.55-10.07 1.78-16.92 8.62-.88.88-2.13 2.31-4.25 1.56-4.7-1.64.93-9.9 9.31-12.87 2.74-.97 6.41-2.32 7.55-5.36 2.84-7.58-3.98-12.94-11.43-12.02zm-20.05 1.78v1.15c0 7.9 11.31 11.85 15.88 8.7l1-1.01c1.96-2.68.56-5.68 6.67-5.68 2.33 0 8.2 4.64-.74 8.16-4.53 1.79-8.36 3.75-11.33 7.63-5.09 6.64-3.57 14.94 6.04 14.94 2.45 0 3.23-1.27 4.55-2.34 7.7-6.23 6.09-3.4 13.82-6.85 4.79-2.14 8.45-5.63 10.1-10.59 1.69-5.09 1.27-10.45-1.28-15.17-4.06-7.51-12.1-13.02-21.74-13.02-6.76 0-10.69.27-16.37 4.02-2.76 1.82-6.6 5.56-6.6 10.06z"/><path id="G" d="M112.68 122.98c1.43-.47 5.67-3.71 7.36-4.87 2.45-1.69 4.79-2.83 7.55-4.25 5-2.57 14.79-6.4 15.42 2.41.66 11.34-9.44 22.66-22.78 20.55-3.04-.48-8.86-2.5-10.5-4.09.12-1.45 1.14-3.29 1.56-5.02.42-1.77.48-3.63 1.39-4.73zm-10.5 11.8c-1.67 2.3-3.1 4.37-5.01 6.13-1.44 1.33-2.81 2.63-4.59 3.74-.78.49-.99.41-1.43 1.16 4.84-.43 9.07-2.33 12.57-5.24 1.18-.98 1.96-2.16 3.14-3.02l.47-.64c2.68 2.17 6.19 3.82 10.04 5.08 8.71 2.86 16.51.53 22.88-5.4 1.61-1.5 3.71-4.37 4.88-6.3.52-.87.91-2.01 1.39-2.64l.49-1.04c.96-3.9 2.25-5.97 1.55-10.9-2.39-17.01-20.36-6.19-24.46-5.13.11-8.51-1.88-15.89-4.72-22.58-1.91-4.5-7.8-14.34-11.42-15.57.37 1.16 1.93 3.85 2.63 5.39 2.1 4.62 4.4 13.26 5.52 18.31.95 4.27 1.78 9.67 1.89 14.2.09 4.23.28 3.66-2.42 5.61-1.42 1.02-3.14 2.24-4.69 2.95-.5-1.89-1.23-4.91-2.96-6.04.33 9.81-1.96 15.38-5.75 21.93z"/><path id="H" d="M156 116.52c1.27-.45 10.19-.53 13.63 1.28-2.76 2.36-11.38-.07-14.08-1.04l.45-.24zm-8.99 10.09l-.49 1.04c.81-.52 1.07-.63 1.74-1.14 1.78-1.35 3.6-2.47 4.64-4.54l1.27.39c1.93 1 14.33 6.12 15.58 8.92-4.63-1.2-8.37-3.54-12.68-5.02a1.2 1.2 0 0 0-.12.21c-.03.05-.09.14-.12.21l-1.75 5.55c2.61 2.73 5.36 5.63 8.92 7.93 1.99 1.28 9.51 5.54 12.66 3.27 4.63-3.33-3.19-22.84-5.1-26.03 2.37-2.43 5.66-4.77 7.31-7.65-.5-.14-.07.38.83-1.59-9.04 2.45-10.28 2.39-18.9 3.33-1.74.19-3.93.42-5.49-.38l-.68-.44c-.26 1.08-.07.7-.98 1.71l-3.03 3.57c-.55.81-1.03.96-1.3 1.62-.63 1.52-.6 8.77-2.31 9.04z"/><path id="I" d="M30 69.85c.06.05.15.06.19.16.12.34.22.18.38.25.25.11.36.1.65.16l1.32.23c1.99-.7 5.55-2.62 7.65-3.68 9.33-4.72 14.45-6.99 25.68-8.75 12.64-1.99 28.49.22 39.34 5.47 2.5 1.21 5.25 2.22 7.79 3.7 2.63 1.52 5.01 2.75 7.29 4.22l6.15 4.45c.26.2.23.18.5.36l1.32.98c.05.03.11.09.16.13l.94.78c.7.69-.27-.06.72.7l1.36 1.22.14.14c.36.33.5.3.87.6.77.66.21.28.76.94.64.77 3.74 2.89 5.99 5.5.5.59.79 1.16 1.24 1.66 1.35 1.52-.18-.9 2.12 2.18.98 1.31.03-.42 1.6 1.82l2.72 3.02c1.9 1.83 3.9 4.95 4.2 5.3l1.43 1.71c.04.05.08.12.11.17.73 1.11 1.51 2.69 2.52 3.08-1.33-5.93-7.16-15.34-10.79-19.49-.93-1.08-1.9-2.37-2.79-3.26l-9.49-8.86c-6.89-5.9-18.44-12.61-26.91-15.89-24.38-9.41-55.99-7.6-75.16 11z"/><path id="J" d="M158.89 9.78c4.03-1.2 4.35 4.53.63 5.26-3.62.72-5.1-3.92-.63-5.26zm8.47 4.27c7.45-.92 14.27 4.44 11.43 12.02-1.14 3.04-4.81 4.39-7.55 5.36-8.38 2.97-14.01 11.23-9.31 12.87 2.12.75 3.37-.68 4.25-1.56 6.85-6.84 11.07-4.07 16.92-8.62 1.75-1.36 2.11-.99 3.32-3.02 2-3.38 2.95-4.86 2.2-10.08-.25-1.72-.79-3.31-1.51-4.79-1.29-2.61-3.83-5.14-6.21-6.7-6.76-4.4-18.24-4.54-24.89.07-6.64 4.62-4.61 11.99 2.53 11.84 1.77-.04 1.49-.17 1.83-1.44.9-3.29 3.26-5.5 6.99-5.95z"/><path id="K" d="M25.76 143.22c-1.87 3.3-3.31 5.69-3.13 10.49.55 13.91 21.26 13.76 26.41 10.33-.38-.35-.24-.2-.82-.56-3.05-1.91-1.12.08-5.76.55-2.47.25-6.2-.57-7.31-2.31 4 .04 8-.78 9.06-3.97 1.43-4.32-2.58-6-6.61-5.78 2.46-2.79 7.09-.48 7.56-.42.64-1.02.94-1.73.76-3.43-1.74-1.21-2.88-1.92-5.46-2.45-2.72-.57-4.52-.09-7.17.49.36-2.31.89-2.68 2.98-2.99-.69-.49-.47 0-.03-.58 1.17-1.53 7.97-2.9 10.23-9-3.23-.84-7.26 1.23-9.79 3.39l-.79.65c-.35.24-.45.23-.73.45l-2.64 2.5c-3.03 2.92-3.64 5.67-6.76 2.64z"/><path id="L" d="M37.48 85.68c3.24-1.77 4.9 3.16 2.45 4.57-2.41 1.39-4.56-1.06-3.81-3.24.41-1.21.7-.96 1.36-1.33zm-8.74 24.6c-11.87-4.15-10.12-20.88.07-27.39 2.72-1.74 8.99-2.6 10.86.35C32.7 80.56 28 89.02 29.09 96.09c1.53 9.95 9.66 9.66 12.57 4.4 3.44-4.2 4.18-13.64-.35-19.72-3.93-5.28-11.72-4.92-17.5.55-3.76 3.55-7.6 9.98-7.61 17.79-.01 9.57 8.39 13.24 11.62 11.8.31-.14.22-.12.56-.34l.36-.29z"/><path id="M" d="M130.09 131.01l-1.09.39c-4.06.94-12.37-.11-14.2-1.19-.64-.38-.27.09-.5-.57 1.98.47 5.7.1 8.13.36 2.51.27 5.2.6 7.66 1.01zm-14.05-5.79c1.69-1.11 14.95-4.29 17.73-4.28-.97.79-6.54 2.44-8.27 2.9-2.15.59-7.1 1.53-9.46 1.38zm-3.36-2.24c-.91 1.1-.97 2.96-1.39 4.73-.42 1.73-1.44 3.57-1.56 5.02 1.64 1.59 7.46 3.61 10.5 4.09 13.34 2.11 23.44-9.21 22.78-20.55-2.05-.45-1.76-.89-4.33-.92-3.72-.05-7.97 1.49-11.44 3.08l-10.41 4.22c-.72.27-1.38.38-2.08.51-.49.08-1.74.26-2.07-.18z"/><path id="N" d="M80.33 47.71c2.11.34 4.53.4 6.8.74 3.8.55 2.89.17 5.2-1.72 2.83-2.3 5.8-4.19 9.66-5.58-.44 1.23-5.41 6.26-7.17 8.55 3.73 1.34 8.18 1.94 11.98 3.46 3.79 1.52 2.21 1.41 5.07-.4 1.38-.87 3.39-2.44 5.31-2.53-.48 2.64-2.57 4.15-4.06 5.52l7.48 4.28c2.54-1.85 4.9-6.49 1.62-9.93-2.43-2.56-6.33-3.29-10.88-3.8 1.58-2.3 5.1-3.03 5.23-7.5-6.82-2.56-13.59-1.87-20.64.63-2.52.9-6.05 2.18-8.4 3.67-1.13.72-2.82 1.78-3.76 2.26l-3.44 2.35z"/><path id="O" d="M83.56 87.79c11.38-2.75 15.73 18.63 3.25 22.1-6.09 1.69-10.26-2.9-10.98-9.36-.53-4.76 1.82-11.31 7.73-12.74zm-17.29 13.72c-1.29 2.69 1.09 8.8 3.56 11.92.82 1.03 3.04 2.73 4.55 3.47 1.74.86 3.65 1.6 5.96 1.8 19.63-1.84 19.77-28.4 4.96-32.22-7.35-1.89-14.71 4.31-17.49 10.67-.62 1.41-.96 2.99-1.54 4.36z"/><path id="P" d="M85.92 90.44c3.93-.94 5.64 4.88 1.74 6.15-4.02 1.3-5.97-5.14-1.74-6.15zm-2.36-2.65c-5.91 1.43-8.26 7.98-7.73 12.74.72 6.46 4.89 11.05 10.98 9.36 12.48-3.47 8.13-24.85-3.25-22.1z"/><path id="Q" d="M28.74 110.28c3.67.03 6.58-1.3 8.58-3.11.91-.83 4.8-5.23 4.34-6.68-2.91 5.26-11.04 5.55-12.57-4.4C28 89.02 32.7 80.56 39.67 83.24c-1.87-2.95-8.14-2.09-10.86-.35-10.19 6.51-11.94 23.24-.07 27.39z"/><path id="R" d="M66.27 101.51c.58-1.37.92-2.95 1.54-4.36 2.78-6.36 10.14-12.56 17.49-10.67 14.81 3.82 14.67 30.38-4.96 32.22.18.81-.39.43 1.29.73 7.54 1.36 13.17-2.51 16.25-9.44 6.74-15.21-6.53-33.67-22.06-26.08-7.39 3.62-10.78 14.13-9.55 17.6z"/><path id="S" d="M153.45 54.61c.54-.49.82-.71 1.74-.79.9-.59 2.57-.22 3.63.19 1.35.53 1.83 1.19 2.38 2.22 1.57 2.97-.15 5.07-2.09 6.16-5.49 3.07-10.42-4.56-5.66-7.78zm-5.86 3.44c0 2.92.75 4.97 2.96 6.81 10 8.39 20.89-4.72 13.07-12.5-6.33-6.29-16.03-1.62-16.03 5.69z"/><path id="T" d="M80.33 47.71l3.44-2.35c.94-.48 2.63-1.54 3.76-2.26 2.35-1.49 5.88-2.77 8.4-3.67 7.05-2.5 13.82-3.19 20.64-.63-1.61-8.36-18.16-5.05-23.82-2.85-7.46 2.92-9.41 4.44-15.48 8.36-.81.52-3.98 2.95-4.2 3.51l7.26-.11z"/><path id="U" d="M11.64 119.43c-.67.34-.93.39-1.44.86-.4.37-.4.51-.97 1l-2.2 1.98c.71 4.33 4.66 9.78 7.21 12.99 1.19 1.49 1.02.89 1.96 2.06.98 1.2 2.86 3.02 4.17 3.93.45-.38.13-.04.55-.64l3.14-4.84c-1.49-.97.26.75-.12-.26-.01-.02-.04-.1-.04-.12-.01-.03-.04-.11-.05-.14l-.05-.15c-.72-1.65-3.09-3.18-3.63-3.72-2.22-2.23-6.94-9.92-7.5-13.16l-1.03.21z"/><path id="V" d="M14.12 90.27c-1.82 1.48-5.67 11.46-6.58 14.7-1.54 5.52-2.63 13.13-.51 18.3.88-.67 1.35-1.24 2.2-1.98.57-.49.57-.63.97-1 .51-.47.77-.52 1.44-.86.66-.87.79-.43 1.46-1.42l-.87.07c-.62-1.99-1.61-5.86-1.24-8.27.31-1.98 1.72-2.63 2.78-3.49.35-.29.21-.18.57-.59.53-.6.53-.62 1.13-1.15-2.59-11.45-.87-6.83-.13-15.65l-1.22 1.34z"/><path id="W" d="M156.7 99.68l6.56-4.4c.97-.7 1-.43 1.89-1 .6-.4.79-.73 1.44-1.11l7.19-3.46c5.12-2.11 7.94-2.58 13.22-1.35-1.4-7.51-11.78-4.02-16.52-1.65-6.95 3.48-11.51 7.99-14.56 9.71l.78 3.26z"/><path id="X" d="M73.11 79.58c2.18-1 3.69-2.34 6.63-3.21 12.11-3.59 18.91 7.51 20.13 8.32.62-3.05-2.12-7-3.43-8.5-4.2-4.84-12.15-6.98-17.95-3.68-2.22 1.27-4.88 3.86-5.38 7.07z"/><path id="Y" d="M112.68 122.98c.33.44 1.58.26 2.07.18.7-.13 1.36-.24 2.08-.51l10.41-4.22c3.47-1.59 7.72-3.13 11.44-3.08 2.57.03 2.28.47 4.33.92-.63-8.81-10.42-4.98-15.42-2.41-2.76 1.42-5.1 2.56-7.55 4.25-1.69 1.16-5.93 4.4-7.36 4.87z"/><path id="Z" d="M98.85 167.3c.84.58 3.82 3.08 4.12 3.83-2.6.3-5.91-1.64-7.47-2.67-2.41-1.57-4.33.4-8.83-.09 1.73 3.31 16.7 6.69 22.74 2.59 2.44-1.65 1.11-4.68-.52-6.28l-10.04 2.62z"/><path id="a" d="M79.13 60.35c-3.6.48-9.69 4.05-8.66 7.16 1.04 3.15 4.47-2.03 11.93-2.44 2.24-.12 4.72.65 6.6 1.34l1.88.75c1.32.14.44.1.73-.2 1.88-1.94-4.06-7.72-12.48-6.61z"/><path id="b" d="M25.76 143.22c3.12 3.03 3.73.28 6.76-2.64l2.64-2.5c.28-.22.38-.21.73-.45l.79-.65c2.53-2.16 6.56-4.23 9.79-3.39.06-3.46-2.29-4.4-5.81-3.53-2.25.55-4.6 2.1-6.07 3.11-2.95 2.03-7.23 6.85-8.83 10.05z"/><path id="c" d="M40.42 118.39l1.82.02c2.49-3.49 4.86-6.87 9.74-2.37 2.48 2.27 2.31 3.4 3.4 4.97 3.66 5.3 3.23-11.31-8.31-11.16-2.49.03-4.79 1.19-5.95 2.57-1.76 2.09-2.18 3.97-.7 5.97z"/><path id="d" d="M32.54 70.65l-1.32-.23c1.82 7.07 21.24 8.44 21.08-3.82-2.56.46-3.43 3.41-8.32 4.71-2.85.75-8.85.48-11.44-.66z"/><path id="e" d="M153.45 54.61c-4.76 3.22.17 10.85 5.66 7.78 1.94-1.09 3.66-3.19 2.09-6.16-.55-1.03-1.03-1.69-2.38-2.22-1.06-.41-2.73-.78-3.63-.19 4.28-.26 3.36 4.78.23 4.35-2.58-.36-1.89-3.13-1.97-3.56z"/><path id="f" d="M129.5 99.12c3.68-.78 3.64-6.25 2.61-9.46-.74-2.3-3.63-6.48-6.29-6.27-.38 1.87 1.64 5.4 2.21 7.42.87 3.08 1.05 5.16 1.47 8.31z"/><path id="g" d="M171.72 60.06c2.68 0 3.04-.37 5.74.01 2.59.36 2.93 1.71 5.46 1.71 2.2 0 2.97-5.74-5.17-5.74-1.64 0-2.77.37-3.94.95-1.5.74-2.09.9-2.09 3.07z"/><path id="h" d="M144.72 48.86c4.57 0-2.11-6.32-5.45-6.32-2.17 0-4.16 3.04-1.41 4.28l6.86 2.04z"/><path id="i" d="M140.13 38.52c1.18 2.23 1.69.97 4.31 2.86 1.39 1 2.13 2.73 4.02 3.17 3.03-2.03-.61-5.82-2.44-6.76-2.48-1.27-4.43-1.46-5.89.73z"/><path id="j" d="M137.14 91.37l1.43 5.81c.39 2.01-.01 4.8.82 6.13 4.49.75 3.85-9.53-2.25-11.94z"/><path id="k" d="M155.66 109.58c3.27-.27 8.73-2.6 11.21-3.82 2.35-1.15 7.69-4.48 8.65-6.09-3.46 1.28-7.01 3.03-10.24 4.77-2.74 1.49-8.82 3.83-9.62 5.14z"/><path id="l" d="M36.27 143.17c-2.09.31-2.62.68-2.98 2.99 2.65-.58 4.45-1.06 7.17-.49 2.58.53 3.72 1.24 5.46 2.45-.28-2.3-1.37-3.82-3.28-4.62-2.89-1.21-4.17-.06-6.37-.33z"/><path id="m" d="M158.89 9.78c-4.47 1.34-2.99 5.98.63 5.26 3.72-.73 3.4-6.46-.63-5.26z"/><path id="n" d="M83.88 93.95c.56 3.4 6.07 3.01 5.56-.75-.51-3.78-6.17-2.99-5.56.75z"/><path id="o" d="M155.55 116.76c2.7.97 11.32 3.4 14.08 1.04-3.44-1.81-12.36-1.73-13.63-1.28l-.45.24z"/><path id="p" d="M37.48 85.68c-.66.37-.95.12-1.36 1.33-.75 2.18 1.4 4.63 3.81 3.24 2.45-1.41.79-6.34-2.45-4.57z"/><path id="q" d="M130.09 131.01l-7.66-1.01c-2.43-.26-6.15.11-8.13-.36.23.66-.14.19.5.57 1.83 1.08 10.14 2.13 14.2 1.19l1.09-.39z"/><path id="r" d="M171.72 64.85c1.12.95.07-.6 2.58 1.48 5.77 4.77 5.63-3.45-.82-2.9-.39.03-.9-.07-1.36.49l-.4.93z"/><path id="s" d="M116.04 125.22c2.36.15 7.31-.79 9.46-1.38 1.73-.46 7.3-2.11 8.27-2.9-2.78-.01-16.04 3.17-17.73 4.28z"/><path id="t" d="M153.45 54.61c.08.43-.61 3.2 1.97 3.56 3.13.43 4.05-4.61-.23-4.35-.92.08-1.2.3-1.74.79z"/><path id="u" d="M55 69.96c.44 0 1.49-.63 1.72-.82.53-.46.72-.98 1.11-1.8.79-1.67 1.03-3.57-.13-5.11-1.89.12-1.71 1.69-1.91 3.49-.17 1.43-.73 2.94-.79 4.24z"/><path id="v" d="M173.48 63.43c6.45-.55 6.59 7.67.82 2.9-2.51-2.08-1.46-.53-2.58-1.48l.4-.93c.46-.56.97-.46 1.36-.49zm-2.34.94c0 1.14 1.58 1.63 2.55 2.34 2.39 1.75 2.2 1.68 4.63 1.68 1.01-1.16.87-.71.87-2.58 0-2.62-8.05-4.65-8.05-1.44z"/><path id="w" d="M83.88 93.95c-.61-3.74 5.05-4.53 5.56-.75.51 3.76-5 4.15-5.56.75zm2.04-3.51c-4.23 1.01-2.28 7.45 1.74 6.15 3.9-1.27 2.19-7.09-1.74-6.15z"/></defs></svg>