<svg xmlns="http://www.w3.org/2000/svg" width="200" height="200" shape-rendering="geometricPrecision" image-rendering="optimizeQuality" fill-rule="evenodd" xmlns:v="https://vecta.io/nano"><path d="M144.49 112.25c-.45.29.16-.03-.59.3-.23-.9-.83-1.22-.59-2.48.15-.77.48-1.62.65-2.43.48-2.21.3-3.49.41-5.49 1.72 2.77 3.31 8.08.12 10.1zm8.36-2.99c.25-1.33.13-1.22 1.34-1.81 4.33-2.13 9.47-5.29 14.8-6.62-.59.63-.17.22-.94.72l-2.79 1.77c-2.65 1.58-9.83 5.39-12.41 5.94zm-17.04-2.1c.95-4.87.3-5.2-.55-9.61 1.09.63.98.77 1.75 1.67 2.35 2.75 2.13 2.93 1.37 6.93-.72.26-1.61.67-2.57 1.01zm-8.49-5.43c-.45-1.69.09-3.62-.62-5.92-.53-1.71-1.48-3.36-1.97-4.85 3.41 1.26 6.21 5.9 4.17 9.47-.32.56-.81 1.17-1.58 1.3zm-42.53 14.05c-4.04 0-6.63-.42-9.27-1.76-7.08-3.61-9.11-12.05-7.72-19.64.2-1.08.92-3.72 1.38-4.26a1.15 1.15 0 0 1-.06-.21c0-.05-.03-.15-.04-.21-.01-.05-.02-.13-.02-.2l.15-.77c.86-2.73 2.44-4.94 4.4-6.81 2.08-1.99 5.01-3.75 9.01-3.96 21.7-1.14 27.95 35.11 7.69 38.44-1.39.23-4.32.45-5.52-.62zm-8.54-38.93c-.3-1.42-.06-2.08.75-2.94 3-3.21 10.28-2.7 13.3.22l1.84 1.73c1 .99.66.44.74 1.4-.44-.12-2.37-1.29-3.47-1.71-6.34-2.48-11.66 1.26-13.16 1.3zm-24.81 3.51c1.02.93 1.97 2.1 2.67 3.85.53 1.32 1.43 4.4.61 5.74.78 1.54.52 6.6.25 8.58-1.14 8.21-6.19 14.21-14.69 14.21-.76.44-.58.22-1.6.11-.62-.06-1.25-.1-1.86-.21-1.56-.28-1.84-.72-3.09-1.29.1 1.55-.57 3.45-.58 5.47 0 1.8.17 3.78.06 5.4l1.46-.77c.03-.08.11-.07.18-.1 1.07-.41 1.8-1.41 3.01-2.13.9-.55 2.23-1.36 3.35-1.97 1.36-.74 6.21-2.83 7.75-2.99 1.25-1.71 2.62-5.93 7.56-6.57 4.62-.6 8.53 2.29 8.79 5.35.44.84.43.54.45 1.74-1.12-.07-2.09-.4-3.09-.85.4.65.75.73 1.26 1.27.38.39.93 1.07 1.25 1.54.72 1.07 1.4 2.18 1.92 3.4 2.22 5.19 4.06 12.04 3.49 17.89-.44 4.6-1.45 5.08-3.52 7.41 6.56-.12 7.83-8.27 7.37-13.33-.78-8.54-4.74-13.04-5.55-15.43 14.81 3.1 31.23 16.27 36.85 16.36 1.34-1.41 2.91-5.62 3.55-8.08.93-3.61 1.16-7.08.92-10.97.75.6.83 1.04 1.37 2.02.59 1.07.82 1.28 1.1 2.43 1.07-.46 4.29-2.5 5.05-3.16-.29-8.76-3.81-20.74-7.11-29.01-.54-1.35-1.3-2.53-1.63-3.83 1.61 1.11 3.73 4.26 5.07 5.99 4.07 5.24 8.28 16.99 8.92 23.81 7.22-2.56 20.87-7.99 22.64 6.08.31.46.22-.35.38 1 .06.52-.05.76-.16 1.26l.19-2.77c.44-.34.56-.32 1.09-.72l2.89-2.64c1.56-1.21 2.64-4.22 2.88-4.56 3.07 1.68 14.15-.89 18.23-.95 1.13-.44 4.54-6.14 5.48-7.97 1.3-2.55 3.13-8.06 1.73-11.37-.52.32.09.07-.46.07-1.02.01-1.26-.18-3.48-.06-3.75.22-7.07 2.54-10.14 3.82l-5.87 3.51c-.57.35-1.22.69-1.59.96l-4.17 2.65c.12 1.39.46 2.75.23 4.29l-.47 1.37-2.25-3.38-1.82-1.98c-.03-.03-.08-.1-.11-.13-.04-.04-.08-.1-.12-.14l-1.44-1.14c-.72-.76-.02-.38-.96-1.02-2.16-1.48-.63-.76-1.92-1.64-2.79-1.92-.35-.43-2.5-2.08l-2.29-2.01c-.47-.39-.04-.03-.62-.41-.42-.27-.02.05-.45-.31l-.5-.51c-.05-.04-.22-.18-.28-.22l-2.63-2.19a1.42 1.42 0 0 1-.13-.12l-.27-.23c-.56-.47-.12-.13-.58-.43l-6.53-4.64c-3.81-2.78-5.64-3.58-9.75-5.73-7.46-3.91-15.24-6.18-23.61-7.39-8.45-1.22-22.83-.46-30.91 3.33-2.6 1.22-6.55 2.88-8.77 4.67l-2.5 1.85z" fill="#fe6914"/><path d="M111.08 158.42l1.03-.24c2.23-.53 4.93-1.78 5.75-1.09 2.07 1.74 1.57 4.47-2.04 5.82-5.61 2.1-12.54.04-16.84-2.38.83-.17 7.31-.99 7.69-.91.44.09 2.23 1.11 2.95 1.43 1 .44 2.01.79 3.27.96-.34-.58-.03-.1-.38-.51l-1.17-1.16c-.51-.54-.91-.89-1.34-1.46l1.08-.46zm39.05-55.59l2.25 3.38.47-1.37c.23-1.54-.11-2.9-.23-4.29l-.25-1.58 5.6-4.72c3.8-3.07 17.81-12.48 20.36-4.65 1.4 3.31-.43 8.82-1.73 11.37-.94 1.83-4.35 7.53-5.48 7.97-1.09 2.22-3.92 4.32-5.24 5.83 2.07 3.92 3.41 5.36 5.24 10.17 9.52 24.97-15.02 7.41-18.15 2.27l1.19-4.31c3.54 1.11 7.54 3.34 11.2 4.03-.55-.95-5-3.51-6.21-4.22-2.24-1.32-4.83-2.28-7.31-3.16-1.24 4.53-3.34 8.45-6.08 11.91l-7.2 7.79c-.77.83-.76.66-1.52 1.27l-3.43 2.65c-4.55 3.21-9.95 6.5-15.41 8.42l-4.3 1.54c-13.39 4.8-28.19 4.93-41.81 2.35-9.17-1.74-21.57-7.15-28.72-12.89l-3.28-2.57c-.64-.52-.74-.99-1.38-1.64L37.05 137c-.72-.66-1.73-2.28-2.55-3.29-1.13-1.4-3.66-5.47-4.16-7.62-2.62-4.6-1.31-16.6.69-18.31.24.83.65 1.41 1.21 2.07l1.38 1.38c.02-.03.08.08.11.12 1.25.57 1.53 1.01 3.09 1.29.61.11 1.24.15 1.86.21 1.02.11.84.33 1.6-.11C32 110.87 29.6 94.29 39.7 85.3c6.39-5.69 13.6-1.72 15.02 4.65.82-1.34-.08-4.42-.61-5.74-.7-1.75-1.65-2.92-2.67-3.85-1.05-.7-2.11-.98-3-1.53 3.41-2.73 6.69-5.37 11.41-7.6 14.84-6.98 32.79-6.65 47.95-1.89 8.81 2.77 20.09 9.32 27.06 15.8 4.39 4.07 4.38 4.26 8.38 8.34 1.65 1.68 6.11 7.75 6.89 9.35zM90.15 60.99l-6.01-.01c1.09-2.29 12.64-8.28 16.23-9.59 5.18-1.88 16.32-4.72 20.69.51 1.2 4.39-3.01 6.25-3.93 8.11 12.85.24 11.47 8.72 7.26 11.64-1.19-1.31-4.58-2.48-5.66-3.56 1.03-1.59 2.27-2.82 3.13-4.46-1.1-.01-3.48 1.46-4.45 1.99-2.65 1.47-1.58 1.15-4.47.09l-9.67-3.07c.61-.59 1.16-1.11 1.74-1.8 1.56-1.84 3.39-3.55 4.62-5.67-2.5.78-6.59 3.64-8.6 4.98-2.18 1.47-1.43 1.74-4.68 1.35-2.05-.25-4.12-.46-6.2-.51zm-66.37 57.83c0 2.63.46 5.28 1.01 7.36 2.49 9.43 11.09 18.15 19.08 23.27 6.42 4.12 10.28 5.68 17.02 8.34 2.09.83 4.08 1.34 6.37 1.99 3.22.92 11.06 2.46 14.36 2.64l7.98.39 3.01 1.3c7.75 2.73 19.53 6.7 27.55 2.11 2.07-1.18 3.81-3.7 3.81-6.08 0-1.74-1.07-3.25-1.78-4.31 2.68-1.28 5.59-2.28 8.42-4l3.81-2.28c4-2.51 15.01-12.09 15.93-15.52l3.98 3.12c4.73 3.56 10.13 6.26 16.31 6.26 4.82 0 7.86-3.51 7.86-8.62 0-6.81-3.9-14.41-6.34-19.01.57-.84 1.24-1.26 1.92-2.13 5.3-6.82 9.5-12.13 9.5-21.95 0-2.81-1.16-5.33-2.6-6.79-5.72-5.8-15.05-1.53-20.47 1.73-5.01 3.01-8.55 6.77-10.16 7.85l-12.5-13.36-2.91-2.42c-.75-.67-5.15-4.23-6.15-4.5.19-.8.42-1.04.86-1.68 2.61-3.76 3.32-8.69-.16-12.2-1.78-1.81-2.55-1.93-4.76-3.1 6.95-13.13-15.97-17.69-35.91-5.47-1.12.68-1.95 1.29-3.05 2.02l-5.74 4.4c-.93.82-1.64 1.75-2.52 2.55-.9.82-1.58.57-4.09.99-1.66.27-2.69.51-4.19.88-9.01 2.24-16.49 5.92-23.56 11.94-3.54 3-7.1 6.63-10.17 10.12-6.01 6.85-6.17 14.11-7.83 17.52-2.01 4.13-3.89 10.62-3.89 16.64z" fill="#122542"/><path d="M34.85 121.35l-3.84 4c1.2-.39.87-1.32 2.48-2.08.22.44.59 1.76.91 2.46l1.24 2.55 3.4 4.95c.04.04.08.1.12.14l2.86 3.22c1.61 1.47 1.84 1.28 2.87 2.69.55.74 6.63 5.19 7.36 5.58.72.4.43.21 1.1.66 3.52 2.38 8.09 4.95 12.87 3.73 1.68-.43 3.92-1.87 5.74-1.61 7.73 1.12 12.76 1.66 21.04.75 6.7-.73 11.83-2.02 18.1-4.17 1.08-.37 4.79-2.03 5.15-2.36-1.78-.94-4.85-1.61-8.77-3.79.41-1.17.67-.27.62-.86-1.22.44-4.88 3.48-8.82 3.95.42-.71.4-.51 1.03-1.12 1.43-1.39 4.8-5.51 5.43-7-5.62-.09-22.04-13.26-36.85-16.36.81 2.39 4.77 6.89 5.55 15.43.46 5.06-.81 13.21-7.37 13.33-3.22 1.8-7.92 1.58-10.92-.4-9.47-6.26-10.3-20.74-7.19-30.78-1.54.16-6.39 2.25-7.75 2.99-1.12.61-2.45 1.42-3.35 1.97-1.21.72-1.94 1.72-3.01 2.13z" fill="#fef3dc"/><path d="M144.57 125.18c-.7 1.17-.85 2.21-2.31 4.32-2.91 4.2-5.82 6.59-11.09 8.44-10.17 3.57-18.3-2.95-20.57-3.67-.33.72-.55.94-1.15 1.48-.81.72-.71.55-1.35 1.46.05.59-.21-.31-.62.86 3.92 2.18 6.99 2.85 8.77 3.79-.36.33-4.07 1.99-5.15 2.36-6.27 2.15-11.4 3.44-18.1 4.17-8.28.91-13.31.37-21.04-.75-1.82-.26-4.06 1.18-5.74 1.61-4.78 1.22-9.35-1.35-12.87-3.73-.67-.45-.38-.26-1.1-.66-.73-.39-6.81-4.84-7.36-5.58-1.03-1.41-1.26-1.22-2.87-2.69l-2.86-3.22c-.04-.04-.08-.1-.12-.14l-3.4-4.95c-.38-.87-.77-1.51-1.24-2.55-.32-.7-.69-2.02-.91-2.46-1.61.76-1.28 1.69-2.48 2.08-.26.13-.06-.09-.41.27-.29.3-.13.2-.26.47.5 2.15 3.03 6.22 4.16 7.62.82 1.01 1.83 2.63 2.55 3.29l1.66 1.38c.64.65.74 1.12 1.38 1.64l3.28 2.57c7.15 5.74 19.55 11.15 28.72 12.89 13.62 2.58 28.42 2.45 41.81-2.35l4.3-1.54c5.46-1.92 10.86-5.21 15.41-8.42l3.43-2.65c.76-.61.75-.44 1.52-1.27l7.2-7.79c2.74-3.46 4.84-7.38 6.08-11.91l-1.24-.32-2.82 3.37c-.99 1.13-1.96 1.57-3.21 2.58z" fill="#dfcaad"/><path d="M114.05 123.44c.23-1.17.26-.85 1.14-1.47l4.05-2.8c3.96-2.34 16.98-9.74 20.19-4.33 1.29.76 1.64 3.17 1.5 5.25-.13 1.87-.82 3.65-1.5 5.07-1.54 3.22-3.47 5.15-6.32 6.86-7.51 4.5-14.62.92-20.52-1.73.79-2.41 1.05-4.01 1.46-6.85zm-8.31 9.6c-.63 1.49-4 5.61-5.43 7-.63.61-.61.41-1.03 1.12 3.94-.47 7.6-3.51 8.82-3.95.64-.91.54-.74 1.35-1.46.6-.54.82-.76 1.15-1.48 2.27.72 10.4 7.24 20.57 3.67 5.27-1.85 8.18-4.24 11.09-8.44 1.46-2.11 1.61-3.15 2.31-4.32.7-2.32 1.12-4.21 1.05-6.86-1.77-14.07-15.42-8.64-22.64-6.08-.64-6.82-4.85-18.57-8.92-23.81-1.34-1.73-3.46-4.88-5.07-5.99.33 1.3 1.09 2.48 1.63 3.83 3.3 8.27 6.82 20.25 7.11 29.01-.76.66-3.98 2.7-5.05 3.16-.28-1.15-.51-1.36-1.1-2.43-.54-.98-.62-1.42-1.37-2.02.24 3.89.01 7.36-.92 10.97-.64 2.46-2.21 6.67-3.55 8.08z" fill="#122343"/><path d="M67.47 137.58c-2.53 8.42-12.18 4.53-10.76-1.07 1.73-6.86 13-6.4 10.76 1.07zm-18.51-23.32c-3.11 10.04-2.28 24.52 7.19 30.78 3 1.98 7.7 2.2 10.92.4 2.07-2.33 3.08-2.81 3.52-7.41.57-5.85-1.27-12.7-3.49-17.89-.52-1.22-1.2-2.33-1.92-3.4-.32-.47-.87-1.15-1.25-1.54-.51-.54-.86-.62-1.26-1.27-2.58-.57-3.22-1.25-6.16-.17-2.38.87-2.79 2.29-3.99 3.05.42-1.63.51-2.88 1.42-4.09 3.15-4.17 8.19-2.13 11.37.32-.26-3.06-4.17-5.95-8.79-5.35-4.94.64-6.31 4.86-7.56 6.57z" fill="#132545"/><path d="M158.99 114.26c1.14.03 4.1.32 5.12 1.06-2.34.67-3.74 1.94-8.49.52-.86-.26-1.75-.43-2.22-1.07 1.47-.81 3.86-.56 5.59-.51zm-13.37 4.06c.07 2.65-.35 4.54-1.05 6.86 1.25-1.01 2.22-1.45 3.21-2.58l2.82-3.37 1.24.32c2.48.88 5.07 1.84 7.31 3.16 1.21.71 5.66 3.27 6.21 4.22-3.66-.69-7.66-2.92-11.2-4.03l-1.19 4.31c3.13 5.14 27.67 22.7 18.15-2.27-1.83-4.81-3.17-6.25-5.24-10.17 1.32-1.51 4.15-3.61 5.24-5.83-4.08.06-15.16 2.63-18.23.95-.24.34-1.32 3.35-2.88 4.56l-2.89 2.64c-.53.4-.65.38-1.09.72l-.19 2.77c.11-.5.22-.74.16-1.26-.16-1.35-.07-.54-.38-1z" fill="#e34e0c"/><path d="M51.44 80.36l2.5-1.85c2.22-1.79 6.17-3.45 8.77-4.67 8.08-3.79 22.46-4.55 30.91-3.33 8.37 1.21 16.15 3.48 23.61 7.39 4.11 2.15 5.94 2.95 9.75 5.73l6.53 4.64c.46.3.02-.04.58.43.05.04.21.18.27.23a1.42 1.42 0 0 0 .13.12l2.63 2.19c.06.04.23.18.28.22l.5.51c.43.36.03.04.45.31.58.38.15.02.62.41l2.29 2.01c2.15 1.65-.29.16 2.5 2.08 1.29.88-.24.16 1.92 1.64.94.64.24.26.96 1.02l1.44 1.14c.04.04.08.1.12.14.03.03.08.1.11.13l1.82 1.98c-.78-1.6-5.24-7.67-6.89-9.35-4-4.08-3.99-4.27-8.38-8.34-6.97-6.48-18.25-13.03-27.06-15.8-15.16-4.76-33.11-5.09-47.95 1.89-4.72 2.23-8 4.87-11.41 7.6.89.55 1.95.83 3 1.53z" fill="#ffc978"/><path d="M116.59 128.46c.92-.46 6.08-.26 7.11-.17l6.88.72c-2.3 1.29-9.25.66-12.42-.07-.01 0-.79-.18-.82-.19l-.75-.29zm1.33-4.13c1.58-.95 9.35-2.54 11.91-2.95a59.63 59.63 0 0 1 2.23-.31c1.45-.18 1.31-.37 2.07.01-3.47 1.21-12.06 3.69-16.21 3.25zm-3.87-.89c-.41 2.84-.67 4.44-1.46 6.85 5.9 2.65 13.01 6.23 20.52 1.73 2.85-1.71 4.78-3.64 6.32-6.86.68-1.42 1.37-3.2 1.5-5.07.14-2.08-.21-4.49-1.5-5.25-2.51.11-10.13 2.82-13.06 3.84-4.08 1.43-8.59 2.88-12.32 4.76zm-23.9-62.45c2.08.05 4.15.26 6.2.51 3.25.39 2.5.12 4.68-1.35 2.01-1.34 6.1-4.2 8.6-4.98-1.23 2.12-3.06 3.83-4.62 5.67-.58.69-1.13 1.21-1.74 1.8l9.67 3.07c2.89 1.06 1.82 1.38 4.47-.09.97-.53 3.35-2 4.45-1.99-.86 1.64-2.1 2.87-3.13 4.46 1.08 1.08 4.47 2.25 5.66 3.56 4.21-2.92 5.59-11.4-7.26-11.64.92-1.86 5.13-3.72 3.93-8.11l-1.2.06c-5.16-.79-11.68.28-16.41 1.99-6.29 2.27-6.15 2.94-8.67 4.01-2.12.9-4.4 2.9-4.63 3.03z" fill="#fe6914"/><path d="M69.18 90.12c.67-1.48 1.24-1.89 2.18-3.09 5.58-7.15 18.87-7.69 24.04 2.55 5.36 10.65 2.23 22.16-8.29 25.61-.86.28-1.59.32-2.32.59 1.2 1.07 4.13.85 5.52.62 20.26-3.33 14.01-39.58-7.69-38.44-4 .21-6.93 1.97-9.01 3.96-1.96 1.87-3.54 4.08-4.4 6.81l-.15.77c0 .07.01.15.02.2.01.06.04.16.04.21a1.15 1.15 0 0 0 .06.21zM45.04 53.99c-3.54-2.29-13.09-13.04-8.87-17.33 3.21-3.26 7.2-.22 8.18 3.54 1.28 4.92.59 8.81.69 13.79zM31.39 38.72c0 4.57 1.36 6.96 3.98 10.47l2.05 2.52c1.55 1.76 8.24 7.8 9.69 7.8 1.47 0 1.5-2.67 1.53-4.06.17-6.98 1.59-17.73-4.63-22.24-5.42-3.93-12.62.35-12.62 5.51zm3.91 25.07c-4.33-.18-7.02.31-11.21-1.05-7.99-2.6-3.04-12.9 5.54-5.79 1.47 1.21 4.73 5 5.67 6.84zm-18.88-5.55c0 10.84 20.28 10.16 24.1 7.6-.36-1.56-.34-1.43-1.16-2.63-3.61-5.29-8.42-12.32-15.58-12.32a7.36 7.36 0 0 0-7.36 7.35zm59.86 39.04c-2.48 0-1.72-4.98 1.78-3.3.12.5.6 1.57-.2 2.59-.29.37-1.07.71-1.58.71zm-5.58 1.77c0 10.1 12.69 11.8 12.69-.51 0-6.13-5.96-11.16-10.84-5.25-.83.99-1.85 3.99-1.85 5.76zm-24.6-6.08c4.4 1.02-.7 5.51-1.15 1.95-.11-.86.62-1.49 1.15-1.95zm-5.33 5.57c0 3.45 1.69 7.36 5.08 7.36 2.14 0 3.39-.54 4.83-2.53 3.14-4.35 1.22-12.94-3.82-12.94-3.85 0-6.09 4.68-6.09 8.11z" fill="#112645"/><path d="M90.15 60.99c.23-.13 2.51-2.13 4.63-3.03 2.52-1.07 2.38-1.74 8.67-4.01 4.73-1.71 11.25-2.78 16.41-1.99l1.2-.06c-4.37-5.23-15.51-2.39-20.69-.51-3.59 1.31-15.14 7.3-16.23 9.59l6.01.01z" fill="#ffc978"/><path d="M36.88 39.83c-1.19-2.13.24-2.92 2.13-2.17.3 1.74-.47 3.13-2.13 2.17zm8.16 14.16c-.1-4.98.59-8.87-.69-13.79-.98-3.76-4.97-6.8-8.18-3.54-4.22 4.29 5.33 15.04 8.87 17.33z" fill="#64cefb"/><path d="M29.4 74.96c-1.39 1.64-6.02 8.5-9.3 4.95-1.9-2.05.76-3.98 2.29-4.55 2.66-1 4.25-.51 7.01-.4zM22 84.1c3.96 0 6.8-3.43 8.94-6.03 4.38-5.31 2.34-5.64-3.59-6.17-4.75-.42-8.21.47-10.09 3.91A5.52 5.52 0 0 0 22 84.1z" fill="#112645"/><path d="M67.47 137.58c2.24-7.47-9.03-7.93-10.76-1.07-1.42 5.6 8.23 9.49 10.76 1.07z" fill="#fe6914"/><path d="M22.27 58.35l-.67-.71c-.74-1.14.08-2.38 1.6-2.08 1.27.25 1.78 2.76-.93 2.79zm13.03 5.44c-.94-1.84-4.2-5.63-5.67-6.84-8.58-7.11-13.53 3.19-5.54 5.79 4.19 1.36 6.88.87 11.21 1.05z" fill="#67d0fb"/><path d="M152.62 100.55l4.17-2.65c.37-.27 1.02-.61 1.59-.96l5.87-3.51c3.07-1.28 6.39-3.6 10.14-3.82 2.22-.12 2.46.07 3.48.06.55 0-.06.25.46-.07-2.55-7.83-16.56 1.58-20.36 4.65l-5.6 4.72.25 1.58z" fill="#ffc978"/><path d="M110 158.88c.43.57.83.92 1.34 1.46l1.17 1.16c.35.41.04-.07.38.51-1.26-.17-2.27-.52-3.27-.96l-2.95-1.43c-.38-.08-6.86.74-7.69.91 4.3 2.42 11.23 4.48 16.84 2.38 3.61-1.35 4.11-4.08 2.04-5.82-.82-.69-3.52.56-5.75 1.09l-1.03.24-1.08.46z" fill="#ea550c"/><path d="M30.34 126.09c.13-.27-.03-.17.26-.47.35-.36.15-.14.41-.27l3.84-4c-.07.03-.15.02-.18.1l-1.46.77c.11-1.62-.06-3.6-.06-5.4.01-2.02.68-3.92.58-5.47-.03-.04-.09-.15-.11-.12l-1.38-1.38c-.56-.66-.97-1.24-1.21-2.07-2 1.71-3.31 13.71-.69 18.31z" fill="#e24e0d"/><path d="M114.05 123.44c3.73-1.88 8.24-3.33 12.32-4.76 2.93-1.02 10.55-3.73 13.06-3.84-3.21-5.41-16.23 1.99-20.19 4.33l-4.05 2.8c-.88.62-.91.3-1.14 1.47zm-37.8-46.59c1.5-.04 6.82-3.78 13.16-1.3 1.1.42 3.03 1.59 3.47 1.71-.08-.96.26-.41-.74-1.4l-1.84-1.73C87.28 71.21 80 70.7 77 73.91c-.81.86-1.05 1.52-.75 2.94zm-13.58 37.08c1 .45 1.97.78 3.09.85-.02-1.2-.01-.9-.45-1.74-3.18-2.45-8.22-4.49-11.37-.32-.91 1.21-1 2.46-1.42 4.09 1.2-.76 1.61-2.18 3.99-3.05 2.94-1.08 3.58-.4 6.16.17z" fill="#fecb7d"/><path d="M20.31 78.26c.03-1.59.43-2.07 2.11-1.96.43 1.81-.85 2.64-2.11 1.96zm9.09-3.3c-2.76-.11-4.35-.6-7.01.4-1.53.57-4.19 2.5-2.29 4.55 3.28 3.55 7.91-3.31 9.3-4.95z" fill="#67d0fb"/><path d="M152.85 109.26c2.58-.55 9.76-4.36 12.41-5.94l2.79-1.77c.77-.5.35-.09.94-.72-5.33 1.33-10.47 4.49-14.8 6.62-1.21.59-1.09.48-1.34 1.81z" fill="#0e2444"/><path d="M127.32 101.73c.77-.13 1.26-.74 1.58-1.3 2.04-3.57-.76-8.21-4.17-9.47.49 1.49 1.44 3.14 1.97 4.85.71 2.3.17 4.23.62 5.92zm8.49 5.43l2.57-1.01c.76-4 .98-4.18-1.37-6.93-.77-.9-.66-1.04-1.75-1.67.85 4.41 1.5 4.74.55 9.61z" fill="#fecb7d"/><path d="M143.9 112.55c.75-.33.14-.01.59-.3 3.19-2.02 1.6-7.33-.12-10.1-.11 2 .07 3.28-.41 5.49-.17.81-.5 1.66-.65 2.43-.24 1.26.36 1.58.59 2.48z" fill="#db4a0c"/><path d="M153.4 114.77c.47.64 1.36.81 2.22 1.07 4.75 1.42 6.15.15 8.49-.52-1.02-.74-3.98-1.03-5.12-1.06-1.73-.05-4.12-.3-5.59.51z" fill="#112546"/><path d="M117.92 124.33c4.15.44 12.74-2.04 16.21-3.25-.76-.38-.62-.19-2.07-.01l-2.23.31c-2.56.41-10.33 2-11.91 2.95zm-1.33 4.13l.75.29c.03.01.81.19.82.19 3.17.73 10.12 1.36 12.42.07-2.39-.18-4.52-.52-6.88-.72-1.03-.09-6.19-.29-7.11.17z" fill="#071948"/><path d="M22.27 58.35c2.71-.03 2.2-2.54.93-2.79-1.52-.3-2.34.94-1.6 2.08 0 .01.64.68.67.71zm14.61-18.52c1.66.96 2.43-.43 2.13-2.17-1.89-.75-3.32.04-2.13 2.17zM20.31 78.26c1.26.68 2.54-.15 2.11-1.96-1.68-.11-2.08.37-2.11 1.96z" fill="#fcfefa"/><path d="M100 0c27.61 0 52.61 11.19 70.71 29.29C188.8 47.39 200 72.39 200 100s-11.2 52.61-29.29 70.71C152.61 188.81 127.61 200 100 200s-52.61-11.19-70.71-29.29S0 127.61 0 100s11.19-52.61 29.29-70.71S72.39 0 100 0zm69.06 30.94C151.38 13.27 126.97 2.33 100 2.33S48.61 13.27 30.94 30.94 2.33 73.03 2.33 100s10.94 51.39 28.61 69.06 42.09 28.61 69.06 28.61 51.38-10.94 69.06-28.61c17.67-17.67 28.6-42.09 28.6-69.06s-10.93-51.39-28.6-69.06z" fill="#112645" fill-rule="nonzero"/></svg>