<?xml version="1.0" encoding="UTF-8"?>
<!DOCTYPE svg PUBLIC "-//W3C//DTD SVG 1.1//EN" "http://www.w3.org/Graphics/SVG/1.1/DTD/svg11.dtd">
<!-- Creator: CorelDRAW (Versão OEM) -->
<svg xmlns="http://www.w3.org/2000/svg" xml:space="preserve" width="110px" height="41px" version="1.1" style="shape-rendering:geometricPrecision; text-rendering:geometricPrecision; image-rendering:optimizeQuality; fill-rule:evenodd; clip-rule:evenodd"
viewBox="0 0 110 40.56"
 xmlns:xlink="http://www.w3.org/1999/xlink"
 xmlns:xodm="http://www.corel.com/coreldraw/odm/2003">
 <defs>
  <style type="text/css">
   <![CDATA[
    .str3 {stroke:#C86C45;stroke-width:0.04;stroke-miterlimit:22.9256}
    .str1 {stroke:#D96029;stroke-width:0.04;stroke-miterlimit:22.9256}
    .str2 {stroke:#E89A65;stroke-width:0.04;stroke-miterlimit:22.9256}
    .str0 {stroke:#EE7828;stroke-width:0.04;stroke-miterlimit:22.9256}
    .str4 {stroke:#F4924D;stroke-width:0.04;stroke-miterlimit:22.9256}
    .fil9 {fill:#C86C45}
    .fil5 {fill:#D45B23}
    .fil10 {fill:#D5D8DC}
    .fil2 {fill:#D95E26}
    .fil8 {fill:#D96029}
    .fil12 {fill:#D96029}
    .fil13 {fill:#D9884F}
    .fil18 {fill:#D9DCDD}
    .fil1 {fill:#DB5E24}
    .fil17 {fill:#E6ECF3}
    .fil16 {fill:#E89A65}
    .fil6 {fill:#E89A65}
    .fil7 {fill:#EA762A}
    .fil14 {fill:#EC924C}
    .fil3 {fill:#ED7729}
    .fil0 {fill:#EE7828}
    .fil15 {fill:#F38D49}
    .fil11 {fill:#F4924D}
    .fil4 {fill:#FCFCFC}
    .fil19 {fill:#FEFEFE;fill-rule:nonzero}
   ]]>
  </style>
 </defs>
 <g id="Camada_x0020_1">
  <metadata id="CorelCorpID_0Corel-Layer"/>
  <g id="_2451767684272">
   <g>
    <path class="fil0 str0" d="M17.6 8.7c0.46,0.29 1.17,0.58 1.77,0.87 0.84,0.41 1.79,0.98 2.21,1.77 0.3,0.56 0.09,0.4 0.77,0.55 0.74,0.17 1.36,0.46 1.97,0.73 -0.44,0.23 -2.91,-0.73 -4.44,0.24 -0.37,0.24 -0.86,0.85 -0.99,1.52 -0.14,0.77 0.06,1.53 0.35,2.1 0.54,1.05 1.5,1.94 3.18,1.83 1.61,-0.11 2.42,-1.23 3.13,-1.83 0.08,-0.18 0.17,-0.24 0.21,-0.42l0.18 -0.25c0.29,0.12 -0.07,-0.05 0.13,0.11 0.01,0.01 0.02,0.03 0.04,0.04l0.07 0.05c0.24,0.12 1.91,-0.62 2.1,-0.76 0.01,-0.01 0.03,-0.03 0.04,-0.04 0.01,-0.01 0.03,-0.02 0.04,-0.04 -0.01,-0.04 -0.07,-0.18 -0.07,-0.2l-0.88 -0.95c-0.82,-0.86 -1.91,-2.87 -2.11,-4.01 -0.23,-1.26 -0.43,-2.37 -0.27,-3.8 0.21,-1.77 0.77,-3.05 0.79,-3.25 -2.77,-0.07 -4,0.23 -6.48,0.96 -0.96,0.28 -4.47,1.82 -4.9,2.6 0.42,0.6 2.16,1.55 2.97,1.94 0.56,0.26 0.27,0.1 0.25,0.19 -0.02,0.11 0.09,0.01 -0.06,0.05z"/>
    <path class="fil0 str0" d="M8.93 20.01l0.07 0 1.61 -0.52c1.54,-0.48 1.94,-0.52 3.39,-0.88 0.53,-0.14 1.23,-0.21 1.8,-0.34 -0.07,-0.18 -0.16,-0.55 -0.21,-0.72 -0.32,-1.06 -0.89,-2.01 -1.38,-2.96 -0.56,-1.09 -0.93,-1.3 -1.37,-2.03 -0.27,-0.46 -0.5,-0.56 -0.78,-0.92 -0.18,-0.23 -0.2,-0.28 -0.43,-0.46 -0.29,-0.23 -0.18,-0.15 -0.41,-0.44 -0.34,-0.43 -0.78,-0.48 -0.91,-0.77l-0.12 0.01c-0.03,0.07 -0.6,0.56 -0.72,0.69l-2 2.33c-0.93,1.12 -0.52,0.68 -1.23,1.63l-1.18 1.67c0.28,0.26 0.91,0.39 1.29,0.64 0.22,0.14 0.39,0.26 0.6,0.39 0.72,0.46 1.82,1.88 1.98,2.68z"/>
    <path class="fil1 str1" d="M9 20.01c0.11,0.64 0.47,1.31 0.54,2.08 0.08,0.8 -0.11,1.68 0.27,2.3 0.82,1.34 1.93,1.44 3.61,0.72 0.72,-0.31 1.69,-1.05 2.23,-1.61 0.41,-0.42 0.83,-1.17 0.86,-1.75 0.05,-1.14 -0.51,-2.75 -0.59,-3.36 -0.06,-0.09 -0.03,-0.07 -0.12,-0.12 -0.57,0.13 -1.27,0.2 -1.8,0.34 -1.45,0.36 -1.85,0.4 -3.39,0.88l-1.61 0.52z"/>
    <path class="fil2 str1" d="M25.94 15.81l-0.18 0.25c0.22,0.06 0.22,-0.2 0.16,0.2 0.05,-0.07 0.1,-0.12 0.19,-0.18 -0.07,0.34 -0.49,1.05 -0.69,1.35 -0.54,0.84 -1.21,1.45 -2.17,1.8 -0.91,0.34 -1,0.22 -1.39,0.34 -0.18,0.06 -0.05,0 -0.2,0.08l-0.01 1.25c0.91,0.02 2.23,-0.84 1.74,0.14 -0.5,1.01 -0.45,0.61 -0.33,1.41 0.13,0.81 0.35,1.24 0.94,1.55 1.62,0.85 3.38,-2.08 3.91,-3.31 0.16,-0.37 0.47,-1.76 0.61,-1.9 0.11,-0.12 1.36,-0.8 1.59,-0.94l1.41 -0.95c-0.25,-0.12 -0.57,-0.24 -0.8,-0.38 -0.49,-0.29 -1.43,-0.7 -1.96,-1.19 -0.15,-0.14 -0.05,-0.03 -0.15,-0.17l-0.25 0.01c-0.01,0.02 -0.03,0.03 -0.04,0.04 -0.01,0.01 -0.03,0.03 -0.04,0.04 -0.19,0.14 -1.86,0.88 -2.1,0.76l-0.07 -0.05c-0.02,-0.01 -0.03,-0.03 -0.04,-0.04 -0.2,-0.16 0.16,0.01 -0.13,-0.11z"/>
    <path class="fil3 str0" d="M32.79 12.75c0.08,-0.25 -0.03,-0.11 0.42,-0.44 0.2,-0.16 0.33,-0.25 0.51,-0.4 0.4,-0.34 0.54,-0.49 0.99,-0.83 0.31,-0.24 0.63,-0.6 0.94,-0.87l0.84 -0.92 -0.17 -0.1 -0.1 0.02 0 0c-0.17,0.06 -0.48,0.05 -0.65,0.05 0.09,-0.04 -0.01,-0.03 0.08,-0.09l0.09 -0.03c0.2,-0.14 0.53,-0.39 0.75,-0.76 1.19,-1.26 1.11,-1.05 0.18,-1.81 -0.61,-0.49 -1.36,-1.04 -2.02,-1.4 -0.51,-0.27 -3.19,-1.48 -3.65,-1.4 -0.08,0.18 -0.28,0.45 -0.53,1.06 -0.8,2.04 -0.72,4.59 0.59,6.37 0.32,0.44 1.21,1.32 1.73,1.55zm-0.18 -7.55c0.02,0 0.04,0 0.05,0 -0.09,0.1 -0.15,0.24 -0.15,0.39 0,0.33 0.27,0.59 0.59,0.59 0.25,0 0.46,-0.15 0.55,-0.37 0.09,0.17 0.14,0.36 0.14,0.57 0,0.65 -0.53,1.18 -1.18,1.18 -0.66,0 -1.19,-0.53 -1.19,-1.18 0,-0.65 0.53,-1.18 1.19,-1.18z"/>
    <path class="fil4" d="M29.75 14.59l0.18 -0.16c0.35,-0.07 1.31,-0.68 1.62,-0.88l0.35 0.17c0.14,-0.12 0.08,0.09 0,-0.15 -0.03,-0.08 -0.61,-0.52 -0.75,-0.64 -1.84,-1.59 -2.62,-4.2 -2.22,-6.65 0.04,-0.23 0.07,-0.43 0.13,-0.64 0.3,-1.21 1.01,-2.11 1.31,-3.03 -0.31,-0.19 -2.32,-0.53 -2.8,-0.49 -0.44,1.08 -0.71,0.87 -1.24,3.16 -0.28,1.24 -0.32,2.74 -0.03,4 0.4,1.81 1.35,3.69 2.8,4.87 0.21,0.16 0.38,0.38 0.65,0.44z"/>
    <path class="fil5 str1" d="M8.33 36.87c-0.17,-0.1 -0.29,-0.25 -0.44,-0.37 -0.15,-0.12 -0.25,-0.25 -0.4,-0.37 -0.27,-0.21 -0.62,-0.43 -0.78,-0.79 -0.27,-0.13 -0.64,-0.78 -0.81,-1.04 -0.92,-1.39 -0.97,-2.59 -1.27,-4.02 -0.18,0.08 -0.05,-0.08 -0.13,0.2 0,0 -0.04,0.3 -0.04,0.3 -0.07,0.52 -0.17,1.35 -0.06,1.82l0.07 0.6c0.02,0.37 0.26,1.25 0.36,1.55 0.76,2.3 2.99,4.36 5.25,5.12 2.78,0.95 5.99,0.47 8.4,-0.98 0.85,-0.5 1.51,-1.01 2.19,-1.71 0.98,-1.02 2.02,-2.53 2.65,-3.85 0.33,-0.71 1.21,-3.01 1.25,-3.92 -0.17,0.17 -0.22,0.32 -0.33,0.59 -0.56,1.41 -1.39,2.75 -2.2,4.01 -0.42,0.65 -1.86,2.45 -2.44,2.87 -0.23,0.16 -0.27,0.15 -0.52,0.38 -1.33,1.24 -3.78,2.05 -6.01,1.95 -0.94,-0.04 -2.13,-0.3 -2.85,-0.71 -0.72,-0.41 -1.63,-0.99 -1.89,-1.63z"/>
    <path class="fil3 str0" d="M3.74 36.28l-0.74 -1.6c-0.24,-0.56 -0.46,-1.15 -0.61,-1.69 -0.69,-2.5 -0.67,-5.39 0.48,-7.75 0.39,-0.8 0.85,-1.46 1.39,-2.11 0.36,-0.43 0.46,-0.34 0.51,-0.65 -0.21,-0.39 -0.6,-0.85 -0.91,-1.08 -0.42,-0.32 -0.75,-0.55 -1.25,-0.73l-0.08 0.16c-0.07,0.07 -0.03,-0.02 -0.15,0.12 -0.09,0.11 -0.18,0.33 -0.26,0.46 -0.49,0.81 -0.52,1.08 -0.84,1.81 -0.15,0.35 -0.29,0.57 -0.4,0.92 -0.53,1.7 -0.85,3.92 -0.32,5.86 0.19,0.69 0.06,0.89 0.57,2.1 0.38,0.93 0.74,1.88 1.36,2.68 0.18,0.23 0.37,0.55 0.56,0.77 0.2,0.25 0.46,0.5 0.69,0.73z"/>
    <path class="fil6 str2" d="M13.03 3.13c-0.06,0.46 -0.1,1.26 0.08,1.64 0.17,-0.5 -0.1,-1.75 1.05,-2.67 1.61,-1.28 3.51,-1.43 5.52,-1 0.49,0.1 2.24,0.74 2.36,1.09 -3.36,0.65 -5.26,1.49 -7.96,3.26l-0.43 0.3c0.22,0.09 0.19,0.17 0.56,0.55 0.12,0.13 0.1,-0.04 0.11,0.25l-0.06 0.01c0.15,0.27 0.44,0.47 0.7,0.66 0.26,0.2 0.45,0.35 0.82,0.57 0.45,0.26 1.34,0.78 1.82,0.91 0.15,-0.04 0.04,0.06 0.06,-0.05 0.02,-0.09 0.31,0.07 -0.25,-0.19 -0.81,-0.39 -2.55,-1.34 -2.97,-1.94 0.43,-0.78 3.94,-2.32 4.9,-2.6 2.48,-0.73 3.71,-1.03 6.48,-0.96 -0.02,0.2 -0.58,1.48 -0.79,3.25 -0.16,1.43 0.04,2.54 0.27,3.8 0.2,1.14 1.29,3.15 2.11,4.01l0.88 0.95c0,0.02 0.06,0.16 0.07,0.2l0.25 -0.01 -0.03 -0.2c-0.56,-0.82 -2.5,-1.86 -3.22,-5.53 -0.25,-1.25 -0.28,-2.85 -0.02,-4.09 0.48,-2.25 0.9,-2.4 1.15,-3.29 -0.06,-0.04 -0.01,-0.03 -0.18,-0.12 -0.72,0.03 -1.55,0.01 -2.29,0.02 -1.19,0.02 -0.9,0.24 -1.79,-0.41 -2.62,-1.93 -6.53,-2.17 -8.46,0.03 -0.24,0.27 -0.73,1.04 -0.74,1.56z"/>
    <path class="fil7 str0" d="M8.33 36.87c0.26,0.64 1.17,1.22 1.89,1.63 0.72,0.41 1.91,0.67 2.85,0.71 2.23,0.1 4.68,-0.71 6.01,-1.95 0.25,-0.23 0.29,-0.22 0.52,-0.38 0.58,-0.42 2.02,-2.22 2.44,-2.87 0.81,-1.26 1.64,-2.6 2.2,-4.01 0.11,-0.27 0.16,-0.42 0.33,-0.59 0.03,-0.37 0.1,-0.19 0.01,-0.52 -0.36,0.52 -2.57,2.27 -3.06,2.58l-1.8 1.06c-0.29,0.13 -1.77,0.74 -1.9,0.87 1.22,0.66 3.08,-0.17 2.57,0.84 -0.29,0.56 -1.31,1.67 -1.81,2.1 -1.76,1.48 -4.71,2.34 -6.96,1.82 -0.64,-0.15 -2.04,-0.58 -2.57,-0.88 -0.23,-0.13 -0.4,-0.3 -0.72,-0.41z"/>
    <path class="fil8 str1" d="M13.16 3c-0.42,0.6 0.02,2.48 0.4,2.82 0.05,-0.1 -0.02,-0.11 0.09,-0.07l0.43 -0.3c2.7,-1.77 4.6,-2.61 7.96,-3.26 -0.12,-0.35 -1.87,-0.99 -2.36,-1.09 -2.01,-0.43 -3.91,-0.28 -5.52,1 -1.15,0.92 -0.85,2.05 -1.02,2.54 -0.19,-0.37 -0.03,-1.17 0.02,-1.64z"/>
    <path class="fil2 str1" d="M3.74 36.28c0.14,0.19 0.03,0.12 0.36,0.17 -0.08,-0.4 -0.36,-0.89 -0.51,-1.28 -0.48,-1.23 -0.65,-3.59 -0.39,-4.8 0.1,-0.45 0.37,-1.75 0.54,-2.12 0.04,-0.1 0.22,-0.44 0.3,-0.6 0.22,-0.42 0.41,-0.81 0.65,-1.17l0.79 -0.99c0.05,-1.27 0.01,-1.35 -0.37,-2.4 -0.14,-0.37 -0.1,-0.42 -0.34,-0.61 -0.05,0.31 -0.15,0.22 -0.51,0.65 -0.54,0.65 -1,1.31 -1.39,2.11 -1.15,2.36 -1.17,5.25 -0.48,7.75 0.15,0.54 0.37,1.13 0.61,1.69l0.74 1.6z"/>
    <path class="fil8 str1" d="M3.89 15.71l0.34 0.38c0.23,-0.07 0.34,-0.37 0.63,-0.81l3.79 -5.01c0.27,-0.29 0.58,-0.55 0.7,-0.81l-0.26 -0.07c-2.55,-0.21 -5.05,1.11 -5.56,3.71 -0.1,0.49 -0.03,1 0.02,1.49 0.06,0.58 0.18,0.66 0.34,1.12z"/>
    <path class="fil2 str1" d="M36.49 9.29l-0.84 0.92c-0.31,0.27 -0.63,0.63 -0.94,0.87 -0.45,0.34 -0.59,0.49 -0.99,0.83 -0.18,0.15 -0.31,0.24 -0.51,0.4 -0.45,0.33 -0.34,0.19 -0.42,0.44 0.55,0.42 1.7,0.8 2.57,0.86 0.23,-0.42 -0.03,0.04 0.25,-0.23 0.37,-0.36 0.96,-1.45 1.04,-1.49 0.51,-1.14 1.1,-1.61 1.35,-3.3 -0.35,0.08 -0.47,0.22 -0.75,0.36 -0.23,0.11 -0.47,0.23 -0.76,0.34z"/>
    <path class="fil9 str1" d="M24.93 28.66l-0.35 0.23c0.09,0.33 0.02,0.15 -0.01,0.52 -0.04,0.91 -0.92,3.21 -1.25,3.92 -0.63,1.32 -1.67,2.83 -2.65,3.85 -0.68,0.7 -1.34,1.21 -2.19,1.71 -2.41,1.45 -5.62,1.93 -8.4,0.98 -2.26,-0.76 -4.49,-2.82 -5.25,-5.12 -0.1,-0.3 -0.34,-1.18 -0.36,-1.55l-0.07 -0.6c-0.11,-0.47 -0.01,-1.3 0.06,-1.82 0,0 0.04,-0.3 0.04,-0.3 0.08,-0.28 -0.05,-0.12 0.13,-0.2 0.3,1.43 0.35,2.63 1.27,4.02 0.17,0.26 0.54,0.91 0.81,1.04l0.14 0c-0.3,-0.68 -2.07,-2.26 -2.02,-5.63l0.05 -0.83c0,-0.02 -0.01,-0.04 -0.01,-0.05 0,-0.01 -0.01,-0.03 -0.02,-0.04 0,-0.01 0,-0.03 -0.01,-0.05 -0.25,0.39 -0.54,1.61 -0.62,2.17 -0.32,2.32 0.53,4.89 1.95,6.47 2.13,2.37 4.62,3.44 8.02,3.12 4.65,-0.45 7.76,-3.65 9.45,-7.4 0.44,-1 1.2,-3.3 1.29,-4.44z"/>
    <path class="fil10" d="M17.1 18.12c0.07,0.59 0.31,1.28 0.42,1.92 0.11,0.58 0.21,1.05 0.28,1.68l2.57 -0.41c-0.08,-0.33 -0.06,-0.28 -0.04,-0.61 0.1,-1.81 0.34,-1.27 -0.45,-1.6 -0.34,-0.14 -0.99,-0.6 -1.26,-0.82 -0.16,-0.14 -0.15,0.02 -0.28,-0.3 -0.21,-0.09 -1.07,0.01 -1.24,0.14z"/>
    <path class="fil11" d="M6.92 17.31c-0.19,-0.12 -0.39,-0.26 -0.59,-0.38 -0.35,-0.22 -0.8,-0.32 -1.15,-0.53 -0.17,-0.1 -0.08,-0.16 0.02,-0.3 0.4,-0.55 0.78,-1.11 1.17,-1.65 0.15,-0.21 0.29,-0.41 0.43,-0.61 0.2,-0.28 0.45,-0.57 0.67,-0.83 0.21,-0.26 0.43,-0.51 0.64,-0.76 0.45,-0.52 0.89,-1.04 1.34,-1.56 0.09,-0.1 0.25,-0.24 0.35,-0.33 0.12,-0.11 0.28,-0.24 0.38,-0.36 0.02,-0.02 0.02,-0.01 -0.03,-0.06 -0.16,-0.16 -0.34,-0.28 -0.56,-0.37 -0.19,-0.07 -0.11,-0.1 -0.17,-0.24 -0.03,-0.08 -0.21,-0.03 -0.29,-0.02 -0.16,0.01 -0.36,-0.06 -0.53,-0.07 -0.06,-0.01 -0.09,-0.01 -0.02,0.02 0.03,0.01 0.44,0.11 0.5,0.12 0.04,0.02 0.23,0.05 0.24,0.09 0.06,0.1 -0.59,0.7 -0.67,0.8 -0.1,0.12 -0.22,0.28 -0.32,0.41 -0.79,1.05 -1.59,2.1 -2.38,3.16 -0.1,0.12 -0.19,0.25 -0.29,0.37 -0.26,0.35 -0.53,0.7 -0.79,1.05 -0.14,0.2 -0.36,0.66 -0.55,0.79 -0.09,0.05 -0.1,0.03 0.02,0.11 0.23,0.14 0.45,0.29 0.7,0.39 0.43,0.18 0.82,0.31 1.23,0.54 0.83,0.48 1.59,1.2 2.05,2.04 0.07,0.13 0.4,0.79 0.48,0.83 0.05,0.04 0.19,0 0.13,0.05 0,-0.01 -0.06,-0.21 -0.07,-0.25 -0.29,-0.8 -1.22,-1.98 -1.94,-2.45z"/>
    <path class="fil12" d="M4.77 22.48c0.24,0.19 0.2,0.24 0.34,0.61 0.38,1.05 0.42,1.13 0.37,2.4 -0.25,0.31 -0.52,0.63 -0.76,0.95 -0.2,0.26 -0.44,0.74 -0.59,1.05 -0.13,0.24 -0.27,0.5 -0.38,0.74 -0.12,0.26 -0.24,0.75 -0.3,1.03 -0.1,0.38 -0.19,0.78 -0.26,1.16 -0.25,1.26 -0.06,3.55 0.4,4.75 0.15,0.39 0.43,0.88 0.51,1.28 -0.33,-0.05 -0.22,0.02 -0.36,-0.17 -0.23,-0.23 -0.49,-0.48 -0.69,-0.73 -0.19,-0.22 -0.38,-0.54 -0.56,-0.77 -0.62,-0.8 -0.98,-1.75 -1.36,-2.68 -0.51,-1.21 -0.38,-1.41 -0.57,-2.1 -0.5,-2.01 -0.26,-3.91 0.32,-5.86 0.11,-0.35 0.25,-0.57 0.4,-0.92 0.32,-0.73 0.35,-1 0.84,-1.81 0.08,-0.13 0.17,-0.35 0.26,-0.46 0.12,-0.14 0.08,-0.05 0.15,-0.12l0.08 -0.16c0.5,0.18 0.83,0.41 1.25,0.73 0.31,0.23 0.7,0.69 0.91,1.08zm-0.91 13.03c-1.02,-2.4 -0.84,-5.42 0.29,-7.75 0.33,-0.69 0.65,-1.21 1.12,-1.81 0.35,-0.45 0.44,-0.61 0.41,-1.2 -0.07,-1.28 -0.61,-2.4 -1.4,-3.21 -0.53,-0.53 -1.01,-0.92 -1.97,-1.11l-0.46 -0.01 -0.08 0.13c-0.12,0.44 -0.32,0.83 -0.51,1.26 -0.18,0.43 -0.3,0.85 -0.45,1.28 -0.31,0.94 -0.49,1.68 -0.59,2.67 -0.04,0.33 -0.13,0.61 -0.15,0.95 -0.03,0.53 0.01,1.1 0.05,1.63 0.02,0.23 0.04,0.46 0.06,0.69 0.03,0.29 0.07,0.57 0.12,0.86l0.01 0.03c0.38,2.03 1.34,4.14 2.55,5.68 0.4,0.52 0.75,0.92 1.23,1.36 0.27,0.25 0.53,0.49 0.79,0.75 0.12,0.12 0.24,0.18 0.36,0.3 0.02,0.02 0.13,0.12 0.15,0.13 0,0 0.07,0 0.07,-0.01 0.01,-0.01 0.01,-0.11 0,-0.12 -0.01,-0.04 -0.21,-0.21 -0.25,-0.26 -0.09,-0.1 -0.2,-0.24 -0.29,-0.35 -0.36,-0.44 -0.83,-1.35 -1.06,-1.89z"/>
    <path class="fil9 str3" d="M28.61 15.16c0.1,0.14 0,0.03 0.15,0.17 0.53,0.49 1.47,0.9 1.96,1.19 0.23,0.14 0.55,0.26 0.8,0.38l-1.41 0.95c-0.23,0.14 -1.48,0.82 -1.59,0.94 -0.14,0.14 -0.45,1.53 -0.61,1.9 -0.53,1.23 -2.29,4.16 -3.91,3.31 -0.59,-0.31 -0.81,-0.74 -0.94,-1.55 -0.12,-0.8 -0.17,-0.4 0.33,-1.41 0.49,-0.98 -0.83,-0.12 -1.74,-0.14l0.01 -1.25c0.15,-0.08 0.02,-0.02 0.2,-0.08 0.39,-0.12 0.48,0 1.39,-0.34 0.96,-0.35 1.63,-0.96 2.17,-1.8 0.2,-0.3 0.62,-1.01 0.69,-1.35 -0.09,0.06 -0.14,0.11 -0.19,0.18 0.06,-0.4 0.06,-0.14 -0.16,-0.2 -0.04,0.18 -0.13,0.24 -0.21,0.42l0.16 -0.06 -0.08 0.18c-0.16,0.75 -1.04,1.6 -1.52,1.96 -1.15,0.85 -2.36,0.69 -2.53,0.85 -0.26,0.41 -0.2,1.23 -0.11,1.75l0.15 -0.01 1.01 -0.2 0.52 -0.11 -0.05 0.29c-0.25,0.69 -0.48,1.12 -0.13,2.02 0.91,2.37 4.19,1.09 5.48,-3.47 0.36,-1.27 0.15,-0.59 1.98,-1.78 0.51,-0.33 1.01,-0.75 1.49,-1.02l-0.04 -0.15c-1.14,-0.18 -2.32,-1.1 -3.15,-1.67 -0.1,-0.07 0,-0.02 -0.15,-0.1l0.03 0.2z"/>
    <path class="fil10" d="M29.93 14.43c0.02,0.42 -0.22,0.1 0.29,0.34 0.69,0.33 1.84,1.07 2.73,1.06l0.28 -0.22c0.1,-0.06 0.13,-0.06 0.19,-0.09 0.14,-0.07 0.07,-0.03 0.16,-0.12 0.2,-0.18 0.36,-0.4 0.6,-0.5 -0.21,-0.25 -0.07,-0.11 -0.42,-0.25 -0.11,-0.05 -0.23,-0.08 -0.36,-0.13 -0.26,-0.1 -0.36,-0.2 -0.7,-0.28 0.15,-0.1 -0.19,-0.16 0.22,-0.07 -0.19,-0.21 -0.75,-0.49 -1.02,-0.6 0.08,0.24 0.14,0.03 0,0.15l-0.35 -0.17c-0.31,0.2 -1.27,0.81 -1.62,0.88z"/>
    <path class="fil13" d="M17.62 33.29l-0.29 0.2 0.37 0.08c0.47,0.32 1.92,0.3 2.66,0.29 -0.3,0.95 -1.74,2.27 -2.48,2.76 -1,0.66 -2.17,1.25 -3.64,1.44 -2.14,0.28 -4.48,-0.3 -6.07,-1.57l-1.32 -1.15 -0.14 0c0.16,0.36 0.51,0.58 0.78,0.79 0.15,0.12 0.25,0.25 0.4,0.37 0.15,0.12 0.27,0.27 0.44,0.37 0.32,0.11 0.49,0.28 0.72,0.41 0.53,0.3 1.93,0.73 2.57,0.88 2.25,0.52 5.2,-0.34 6.96,-1.82 0.5,-0.43 1.52,-1.54 1.81,-2.1 0.51,-1.01 -1.35,-0.18 -2.57,-0.84 0.13,-0.13 1.61,-0.74 1.9,-0.87l1.8 -1.06c0.49,-0.31 2.7,-2.06 3.06,-2.58l0.35 -0.23 0.05 -0.39c-0.28,0.13 -1.16,1.11 -1.66,1.58 -1.79,1.63 -3.35,2.47 -5.7,3.44z"/>
    <path class="fil14" d="M31 3.77c0.46,-0.08 3.14,1.13 3.65,1.4 0.66,0.36 1.41,0.91 2.02,1.4 0.93,0.76 1.01,0.55 -0.18,1.81 -0.38,0.4 -1.28,0.78 -0.92,0.88l0.24 -0.14c0.14,-0.11 0.32,-0.2 0.46,-0.31 0.16,-0.12 0.31,-0.26 0.49,-0.42 0.2,-0.2 0.44,-0.45 0.62,-0.7 0.07,-0.11 0.13,-0.22 0.19,-0.33 0.45,-0.68 -0.48,-1.35 -0.82,-1.64 -1.21,-1.04 -4,-2.67 -5.44,-2.85 -0.1,0.24 -0.29,0.46 -0.38,0.71 -0.02,0.01 -0.03,0.03 -0.04,0.04l-0.06 0.08c-0.01,0.01 -0.02,0.03 -0.03,0.04 -0.47,0.71 -0.9,2.26 -0.97,3.05 -0.22,2.26 0.57,4.56 2.44,5.85 0.65,0.45 2.1,1.17 3.05,1.16 0.23,-0.18 0.6,-0.62 0.78,-0.85 0.52,-0.66 1.35,-1.99 1.62,-2.68 0.23,-0.57 0.49,-1.4 0.46,-2.01 -0.25,0.04 -0.67,0.35 -0.91,0.48 -0.17,0.1 -0.31,0.17 -0.48,0.23 -0.06,0.02 -0.19,0.07 -0.24,0.1l-0.23 0.12 0.17 0.1c0.29,-0.11 0.53,-0.23 0.76,-0.34 0.28,-0.14 0.4,-0.28 0.75,-0.36 -0.13,0.85 -0.32,1.42 -0.74,2.16 -0.21,0.37 -0.4,0.7 -0.58,1.08 -0.04,0.08 -0.04,0.06 -0.09,0.13 -0.15,0.19 -0.29,0.41 -0.43,0.62 -0.29,0.42 -0.56,0.59 -0.8,1.03 -0.87,-0.06 -2.02,-0.44 -2.57,-0.86 -0.52,-0.23 -1.41,-1.11 -1.73,-1.55 -1.31,-1.78 -1.39,-4.33 -0.59,-6.37 0.25,-0.61 0.45,-0.88 0.53,-1.06z"/>
    <path class="fil15 str4" d="M3.89 15.71c-0.16,-0.46 -0.28,-0.54 -0.34,-1.12 -0.05,-0.49 -0.12,-1 -0.02,-1.49 0.51,-2.6 3.01,-3.92 5.56,-3.71 -0.02,-0.01 -0.23,-0.06 -0.26,-0.07 -0.02,0 -0.09,-0.02 -0.12,-0.03 -0.19,-0.05 -0.09,-0.01 -0.18,-0.06 -0.73,-0.25 -2.16,0.14 -2.83,0.41 -1.02,0.41 -0.85,0.5 -1.29,0.79 -0.96,0.63 -1.54,1.64 -1.55,3.01 -0.01,1.34 0.51,1.54 1.03,2.27z"/>
    <path class="fil9 str3" d="M15.92 18.39c0.08,0.61 0.64,2.22 0.59,3.36 -0.03,0.58 -0.45,1.33 -0.86,1.75 -0.54,0.56 -1.51,1.3 -2.23,1.61 -1.68,0.72 -2.79,0.62 -3.61,-0.72 -0.38,-0.62 -0.19,-1.5 -0.27,-2.3 -0.07,-0.77 -0.43,-1.44 -0.54,-2.08l-0.07 0c0.04,-0.07 0.02,0 -0.14,-0.05 0.19,0.86 0.45,1.23 0.55,2.3 0.09,0.97 -0.1,1.58 0.37,2.36 0.84,1.41 2.34,1.27 3.84,0.61 1.15,-0.5 2.29,-1.45 2.91,-2.54 0.42,-0.75 0.25,-1.4 0.09,-2.33l-0.56 -2.2c0,0.03 -0.02,0.13 -0.02,0.15 -0.01,0.01 -0.02,0.06 -0.02,0.05 0,-0.01 -0.02,0.02 -0.03,0.03z"/>
    <path class="fil16 str2" d="M4.81 16.44l-0.58 -0.35 -0.34 -0.38c-0.52,-0.73 -1.04,-0.93 -1.03,-2.27 0.01,-1.37 0.59,-2.38 1.55,-3.01 0.44,-0.29 0.27,-0.38 1.29,-0.79 0.67,-0.27 2.1,-0.66 2.83,-0.41 0.38,0.02 0.48,0.13 0.81,0.05 -0.74,-0.63 -4.27,-0.36 -5.88,1.8 -0.99,1.32 -1.13,3.16 0.05,4.52 0.34,0.4 0.58,0.73 1.3,0.84z"/>
    <path class="fil13" d="M15.8 18.27c0.09,0.05 0.06,0.03 0.12,0.12 0.01,-0.01 0.03,-0.04 0.03,-0.03 0,0.01 0.01,-0.04 0.02,-0.05 0,-0.02 0.02,-0.12 0.02,-0.15 -0.01,-0.38 -0.76,-2.07 -0.97,-2.49 -0.39,-0.78 -0.81,-1.58 -1.28,-2.21 -0.89,-1.22 -2.13,-2.87 -3.38,-3.62l-0.05 0.13c0.13,0.29 0.57,0.34 0.91,0.77 0.23,0.29 0.12,0.21 0.41,0.44 0.23,0.18 0.25,0.23 0.43,0.46 0.28,0.36 0.51,0.46 0.78,0.92 0.44,0.73 0.81,0.94 1.37,2.03 0.49,0.95 1.06,1.9 1.38,2.96 0.05,0.17 0.14,0.54 0.21,0.72z"/>
    <path class="fil17" d="M29.93 14.43l-0.18 0.16c0.32,0.48 1.78,1.06 2.5,1.29 0.77,0.26 0.74,0.21 1.25,-0.21 0.37,-0.31 0.61,-0.68 0.95,-0.92 -0.09,-0.2 -0.49,-0.23 -0.7,-0.3 -0.29,-0.1 -0.53,-0.24 -0.83,-0.28 -0.41,-0.09 -0.07,-0.03 -0.22,0.07 0.34,0.08 0.44,0.18 0.7,0.28 0.13,0.05 0.25,0.08 0.36,0.13 0.35,0.14 0.21,0 0.42,0.25 -0.24,0.1 -0.4,0.32 -0.6,0.5 -0.09,0.09 -0.02,0.05 -0.16,0.12 -0.06,0.03 -0.09,0.03 -0.19,0.09l-0.28 0.22c-0.89,0.01 -2.04,-0.73 -2.73,-1.06 -0.51,-0.24 -0.27,0.08 -0.29,-0.34z"/>
    <path class="fil6 str2" d="M10.19 9.98l0.12 -0.01 0.05 -0.13c-0.22,-0.19 -0.56,-0.45 -0.93,-0.54l0.03 0.23c0.27,0.06 0.58,0.28 0.73,0.45z"/>
    <path class="fil6 str2" d="M14.26 6.56l0.06 -0.01c-0.01,-0.29 0.01,-0.12 -0.11,-0.25 -0.37,-0.38 -0.34,-0.46 -0.56,-0.55 -0.11,-0.04 -0.04,-0.03 -0.09,0.07 0.07,0.17 0.5,0.67 0.7,0.74z"/>
    <polygon class="fil18" points="5.87,21.72 6.98,20.7 7.86,20.54 8.17,21.19 8.36,22.12 8.38,23.37 7.51,23.82 6.67,24.45 6.25,22.83 5.89,21.96 "/>
    <path class="fil4" d="M7.28 23.84c-0.07,0.05 -0.49,0.39 -0.55,0.33 -0.08,-0.07 -0.15,-0.66 -0.23,-0.83 -0.08,-0.19 -0.12,-0.4 -0.19,-0.6 -0.09,-0.24 -0.19,-0.43 -0.29,-0.66 -0.12,-0.28 0,-0.35 0.21,-0.51 0.23,-0.18 1.36,-1.07 1.61,-0.89 0.14,0.11 0.17,0.5 0.21,0.68 0.15,0.61 0.29,1.03 0.25,1.68 -0.01,0.11 -0.01,0.29 -0.11,0.36 -0.15,0.09 -0.47,0.19 -0.64,0.27 -0.1,0.05 -0.18,0.1 -0.27,0.17zm-3.5 -6.61c-0.32,0 -0.48,0.46 -0.79,0.99 -0.08,0.15 -0.63,1.12 -0.61,1.22 0.02,0.08 0.54,0.21 0.63,0.23 0.95,0.29 1.48,0.69 2.14,1.42 0.57,0.64 0.98,1.4 1.19,2.23 0.08,0.34 0.18,0.69 0.22,1.03 0.01,0.06 0.02,0.17 0.08,0.19 0.2,-0.01 0.3,-0.19 0.44,-0.32 0.43,-0.34 0.81,-0.48 1.29,-0.71 0.18,-0.09 0.12,-0.12 0.12,-0.31 -0.03,-1.32 -0.16,-1.86 -0.67,-3.09 -0.1,-0.25 -0.21,-0.43 -0.36,-0.65 -0.3,-0.4 -0.74,-0.9 -1.14,-1.2 -0.76,-0.56 -1.58,-0.98 -2.54,-1.03z"/>
    <path class="fil4" d="M17.2 18.18c0.19,-0.11 0.87,-0.18 1.06,-0.09 0.11,0.05 0.21,0.18 0.31,0.26 0.13,0.11 0.29,0.22 0.43,0.32 0.38,0.28 0.67,0.42 1.12,0.58 0.25,0.09 0.23,0.2 0.21,0.44 -0.01,0.17 -0.03,0.35 -0.05,0.53 -0.01,0.21 -0.03,0.41 -0.04,0.62 -0.02,0.33 -0.05,0.1 0.03,0.42l-2.38 0.39c-0.08,-0.62 -0.19,-1.19 -0.29,-1.78 -0.12,-0.64 -0.32,-1.1 -0.4,-1.69zm0.3 -1.92c-0.91,-3.5 2.15,-4.7 3.09,-4.48 0.07,-0.12 0.04,-0.05 0.05,-0.2 -0.85,-0.72 -0.68,-0.7 -1.92,-1.28 -2.18,-1.03 -4.54,-1.96 -5.94,-3.89 -0.5,0.22 -2.22,1.86 -2.5,2.21 0.46,0.42 1.2,0.74 2.22,1.82 1.61,1.7 3.21,4.04 3.99,6.21 0.13,0.34 0.42,1.31 0.53,1.5 0.27,1.36 0.53,2.23 0.63,3.69l2.77 -0.45c0.07,-0.67 0.12,-1.36 0.14,-2.03 0,-0.03 0,-0.14 -0.02,-0.15 -0.04,-0.02 -0.18,-0.05 -0.22,-0.07 -0.16,-0.05 -0.24,-0.07 -0.38,-0.15 -0.14,-0.07 -0.29,-0.15 -0.43,-0.22 -0.28,-0.15 -0.45,-0.28 -0.69,-0.48 -0.1,-0.08 -0.21,-0.16 -0.31,-0.24 -0.15,-0.12 -0.14,-0.19 -0.25,-0.34 -0.25,-0.36 -0.44,-0.59 -0.61,-1 -0.06,-0.15 -0.11,-0.29 -0.15,-0.45z"/>
    <polygon class="fil18" points="5.87,21.72 6.98,20.7 7.86,20.54 8.17,21.19 8.36,22.12 8.38,23.37 7.51,23.82 6.67,24.45 6.25,22.83 5.89,21.96 "/>
    <path class="fil4" d="M7.28 23.84c-0.07,0.05 -0.49,0.39 -0.55,0.33 -0.08,-0.07 -0.15,-0.66 -0.23,-0.83 -0.08,-0.19 -0.12,-0.4 -0.19,-0.6 -0.09,-0.24 -0.19,-0.43 -0.29,-0.66 -0.12,-0.28 0,-0.35 0.21,-0.51 0.23,-0.18 1.36,-1.07 1.61,-0.89 0.14,0.11 0.17,0.5 0.21,0.68 0.15,0.61 0.29,1.03 0.25,1.68 -0.01,0.11 -0.01,0.29 -0.11,0.36 -0.15,0.09 -0.47,0.19 -0.64,0.27 -0.1,0.05 -0.18,0.1 -0.27,0.17zm-3.5 -6.61c-0.32,0 -0.48,0.46 -0.79,0.99 -0.08,0.15 -0.63,1.12 -0.61,1.22 0.02,0.08 0.54,0.21 0.63,0.23 0.95,0.29 1.48,0.69 2.14,1.42 0.57,0.64 0.98,1.4 1.19,2.23 0.08,0.34 0.18,0.69 0.22,1.03 0.01,0.06 0.02,0.17 0.08,0.19 0.2,-0.01 0.3,-0.19 0.44,-0.32 0.43,-0.34 0.81,-0.48 1.29,-0.71 0.18,-0.09 0.12,-0.12 0.12,-0.31 -0.03,-1.32 -0.16,-1.86 -0.67,-3.09 -0.1,-0.25 -0.21,-0.43 -0.36,-0.65 -0.3,-0.4 -0.74,-0.9 -1.14,-1.2 -0.76,-0.56 -1.58,-0.98 -2.54,-1.03z"/>
   </g>
   <g>
    <path class="fil19" d="M57.94 0.49l-3.78 0 0 13.89 -9.12 -13.89 -3.74 0 0 19.89 3.74 0 0 -13.47 9.12 13.47 3.78 0 0 -19.89zm2.89 19.89l11.22 0 0 -2.87 -7.48 0 0 -5.91 3.57 0 1.05 -2.99 -4.62 0 0 -5 7.55 0 0 -3.12 -11.29 0 0 19.89zm17.79 -19.89l-3.74 0 0 19.89 3.74 0 0 -10.52 3.9 10.52 2.8 0 3.97 -10.54 0 10.54 3.71 0 0 -19.89 -3.71 0 -5.39 13.98 -5.28 -13.98zm17.11 5.45l0 9.15c0,1.24 0.32,2.27 0.96,3.1 0.64,0.83 1.49,1.46 2.57,1.88 1.08,0.41 2.28,0.62 3.61,0.62 1.41,0 2.65,-0.22 3.72,-0.67 1.06,-0.44 1.89,-1.09 2.47,-1.93 0.59,-0.84 0.88,-1.84 0.88,-3l0 -9.12c0,-1.86 -0.62,-3.31 -1.85,-4.38 -1.24,-1.06 -2.97,-1.59 -5.19,-1.59 -2.22,0 -3.97,0.51 -5.25,1.52 -1.28,1.02 -1.92,2.49 -1.92,4.42zm3.73 8.59l0 -7.68c0,-0.81 0.12,-1.48 0.36,-2 0.23,-0.52 0.6,-0.91 1.09,-1.15 0.5,-0.25 1.14,-0.37 1.92,-0.37 0.86,0 1.53,0.13 2.02,0.38 0.5,0.26 0.85,0.64 1.05,1.15 0.2,0.51 0.3,1.18 0.3,1.99l0 7.65c0,0.58 -0.13,1.11 -0.4,1.56 -0.27,0.45 -0.65,0.81 -1.15,1.05 -0.49,0.25 -1.1,0.37 -1.82,0.37 -0.72,0 -1.33,-0.12 -1.83,-0.35 -0.51,-0.24 -0.89,-0.58 -1.15,-1.03 -0.26,-0.44 -0.39,-0.97 -0.39,-1.57z"/>
    <path class="fil19" d="M42.46 22.89l-1.16 0 0 2.99 0.38 0 0 -0.98 0.78 0c0.16,0 0.3,-0.02 0.43,-0.05 0.13,-0.03 0.24,-0.09 0.33,-0.16 0.09,-0.08 0.16,-0.18 0.21,-0.31 0.05,-0.13 0.07,-0.3 0.07,-0.49 0,-0.19 -0.02,-0.35 -0.08,-0.48 -0.05,-0.13 -0.12,-0.23 -0.21,-0.31 -0.1,-0.07 -0.21,-0.13 -0.33,-0.16 -0.13,-0.03 -0.27,-0.05 -0.42,-0.05zm-0.78 1.71l0 -1.4 0.73 0c0.11,0 0.2,0.01 0.29,0.03 0.09,0.02 0.16,0.05 0.23,0.09 0.06,0.05 0.11,0.12 0.14,0.21 0.03,0.09 0.05,0.21 0.05,0.36 0,0.15 -0.02,0.28 -0.05,0.37 -0.03,0.1 -0.08,0.17 -0.15,0.22 -0.06,0.04 -0.13,0.07 -0.22,0.09 -0.09,0.02 -0.18,0.03 -0.29,0.03l-0.73 0zm4.03 -0.48l-1.43 0 0 -1.23 -0.38 0 0 2.99 0.38 0 0 -1.46 1.43 0 0 1.46 0.37 0 0 -2.99 -0.37 0 0 1.23zm0.79 -0.94l0.34 0.01 0 2.69 0.37 0 0 -2.99 -0.71 0 0 0.29zm3.11 0.1l0.11 -0.27c-0.08,-0.04 -0.17,-0.07 -0.25,-0.09 -0.09,-0.02 -0.18,-0.04 -0.27,-0.05 -0.08,-0.01 -0.17,-0.02 -0.27,-0.02 -0.13,0 -0.27,0.02 -0.4,0.04 -0.13,0.03 -0.26,0.07 -0.37,0.13 -0.11,0.05 -0.2,0.13 -0.26,0.22 -0.07,0.1 -0.11,0.21 -0.11,0.35 0,0.11 0.03,0.2 0.08,0.29 0.05,0.08 0.12,0.15 0.21,0.21 0.09,0.06 0.18,0.12 0.3,0.17 0.11,0.04 0.22,0.09 0.33,0.13 0.12,0.04 0.23,0.08 0.34,0.12 0.11,0.04 0.21,0.09 0.3,0.14 0.08,0.05 0.15,0.11 0.21,0.18 0.05,0.06 0.07,0.14 0.07,0.23 0,0.1 -0.02,0.19 -0.06,0.26 -0.05,0.07 -0.11,0.13 -0.19,0.17 -0.08,0.05 -0.16,0.08 -0.26,0.1 -0.1,0.02 -0.21,0.03 -0.31,0.03 -0.11,0 -0.23,-0.01 -0.35,-0.03 -0.12,-0.03 -0.23,-0.07 -0.34,-0.12 -0.11,-0.05 -0.2,-0.11 -0.27,-0.19l-0.22 0.21c0.1,0.1 0.21,0.18 0.34,0.25 0.12,0.06 0.26,0.11 0.4,0.14 0.15,0.03 0.3,0.05 0.45,0.05 0.16,0 0.31,-0.02 0.45,-0.05 0.14,-0.03 0.28,-0.08 0.39,-0.15 0.12,-0.07 0.21,-0.16 0.28,-0.27 0.06,-0.1 0.1,-0.23 0.1,-0.38 0,-0.12 -0.03,-0.24 -0.08,-0.33 -0.05,-0.1 -0.12,-0.18 -0.21,-0.25 -0.09,-0.06 -0.19,-0.12 -0.3,-0.18 -0.11,-0.05 -0.22,-0.09 -0.34,-0.13 -0.12,-0.05 -0.23,-0.09 -0.34,-0.13 -0.11,-0.04 -0.21,-0.08 -0.3,-0.12 -0.09,-0.05 -0.16,-0.1 -0.21,-0.16 -0.06,-0.06 -0.08,-0.13 -0.08,-0.21 0,-0.08 0.02,-0.15 0.07,-0.2 0.05,-0.06 0.11,-0.1 0.19,-0.13 0.07,-0.03 0.16,-0.06 0.24,-0.07 0.09,-0.01 0.17,-0.02 0.25,-0.02 0.08,0 0.16,0.01 0.24,0.02 0.08,0 0.15,0.02 0.23,0.04 0.07,0.01 0.14,0.04 0.21,0.07zm2.65 0.84l-1.43 0 0 -1.23 -0.38 0 0 2.99 0.38 0 0 -1.46 1.43 0 0 1.46 0.37 0 0 -2.99 -0.37 0 0 1.23zm0.78 -0.94l0.35 0.01 0 2.69 0.37 0 0 -2.99 -0.72 0 0 0.29zm3.65 -0.29l-0.38 0 0 2.39 -1.74 -2.39 -0.37 0 0 2.99 0.37 0 0 -2.37 1.74 2.37 0.38 0 0 -2.99zm2.03 0.34l0.11 -0.24c-0.07,-0.03 -0.14,-0.05 -0.22,-0.07 -0.08,-0.03 -0.16,-0.04 -0.24,-0.05 -0.08,-0.01 -0.16,-0.02 -0.25,-0.02 -0.21,0 -0.4,0.04 -0.55,0.1 -0.15,0.07 -0.26,0.17 -0.34,0.3 -0.08,0.13 -0.12,0.29 -0.12,0.48l0 1.35c0,0.19 0.04,0.35 0.13,0.47 0.09,0.12 0.2,0.22 0.35,0.28 0.15,0.06 0.32,0.09 0.52,0.09 0.09,0 0.18,-0.01 0.27,-0.03 0.1,-0.01 0.19,-0.04 0.27,-0.07 0.09,-0.04 0.16,-0.08 0.22,-0.13l0.02 0.19 0.3 0 0 -1.28 -1.02 0 0.13 0.3 0.53 0 0 0.18c0,0.08 -0.02,0.15 -0.06,0.22 -0.03,0.07 -0.09,0.12 -0.15,0.17 -0.07,0.04 -0.14,0.08 -0.23,0.1 -0.09,0.03 -0.18,0.04 -0.29,0.04 -0.13,0 -0.25,-0.02 -0.34,-0.06 -0.09,-0.04 -0.16,-0.1 -0.2,-0.18 -0.05,-0.08 -0.07,-0.18 -0.07,-0.29l0 -1.39c0,-0.13 0.03,-0.23 0.09,-0.31 0.05,-0.08 0.13,-0.14 0.24,-0.18 0.11,-0.03 0.23,-0.05 0.38,-0.05 0.05,0 0.11,0 0.17,0.01 0.06,0 0.11,0.01 0.17,0.02 0.06,0.02 0.12,0.03 0.18,0.05zm4.18 0.05l0.11 -0.27c-0.08,-0.04 -0.17,-0.07 -0.26,-0.09 -0.08,-0.02 -0.17,-0.04 -0.26,-0.05 -0.09,-0.01 -0.18,-0.02 -0.27,-0.02 -0.14,0 -0.27,0.02 -0.4,0.04 -0.14,0.03 -0.26,0.07 -0.37,0.13 -0.11,0.05 -0.2,0.13 -0.27,0.22 -0.06,0.1 -0.1,0.21 -0.1,0.35 0,0.11 0.03,0.2 0.08,0.29 0.05,0.08 0.12,0.15 0.2,0.21 0.09,0.06 0.19,0.12 0.3,0.17 0.11,0.04 0.23,0.09 0.34,0.13 0.12,0.04 0.23,0.08 0.34,0.12 0.11,0.04 0.21,0.09 0.29,0.14 0.09,0.05 0.16,0.11 0.21,0.18 0.05,0.06 0.08,0.14 0.08,0.23 0,0.1 -0.02,0.19 -0.07,0.26 -0.04,0.07 -0.1,0.13 -0.18,0.17 -0.08,0.05 -0.17,0.08 -0.27,0.1 -0.1,0.02 -0.2,0.03 -0.3,0.03 -0.11,0 -0.23,-0.01 -0.35,-0.03 -0.12,-0.03 -0.24,-0.07 -0.34,-0.12 -0.11,-0.05 -0.2,-0.11 -0.28,-0.19l-0.21 0.21c0.1,0.1 0.21,0.18 0.33,0.25 0.13,0.06 0.26,0.11 0.41,0.14 0.14,0.03 0.29,0.05 0.45,0.05 0.15,0 0.3,-0.02 0.45,-0.05 0.14,-0.03 0.27,-0.08 0.39,-0.15 0.12,-0.07 0.21,-0.16 0.27,-0.27 0.07,-0.1 0.11,-0.23 0.11,-0.38 0,-0.12 -0.03,-0.24 -0.08,-0.33 -0.06,-0.1 -0.13,-0.18 -0.22,-0.25 -0.08,-0.06 -0.18,-0.12 -0.29,-0.18 -0.11,-0.05 -0.23,-0.09 -0.34,-0.13 -0.12,-0.05 -0.24,-0.09 -0.35,-0.13 -0.1,-0.04 -0.2,-0.08 -0.29,-0.12 -0.09,-0.05 -0.16,-0.1 -0.22,-0.16 -0.05,-0.06 -0.07,-0.13 -0.07,-0.21 0,-0.08 0.02,-0.15 0.07,-0.2 0.04,-0.06 0.11,-0.1 0.18,-0.13 0.08,-0.03 0.16,-0.06 0.25,-0.07 0.09,-0.01 0.17,-0.02 0.25,-0.02 0.08,0 0.16,0.01 0.24,0.02 0.07,0 0.15,0.02 0.22,0.04 0.08,0.01 0.15,0.04 0.22,0.07zm0.5 -0.1l0.34 0.01 0 2.69 0.38 0 0 -2.99 -0.72 0 0 0.29zm1.53 -0.29l-0.38 0 0 2.99 0.38 0 0 -2.05 0.81 2.05 0.34 0 0.81 -2.05 0 2.05 0.38 0 0 -2.99 -0.38 0 -0.99 2.44 -0.97 -2.44zm4.89 2.19l0 -2.19 -0.37 0 0 2.16c0,0.12 -0.03,0.22 -0.09,0.31 -0.05,0.08 -0.13,0.15 -0.24,0.19 -0.1,0.04 -0.22,0.06 -0.36,0.06 -0.14,0 -0.26,-0.02 -0.36,-0.06 -0.11,-0.04 -0.19,-0.11 -0.24,-0.19 -0.06,-0.08 -0.09,-0.18 -0.09,-0.31l0 -2.16 -0.37 0 0 2.19c0,0.19 0.04,0.34 0.13,0.47 0.09,0.12 0.22,0.22 0.38,0.28 0.16,0.06 0.35,0.09 0.56,0.09 0.21,0 0.39,-0.03 0.55,-0.09 0.16,-0.07 0.28,-0.16 0.37,-0.29 0.09,-0.12 0.13,-0.27 0.13,-0.46zm0.43 0.8l1.82 0 0 -0.29 -1.44 0 0 -2.7 -0.38 0 0 2.99zm4.74 0l-1.06 -2.99 -0.44 0 -1.05 2.99 0.42 0 0.33 -0.96 1.04 0 0.34 0.96 0.42 0zm-1.7 -1.28l0.41 -1.26 0.43 1.26 -0.84 0zm2.72 -1.41l0.84 0 0 -0.3 -2.03 0 0 0.3 0.82 0 0 2.69 0.37 0 0 -2.69zm1.18 -0.01l0.34 0.01 0 2.69 0.38 0 0 -2.99 -0.72 0 0 0.29zm1.12 0.53l0 1.37c0,0.19 0.05,0.34 0.14,0.47 0.1,0.12 0.23,0.22 0.39,0.28 0.16,0.06 0.34,0.09 0.54,0.09 0.21,0 0.39,-0.03 0.55,-0.1 0.16,-0.07 0.29,-0.16 0.38,-0.29 0.09,-0.12 0.13,-0.27 0.13,-0.45l0 -1.37c0,-0.27 -0.09,-0.49 -0.28,-0.65 -0.18,-0.16 -0.44,-0.24 -0.77,-0.24 -0.34,0 -0.6,0.08 -0.79,0.23 -0.19,0.15 -0.29,0.37 -0.29,0.66zm0.38 1.34l0 -1.32c0,-0.13 0.03,-0.24 0.08,-0.33 0.05,-0.09 0.13,-0.15 0.23,-0.19 0.11,-0.05 0.23,-0.07 0.37,-0.07 0.15,0 0.28,0.02 0.38,0.07 0.1,0.04 0.18,0.1 0.23,0.19 0.06,0.09 0.08,0.2 0.08,0.33l0 1.32c0,0.12 -0.03,0.23 -0.08,0.31 -0.06,0.09 -0.14,0.15 -0.25,0.19 -0.1,0.04 -0.22,0.06 -0.36,0.06 -0.13,0 -0.25,-0.02 -0.36,-0.06 -0.1,-0.04 -0.18,-0.11 -0.24,-0.19 -0.05,-0.09 -0.08,-0.19 -0.08,-0.31zm4.66 -2.16l-0.37 0 0 2.39 -1.74 -2.39 -0.38 0 0 2.99 0.38 0 0 -2.37 1.74 2.37 0.37 0 0 -2.99zm2.4 0.39l0.11 -0.27c-0.08,-0.04 -0.17,-0.07 -0.25,-0.09 -0.09,-0.02 -0.18,-0.04 -0.27,-0.05 -0.09,-0.01 -0.18,-0.02 -0.27,-0.02 -0.14,0 -0.27,0.02 -0.4,0.04 -0.14,0.03 -0.26,0.07 -0.37,0.13 -0.11,0.05 -0.2,0.13 -0.27,0.22 -0.06,0.1 -0.1,0.21 -0.1,0.35 0,0.11 0.03,0.2 0.08,0.29 0.05,0.08 0.12,0.15 0.21,0.21 0.08,0.06 0.18,0.12 0.29,0.17 0.12,0.04 0.23,0.09 0.34,0.13 0.12,0.04 0.23,0.08 0.34,0.12 0.11,0.04 0.21,0.09 0.29,0.14 0.09,0.05 0.16,0.11 0.21,0.18 0.06,0.06 0.08,0.14 0.08,0.23 0,0.1 -0.02,0.19 -0.07,0.26 -0.04,0.07 -0.1,0.13 -0.18,0.17 -0.08,0.05 -0.17,0.08 -0.27,0.1 -0.1,0.02 -0.2,0.03 -0.3,0.03 -0.11,0 -0.23,-0.01 -0.35,-0.03 -0.12,-0.03 -0.24,-0.07 -0.34,-0.12 -0.11,-0.05 -0.2,-0.11 -0.28,-0.19l-0.21 0.21c0.1,0.1 0.21,0.18 0.33,0.25 0.13,0.06 0.26,0.11 0.41,0.14 0.14,0.03 0.29,0.05 0.45,0.05 0.15,0 0.3,-0.02 0.45,-0.05 0.14,-0.03 0.27,-0.08 0.39,-0.15 0.12,-0.07 0.21,-0.16 0.27,-0.27 0.07,-0.1 0.11,-0.23 0.11,-0.38 0,-0.12 -0.03,-0.24 -0.08,-0.33 -0.05,-0.1 -0.13,-0.18 -0.21,-0.25 -0.09,-0.06 -0.19,-0.12 -0.3,-0.18 -0.11,-0.05 -0.23,-0.09 -0.34,-0.13 -0.12,-0.05 -0.24,-0.09 -0.34,-0.13 -0.11,-0.04 -0.21,-0.08 -0.3,-0.12 -0.09,-0.05 -0.16,-0.1 -0.21,-0.16 -0.06,-0.06 -0.08,-0.13 -0.08,-0.21 0,-0.08 0.02,-0.15 0.07,-0.2 0.04,-0.06 0.11,-0.1 0.18,-0.13 0.08,-0.03 0.16,-0.06 0.25,-0.07 0.09,-0.01 0.17,-0.02 0.25,-0.02 0.08,0 0.16,0.01 0.24,0.02 0.07,0 0.15,0.02 0.22,0.04 0.08,0.01 0.15,0.04 0.22,0.07zm3.92 -0.1l0.11 -0.3 -0.84 0c-0.15,0 -0.28,0.03 -0.4,0.08 -0.11,0.06 -0.2,0.13 -0.26,0.23 -0.06,0.1 -0.09,0.21 -0.09,0.34 0.01,0.07 0.02,0.14 0.05,0.22 0.03,0.08 0.07,0.15 0.13,0.22 0.06,0.07 0.15,0.13 0.25,0.19l-0.09 0c-0.1,0 -0.18,0.01 -0.26,0.03 -0.07,0.03 -0.14,0.07 -0.2,0.12 -0.06,0.05 -0.1,0.11 -0.13,0.19 -0.03,0.08 -0.05,0.17 -0.05,0.28l0 0.41c0,0.1 0.02,0.19 0.05,0.27 0.03,0.08 0.07,0.14 0.12,0.2 0.05,0.05 0.11,0.1 0.18,0.13 0.08,0.04 0.16,0.06 0.24,0.08 0.09,0.02 0.19,0.03 0.29,0.03 0.07,0 0.15,-0.01 0.24,-0.03 0.09,-0.02 0.17,-0.05 0.26,-0.09 0.09,-0.04 0.16,-0.09 0.23,-0.15 0.04,0.08 0.11,0.14 0.2,0.18 0.08,0.05 0.19,0.08 0.32,0.1l0.1 -0.24c-0.11,-0.03 -0.2,-0.07 -0.27,-0.13 -0.06,-0.06 -0.09,-0.14 -0.09,-0.25l0 -0.85 0.39 0 0.11 -0.29 -0.5 0 0 -0.44 -0.37 0 0 0.45 -0.18 0c-0.09,-0.02 -0.17,-0.04 -0.25,-0.07 -0.08,-0.04 -0.15,-0.08 -0.2,-0.13 -0.06,-0.05 -0.11,-0.11 -0.14,-0.18 -0.04,-0.07 -0.05,-0.14 -0.05,-0.21 0,-0.12 0.03,-0.22 0.11,-0.29 0.08,-0.06 0.18,-0.1 0.31,-0.1l0.68 0zm-0.28 1.26l0 0.69c0,0.09 -0.02,0.17 -0.07,0.23 -0.04,0.07 -0.11,0.12 -0.19,0.16 -0.08,0.04 -0.18,0.07 -0.3,0.07 -0.12,0.01 -0.22,0 -0.3,-0.04 -0.08,-0.03 -0.15,-0.08 -0.19,-0.14 -0.05,-0.07 -0.07,-0.15 -0.07,-0.24l0 -0.38c0,-0.08 0.01,-0.14 0.04,-0.19 0.03,-0.04 0.07,-0.08 0.11,-0.1 0.05,-0.03 0.1,-0.04 0.15,-0.05 0.05,-0.01 0.09,-0.01 0.14,-0.01l0.68 0zm3.68 -1.25l0.85 0 0 -0.3 -2.04 0 0 0.3 0.82 0 0 2.69 0.37 0 0 -2.69zm2.36 -0.3l-1.16 0 0 2.99 0.38 0 0 -0.98 0.78 0c0.03,0 0.06,0 0.09,0 0.02,0 0.05,0 0.08,0 0.03,-0.01 0.05,-0.01 0.08,-0.01l0.42 0.99 0.39 0 -0.47 -1.09c0.1,-0.04 0.18,-0.11 0.25,-0.19 0.06,-0.07 0.11,-0.17 0.15,-0.29 0.03,-0.12 0.05,-0.26 0.05,-0.42 0,-0.19 -0.02,-0.35 -0.07,-0.48 -0.05,-0.13 -0.13,-0.23 -0.22,-0.31 -0.1,-0.07 -0.21,-0.13 -0.33,-0.16 -0.13,-0.03 -0.27,-0.05 -0.42,-0.05zm-0.05 1.71l-0.73 0 0 -1.4 0.73 0c0.11,0 0.21,0.01 0.29,0.03 0.09,0.02 0.17,0.05 0.23,0.09 0.06,0.05 0.11,0.12 0.14,0.21 0.03,0.09 0.05,0.21 0.05,0.36 0,0.15 -0.02,0.28 -0.05,0.37 -0.03,0.1 -0.08,0.17 -0.14,0.22 -0.07,0.04 -0.14,0.07 -0.23,0.09 -0.08,0.02 -0.18,0.03 -0.29,0.03zm4.02 1.28l-1.05 -2.99 -0.44 0 -1.05 2.99 0.42 0 0.33 -0.96 1.03 0 0.34 0.96 0.42 0zm-1.69 -1.28l0.41 -1.26 0.43 1.26 -0.84 0zm1.75 -1.42l0.35 0.01 0 2.69 0.37 0 0 -2.99 -0.72 0 0 0.29zm3.65 -0.29l-0.38 0 0 2.39 -1.74 -2.39 -0.37 0 0 2.99 0.37 0 0 -2.37 1.74 2.37 0.38 0 0 -2.99zm0.41 0.29l0.34 0.01 0 2.69 0.38 0 0 -2.99 -0.72 0 0 0.29zm3.64 -0.29l-0.37 0 0 2.39 -1.74 -2.39 -0.38 0 0 2.99 0.38 0 0 -2.37 1.74 2.37 0.37 0 0 -2.99zm2.03 0.34l0.12 -0.24c-0.07,-0.03 -0.15,-0.05 -0.22,-0.07 -0.08,-0.03 -0.16,-0.04 -0.24,-0.05 -0.08,-0.01 -0.16,-0.02 -0.25,-0.02 -0.22,0 -0.4,0.04 -0.55,0.1 -0.15,0.07 -0.27,0.17 -0.34,0.3 -0.08,0.13 -0.12,0.29 -0.12,0.48l0 1.35c0,0.19 0.04,0.35 0.13,0.47 0.08,0.12 0.2,0.22 0.35,0.28 0.15,0.06 0.32,0.09 0.51,0.09 0.09,0 0.19,-0.01 0.28,-0.03 0.09,-0.01 0.18,-0.04 0.27,-0.07 0.08,-0.04 0.15,-0.08 0.22,-0.13l0.02 0.19 0.3 0 0 -1.28 -1.02 0 0.12 0.3 0.53 0 0 0.18c0,0.08 -0.01,0.15 -0.05,0.22 -0.04,0.07 -0.09,0.12 -0.15,0.17 -0.07,0.04 -0.15,0.08 -0.23,0.1 -0.09,0.03 -0.19,0.04 -0.29,0.04 -0.14,0 -0.25,-0.02 -0.34,-0.06 -0.09,-0.04 -0.16,-0.1 -0.21,-0.18 -0.04,-0.08 -0.06,-0.18 -0.06,-0.29l0 -1.39c0,-0.13 0.02,-0.23 0.08,-0.31 0.06,-0.08 0.14,-0.14 0.25,-0.18 0.1,-0.03 0.23,-0.05 0.37,-0.05 0.06,0 0.12,0 0.18,0.01 0.05,0 0.11,0.01 0.17,0.02 0.06,0.02 0.12,0.03 0.17,0.05z"/>
   </g>
  </g>
 </g>
</svg>
