<?xml version="1.0" encoding="UTF-8"?>
<!DOCTYPE svg PUBLIC "-//W3C//DTD SVG 1.1//EN" "http://www.w3.org/Graphics/SVG/1.1/DTD/svg11.dtd">
<!-- Creator: CorelDRAW (Versão OEM) -->
<svg xmlns="http://www.w3.org/2000/svg" xml:space="preserve" width="269px" height="380px" version="1.1" style="shape-rendering:geometricPrecision; text-rendering:geometricPrecision; image-rendering:optimizeQuality; fill-rule:evenodd; clip-rule:evenodd"
viewBox="0 0 269 380.44"
 xmlns:xlink="http://www.w3.org/1999/xlink"
 xmlns:xodm="http://www.corel.com/coreldraw/odm/2003">
 <defs>
  <style type="text/css">
   <![CDATA[
    .str3 {stroke:#C86C45;stroke-width:0.26;stroke-miterlimit:22.9256}
    .str1 {stroke:#D96029;stroke-width:0.26;stroke-miterlimit:22.9256}
    .str2 {stroke:#E89A65;stroke-width:0.26;stroke-miterlimit:22.9256}
    .str0 {stroke:#EE7828;stroke-width:0.26;stroke-miterlimit:22.9256}
    .str4 {stroke:#F4924D;stroke-width:0.26;stroke-miterlimit:22.9256}
    .fil9 {fill:#C86C45}
    .fil5 {fill:#D45B23}
    .fil10 {fill:#D5D8DC}
    .fil2 {fill:#D95E26}
    .fil8 {fill:#D96029}
    .fil12 {fill:#D96029}
    .fil13 {fill:#D9884F}
    .fil18 {fill:#D9DCDD}
    .fil1 {fill:#DB5E24}
    .fil17 {fill:#E6ECF3}
    .fil16 {fill:#E89A65}
    .fil6 {fill:#E89A65}
    .fil7 {fill:#EA762A}
    .fil14 {fill:#EC924C}
    .fil3 {fill:#ED7729}
    .fil0 {fill:#EE7828}
    .fil15 {fill:#F38D49}
    .fil11 {fill:#F4924D}
    .fil4 {fill:#FCFCFC}
    .fil19 {fill:#FEFEFE;fill-rule:nonzero}
   ]]>
  </style>
 </defs>
 <g id="Camada_x0020_1">
  <metadata id="CorelCorpID_0Corel-Layer"/>
  <path class="fil0 str0" d="M124.55 61.67c3,1.89 7.56,3.77 11.46,5.65 5.49,2.63 11.64,6.35 14.32,11.43 1.93,3.66 0.58,2.6 4.99,3.6 4.81,1.08 8.78,2.98 12.75,4.73 -2.83,1.48 -18.81,-4.77 -28.73,1.53 -2.38,1.52 -5.57,5.47 -6.39,9.83 -0.94,4.99 0.38,9.93 2.25,13.59 3.48,6.78 9.71,12.56 20.55,11.85 10.44,-0.69 15.66,-7.94 20.27,-11.87 0.57,-1.15 1.11,-1.5 1.4,-2.7l1.12 -1.63c1.93,0.8 -0.4,-0.28 0.85,0.75 0.06,0.05 0.17,0.17 0.25,0.22l0.48 0.36c1.54,0.78 12.39,-4.05 13.59,-4.95 0.08,-0.06 0.21,-0.18 0.27,-0.23 0.07,-0.06 0.19,-0.16 0.28,-0.25 -0.12,-0.27 -0.45,-1.2 -0.5,-1.3l-5.65 -6.19c-5.34,-5.58 -12.39,-18.53 -13.71,-25.95 -1.45,-8.15 -2.77,-15.37 -1.71,-24.61 1.32,-11.44 4.97,-19.72 5.12,-21.04 -17.98,-0.46 -25.93,1.47 -41.96,6.21 -6.2,1.84 -28.95,11.81 -31.75,16.88 2.76,3.87 13.97,10.04 19.27,12.51 3.6,1.68 1.69,0.7 1.58,1.28 -0.15,0.7 0.57,0.04 -0.4,0.3z"/>
  <path class="fil0 str0" d="M68.44 134.92l0.43 -0.03 10.43 -3.36c9.98,-3.09 12.54,-3.34 21.95,-5.73 3.43,-0.87 7.95,-1.3 11.67,-2.18 -0.47,-1.15 -1.05,-3.53 -1.39,-4.67 -2.06,-6.81 -5.72,-13.02 -8.89,-19.18 -3.63,-7.03 -6.07,-8.35 -8.92,-13.13 -1.75,-2.93 -3.18,-3.61 -5,-5.9 -1.2,-1.52 -1.3,-1.83 -2.82,-3.04 -1.83,-1.45 -1.13,-0.93 -2.62,-2.81 -2.22,-2.79 -5.1,-3.11 -5.88,-5.02l-0.78 0.11c-0.25,0.41 -3.91,3.62 -4.72,4.46l-12.91 15.08c-6,7.21 -3.41,4.4 -7.99,10.56l-7.65 10.8c1.82,1.69 5.91,2.51 8.4,4.15 1.38,0.9 2.51,1.64 3.84,2.51 4.66,3.01 11.79,12.16 12.85,17.38z"/>
  <path class="fil1 str1" d="M68.87 134.89c0.7,4.14 3.06,8.49 3.54,13.5 0.49,5.17 -0.75,10.85 1.7,14.85 5.33,8.7 12.51,9.31 23.39,4.66 4.68,-2 10.98,-6.78 14.46,-10.42 2.61,-2.73 5.39,-7.54 5.55,-11.32 0.31,-7.36 -3.29,-17.79 -3.8,-21.74 -0.4,-0.6 -0.22,-0.44 -0.79,-0.8 -3.72,0.88 -8.24,1.31 -11.67,2.18 -9.41,2.39 -11.97,2.64 -21.95,5.73l-10.43 3.36z"/>
  <path class="fil2 str1" d="M178.54 107.68l-1.12 1.63c1.44,0.41 1.43,-1.28 0.99,1.3 0.36,-0.42 0.68,-0.76 1.27,-1.16 -0.46,2.18 -3.2,6.8 -4.45,8.73 -3.52,5.42 -7.87,9.37 -14.09,11.69 -5.88,2.19 -6.48,1.41 -8.97,2.2 -1.17,0.38 -0.36,-0.02 -1.3,0.5l-0.06 8.12c5.9,0.11 14.41,-5.47 11.24,0.88 -3.25,6.53 -2.93,3.95 -2.12,9.11 0.82,5.24 2.24,8.03 6.08,10.04 10.47,5.5 21.86,-13.45 25.31,-21.44 1.02,-2.38 3.08,-11.37 3.96,-12.31 0.72,-0.77 8.82,-5.14 10.31,-6.03l9.08 -6.19c-1.61,-0.77 -3.65,-1.57 -5.18,-2.46 -3.17,-1.85 -9.22,-4.53 -12.67,-7.73 -0.94,-0.87 -0.34,-0.17 -0.95,-1.09l-1.61 0.11c-0.09,0.09 -0.21,0.19 -0.28,0.25 -0.06,0.05 -0.19,0.17 -0.27,0.23 -1.2,0.9 -12.05,5.73 -13.59,4.95l-0.48 -0.36c-0.08,-0.05 -0.19,-0.17 -0.25,-0.22 -1.25,-1.03 1.08,0.05 -0.85,-0.75z"/>
  <path class="fil3 str0" d="M222.89 87.89c0.53,-1.6 -0.18,-0.69 2.75,-2.87 1.32,-0.98 2.12,-1.58 3.3,-2.58 2.59,-2.22 3.51,-3.18 6.39,-5.37 2.01,-1.52 4.07,-3.86 6.1,-5.65l5.45 -5.94 -1.08 -0.62 -0.66 0.11 -0.01 0.01c-1.07,0.37 -3.1,0.34 -4.18,0.35 0.54,-0.28 -0.11,-0.26 0.46,-0.6l0.59 -0.19c1.31,-0.93 3.44,-2.53 4.85,-4.91 7.76,-8.21 7.2,-6.83 1.17,-11.75 -3.92,-3.2 -8.77,-6.73 -13.06,-9.04 -3.32,-1.79 -20.67,-9.61 -23.61,-9.12 -0.51,1.23 -1.86,2.92 -3.42,6.87 -5.21,13.21 -4.72,29.71 3.8,41.29 2.06,2.8 7.79,8.53 11.16,10.01zm-1.16 -48.91c0.13,0 0.25,0 0.38,0.01 -0.61,0.68 -0.98,1.57 -0.98,2.55 0,2.11 1.7,3.81 3.8,3.81 1.6,0 2.96,-0.98 3.53,-2.37 0.59,1.09 0.93,2.33 0.93,3.65 0,4.23 -3.43,7.66 -7.66,7.66 -4.22,0 -7.65,-3.43 -7.65,-7.66 0,-4.22 3.43,-7.65 7.65,-7.65z"/>
  <path class="fil4" d="M203.21 99.81l1.18 -1.03c2.3,-0.47 8.47,-4.39 10.51,-5.72l2.27 1.11c0.92,-0.8 0.53,0.58 -0.01,-1 -0.2,-0.46 -3.93,-3.31 -4.85,-4.11 -11.9,-10.28 -16.94,-27.17 -14.4,-43.03 0.25,-1.51 0.49,-2.8 0.84,-4.2 1.99,-7.79 6.56,-13.62 8.53,-19.57 -2.06,-1.23 -15.08,-3.44 -18.16,-3.21 -2.87,7.03 -4.59,5.66 -8,20.5 -1.83,7.98 -2.07,17.69 -0.24,25.88 2.61,11.69 8.75,23.9 18.14,31.5 1.35,1.08 2.45,2.48 4.19,2.88z"/>
  <path class="fil5 str1" d="M64.52 244.05c-1.04,-0.64 -1.87,-1.63 -2.83,-2.4 -0.93,-0.76 -1.62,-1.59 -2.59,-2.36 -1.76,-1.4 -4.01,-2.78 -5.02,-5.15 -1.79,-0.83 -4.14,-5.05 -5.26,-6.73 -5.97,-8.97 -6.3,-16.78 -8.24,-26.05 -1.18,0.55 -0.32,-0.47 -0.82,1.3 -0.01,0.05 -0.29,1.97 -0.29,1.98 -0.46,3.35 -1.08,8.72 -0.34,11.76l0.45 3.89c0.13,2.43 1.63,8.1 2.28,10.06 4.92,14.85 19.39,28.2 34.01,33.17 17.98,6.1 38.78,3.01 54.43,-6.35 5.48,-3.28 9.77,-6.57 14.14,-11.12 6.33,-6.59 13.11,-16.33 17.14,-24.9 2.16,-4.58 7.84,-19.47 8.15,-25.39 -1.11,1.08 -1.44,2.07 -2.14,3.83 -3.64,9.15 -9.03,17.79 -14.28,25.94 -2.72,4.23 -12.02,15.86 -15.81,18.57 -1.46,1.04 -1.75,1.01 -3.35,2.5 -8.6,7.99 -24.46,13.29 -38.94,12.61 -6.02,-0.29 -13.75,-1.94 -18.44,-4.59 -4.64,-2.63 -10.55,-6.43 -12.25,-10.57z"/>
  <path class="fil3 str0" d="M34.81 240.21l-4.74 -10.33c-1.59,-3.64 -2.98,-7.46 -3.95,-10.94 -4.52,-16.17 -4.39,-34.88 3.11,-50.21 2.51,-5.15 5.45,-9.43 8.96,-13.65 2.33,-2.79 2.96,-2.16 3.32,-4.17 -1.37,-2.56 -3.9,-5.54 -5.89,-7.02 -2.75,-2.05 -4.88,-3.58 -8.13,-4.71l-0.52 1.01c-0.41,0.49 -0.16,-0.11 -0.96,0.81 -0.59,0.68 -1.14,2.11 -1.65,2.95 -3.2,5.28 -3.4,7 -5.44,11.73 -1,2.29 -1.87,3.71 -2.58,5.96 -3.44,11 -5.52,25.37 -2.12,37.92 1.22,4.49 0.44,5.8 3.68,13.63 2.49,6 4.85,12.13 8.86,17.34 1.15,1.5 2.36,3.55 3.58,5 1.34,1.6 3.03,3.21 4.47,4.68z"/>
  <path class="fil6 str2" d="M94.96 25.6c-0.34,2.98 -0.65,8.17 0.56,10.59 1.1,-3.18 -0.64,-11.29 6.79,-17.23 10.41,-8.33 22.68,-9.28 35.71,-6.5 3.18,0.68 14.52,4.81 15.31,7.09 -21.77,4.16 -34.07,9.59 -51.53,21.05l-2.82 1.96c1.46,0.59 1.22,1.13 3.62,3.59 0.8,0.81 0.69,-0.29 0.75,1.62l-0.4 0.02c1,1.78 2.85,3.05 4.49,4.28 1.71,1.29 2.98,2.28 5.35,3.68 2.93,1.72 8.68,5.08 11.76,5.92 0.97,-0.26 0.25,0.4 0.4,-0.3 0.11,-0.58 2.02,0.4 -1.58,-1.28 -5.3,-2.47 -16.51,-8.64 -19.27,-12.51 2.8,-5.07 25.55,-15.04 31.75,-16.88 16.03,-4.74 23.98,-6.67 41.96,-6.21 -0.15,1.32 -3.8,9.6 -5.12,21.04 -1.06,9.24 0.26,16.46 1.71,24.61 1.32,7.42 8.37,20.37 13.71,25.95l5.65 6.19c0.05,0.1 0.38,1.03 0.5,1.3l1.61 -0.11 -0.19 -1.24c-3.65,-5.36 -16.18,-12.05 -20.89,-35.81 -1.61,-8.11 -1.81,-18.47 -0.1,-26.54 3.07,-14.56 5.81,-15.5 7.41,-21.24 -0.36,-0.25 -0.04,-0.24 -1.14,-0.79 -4.65,0.21 -10.05,0.04 -14.84,0.11 -7.67,0.11 -5.81,1.55 -11.55,-2.67 -17.01,-12.49 -42.32,-14.05 -54.81,0.21 -1.53,1.75 -4.7,6.76 -4.8,10.1z"/>
  <path class="fil7 str0" d="M64.52 244.05c1.7,4.14 7.61,7.94 12.25,10.57 4.69,2.65 12.42,4.3 18.44,4.59 14.48,0.68 30.34,-4.62 38.94,-12.61 1.6,-1.49 1.89,-1.46 3.35,-2.5 3.79,-2.71 13.09,-14.34 15.81,-18.57 5.25,-8.15 10.64,-16.79 14.28,-25.94 0.7,-1.76 1.03,-2.75 2.14,-3.83 0.13,-2.4 0.6,-1.21 0,-3.36 -2.3,3.36 -16.58,14.7 -19.77,16.67l-11.66 6.91c-1.89,0.8 -11.44,4.74 -12.31,5.63 7.88,4.24 19.92,-1.14 16.62,5.4 -1.84,3.65 -8.44,10.84 -11.73,13.61 -11.33,9.59 -30.44,15.16 -45.03,11.78 -4.13,-0.95 -13.22,-3.73 -16.62,-5.68 -1.48,-0.85 -2.63,-1.94 -4.71,-2.67z"/>
  <path class="fil8 str1" d="M95.83 24.79c-2.73,3.83 0.12,16.03 2.6,18.24 0.28,-0.68 -0.12,-0.74 0.55,-0.47l2.82 -1.96c17.46,-11.46 29.76,-16.89 51.53,-21.05 -0.79,-2.28 -12.13,-6.41 -15.31,-7.09 -13.03,-2.78 -25.3,-1.83 -35.71,6.5 -7.43,5.94 -5.53,13.24 -6.63,16.43 -1.22,-2.42 -0.19,-7.61 0.15,-10.6z"/>
  <path class="fil2 str1" d="M34.81 240.21c0.95,1.27 0.23,0.83 2.33,1.11 -0.53,-2.54 -2.31,-5.73 -3.3,-8.29 -3.08,-7.96 -4.21,-23.22 -2.51,-31.07 0.63,-2.93 2.4,-11.29 3.5,-13.74 0.27,-0.61 1.43,-2.83 1.97,-3.87 1.41,-2.73 2.62,-5.25 4.15,-7.57l5.13 -6.43c0.33,-8.19 0.1,-8.74 -2.4,-15.49 -0.89,-2.41 -0.61,-2.71 -2.17,-3.95 -0.36,2.01 -0.99,1.38 -3.32,4.17 -3.51,4.22 -6.45,8.5 -8.96,13.65 -7.5,15.33 -7.63,34.04 -3.11,50.21 0.97,3.48 2.36,7.3 3.95,10.94l4.74 10.33z"/>
  <path class="fil8 str1" d="M35.78 107.08l2.25 2.44c1.44,-0.45 2.15,-2.37 4.05,-5.28l24.52 -32.43c1.74,-1.88 3.8,-3.57 4.56,-5.24l-1.68 -0.44c-16.51,-1.35 -32.7,7.18 -36.02,24.04 -0.62,3.14 -0.18,6.44 0.13,9.6 0.37,3.8 1.19,4.32 2.19,7.31z"/>
  <path class="fil2 str1" d="M246.88 65.48l-5.45 5.94c-2.03,1.79 -4.09,4.13 -6.1,5.65 -2.88,2.19 -3.8,3.15 -6.39,5.37 -1.18,1 -1.98,1.6 -3.3,2.58 -2.93,2.18 -2.22,1.27 -2.75,2.87 3.57,2.7 11.04,5.17 16.65,5.58 1.49,-2.71 -0.17,0.22 1.65,-1.53 2.39,-2.31 6.2,-9.38 6.75,-9.64 3.3,-7.37 7.12,-10.43 8.7,-21.37 -2.26,0.52 -3.02,1.46 -4.83,2.33 -1.5,0.72 -3.08,1.54 -4.93,2.22z"/>
  <path class="fil9 str1" d="M172.03 190.91l-2.3 1.49c0.6,2.15 0.13,0.96 0,3.36 -0.31,5.92 -5.99,20.81 -8.15,25.39 -4.03,8.57 -10.81,18.31 -17.14,24.9 -4.37,4.55 -8.66,7.84 -14.14,11.12 -15.65,9.36 -36.45,12.45 -54.43,6.35 -14.62,-4.97 -29.09,-18.32 -34.01,-33.17 -0.65,-1.96 -2.15,-7.63 -2.28,-10.06l-0.45 -3.89c-0.74,-3.04 -0.12,-8.41 0.34,-11.76 0,-0.01 0.28,-1.93 0.29,-1.98 0.5,-1.77 -0.36,-0.75 0.82,-1.3 1.94,9.27 2.27,17.08 8.24,26.05 1.12,1.68 3.47,5.9 5.26,6.73l0.86 0.02c-1.88,-4.41 -13.4,-14.66 -13.06,-36.48l0.33 -5.38c-0.01,-0.08 -0.05,-0.22 -0.07,-0.29 -0.01,-0.07 -0.08,-0.23 -0.09,-0.29 -0.02,-0.05 -0.06,-0.19 -0.11,-0.27 -1.6,2.51 -3.51,10.41 -4,14.02 -2.05,15.05 3.43,31.65 12.63,41.9 13.77,15.34 29.93,22.28 51.91,20.18 30.13,-2.89 50.28,-23.63 61.17,-47.92 2.89,-6.44 7.79,-21.32 8.38,-28.72z"/>
  <path class="fil10" d="M121.3 122.63c0.51,3.84 2.02,8.31 2.77,12.45 0.7,3.78 1.34,6.82 1.81,10.88l16.65 -2.65c-0.56,-2.13 -0.4,-1.82 -0.28,-3.96 0.66,-11.72 2.23,-8.21 -2.91,-10.36 -2.22,-0.92 -6.43,-3.88 -8.16,-5.32 -1.02,-0.85 -0.95,0.14 -1.85,-1.9 -1.32,-0.62 -6.87,0.08 -8.03,0.86z"/>
  <path class="fil11" d="M55.45 117.44c-1.27,-0.82 -2.55,-1.69 -3.83,-2.5 -2.29,-1.43 -5.18,-2.04 -7.44,-3.41 -1.11,-0.68 -0.56,-1.06 0.09,-1.95 2.57,-3.54 5.04,-7.16 7.62,-10.7 0.96,-1.31 1.82,-2.62 2.75,-3.93 1.28,-1.8 2.91,-3.71 4.32,-5.4 1.38,-1.64 2.8,-3.27 4.2,-4.9 2.88,-3.36 5.75,-6.74 8.64,-10.09 0.56,-0.65 1.63,-1.56 2.28,-2.16 0.75,-0.68 1.77,-1.55 2.44,-2.29 0.17,-0.19 0.13,-0.12 -0.17,-0.42 -1.06,-1.04 -2.24,-1.82 -3.63,-2.36 -1.22,-0.46 -0.72,-0.68 -1.08,-1.58 -0.22,-0.53 -1.37,-0.17 -1.89,-0.15 -1.03,0.05 -2.34,-0.35 -3.46,-0.44 -0.38,-0.03 -0.59,-0.08 -0.13,0.13 0.2,0.09 2.88,0.72 3.24,0.81 0.27,0.07 1.46,0.32 1.59,0.53 0.37,0.65 -3.84,4.53 -4.38,5.18 -0.67,0.78 -1.41,1.84 -2.04,2.68 -5.15,6.81 -10.3,13.62 -15.45,20.43 -0.61,0.81 -1.22,1.62 -1.83,2.42 -1.7,2.25 -3.45,4.51 -5.12,6.77 -0.96,1.31 -2.34,4.3 -3.58,5.13 -0.56,0.37 -0.68,0.21 0.12,0.71 1.48,0.91 2.93,1.88 4.53,2.55 2.78,1.16 5.34,2 7.99,3.52 5.36,3.1 10.3,7.74 13.28,13.2 0.44,0.8 2.58,5.09 3.05,5.37 0.38,0.22 1.28,-0.03 0.9,0.29 -0.03,-0.05 -0.4,-1.34 -0.49,-1.57 -1.89,-5.19 -7.89,-12.83 -12.52,-15.87z"/>
  <path class="fil12" d="M41.51 150.91c1.56,1.24 1.28,1.54 2.17,3.95 2.5,6.75 2.73,7.3 2.4,15.49 -1.63,2.05 -3.33,4.12 -4.92,6.18 -1.31,1.69 -2.82,4.81 -3.82,6.77 -0.81,1.58 -1.74,3.25 -2.48,4.84 -0.76,1.65 -1.5,4.85 -1.93,6.68 -0.59,2.45 -1.18,5.03 -1.68,7.51 -1.63,8.15 -0.38,22.94 2.59,30.7 0.99,2.56 2.77,5.75 3.3,8.29 -2.1,-0.28 -1.38,0.16 -2.33,-1.11 -1.44,-1.47 -3.13,-3.08 -4.47,-4.68 -1.22,-1.45 -2.43,-3.5 -3.58,-5 -4.01,-5.21 -6.37,-11.34 -8.86,-17.34 -3.24,-7.83 -2.46,-9.14 -3.68,-13.63 -3.2,-12.98 -1.68,-25.28 2.12,-37.92 0.71,-2.25 1.58,-3.67 2.58,-5.96 2.04,-4.73 2.24,-6.45 5.44,-11.73 0.51,-0.84 1.06,-2.27 1.65,-2.95 0.8,-0.92 0.55,-0.32 0.96,-0.81l0.52 -1.01c3.25,1.13 5.38,2.66 8.13,4.71 1.99,1.48 4.52,4.46 5.89,7.02zm-5.93 84.34c-6.58,-15.52 -5.42,-35.12 1.91,-50.18 2.16,-4.44 4.2,-7.86 7.23,-11.71 2.28,-2.91 2.85,-3.95 2.66,-7.79 -0.44,-8.29 -3.93,-15.54 -9.08,-20.76 -3.38,-3.43 -6.52,-5.94 -12.74,-7.19l-3 -0.04 -0.5 0.8c-0.76,2.88 -2.08,5.38 -3.26,8.16 -1.2,2.82 -1.96,5.52 -2.91,8.3 -2.03,6.06 -3.21,10.89 -3.88,17.26 -0.22,2.15 -0.82,3.97 -0.94,6.17 -0.19,3.43 0.08,7.12 0.34,10.56 0.12,1.49 0.25,2.97 0.4,4.46 0.19,1.87 0.42,3.72 0.75,5.57l0.04 0.21c2.46,13.17 8.72,26.81 16.5,36.78 2.62,3.35 4.89,5.92 7.99,8.8 1.75,1.62 3.44,3.18 5.14,4.85 0.76,0.74 1.55,1.18 2.34,1.93 0.12,0.12 0.85,0.79 0.96,0.82 0,0.01 0.44,0.02 0.46,-0.01 0.07,-0.07 0.02,-0.77 0,-0.81 -0.09,-0.22 -1.36,-1.34 -1.63,-1.64 -0.62,-0.67 -1.34,-1.56 -1.92,-2.28 -2.32,-2.89 -5.37,-8.79 -6.86,-12.26z"/>
  <path class="fil9 str3" d="M195.87 103.47c0.61,0.92 0.01,0.22 0.95,1.09 3.45,3.2 9.5,5.88 12.67,7.73 1.53,0.89 3.57,1.69 5.18,2.46l-9.08 6.19c-1.49,0.89 -9.59,5.26 -10.31,6.03 -0.88,0.94 -2.94,9.93 -3.96,12.31 -3.45,7.99 -14.84,26.94 -25.31,21.44 -3.84,-2.01 -5.26,-4.8 -6.08,-10.04 -0.81,-5.16 -1.13,-2.58 2.12,-9.11 3.17,-6.35 -5.34,-0.77 -11.24,-0.88l0.06 -8.12c0.94,-0.52 0.13,-0.12 1.3,-0.5 2.49,-0.79 3.09,-0.01 8.97,-2.2 6.22,-2.32 10.57,-6.27 14.09,-11.69 1.25,-1.93 3.99,-6.55 4.45,-8.73 -0.59,0.4 -0.91,0.74 -1.27,1.16 0.44,-2.58 0.45,-0.89 -0.99,-1.3 -0.29,1.2 -0.83,1.55 -1.4,2.7l1.06 -0.38 -0.49 1.2c-1.05,4.83 -6.73,10.37 -9.85,12.67 -7.45,5.5 -15.32,4.48 -16.42,5.49 -1.68,2.67 -1.27,7.96 -0.68,11.37l0.99 -0.07 6.52 -1.33 3.34 -0.71 -0.34 1.88c-1.6,4.49 -3.08,7.29 -0.83,13.11 5.92,15.34 27.12,7.05 35.49,-22.5 2.33,-8.22 1,-3.82 12.82,-11.49 3.31,-2.15 6.54,-4.88 9.68,-6.6l-0.28 -0.97c-7.39,-1.19 -15,-7.17 -20.37,-10.83 -0.68,-0.47 -0.04,-0.12 -0.98,-0.62l0.19 1.24z"/>
  <path class="fil10" d="M204.39 98.78c0.14,2.69 -1.39,0.65 1.87,2.18 4.51,2.12 11.94,6.92 17.73,6.9l1.79 -1.48c0.64,-0.34 0.83,-0.33 1.2,-0.54 0.9,-0.49 0.45,-0.22 1.05,-0.77 1.32,-1.19 2.33,-2.61 3.88,-3.25 -1.36,-1.62 -0.43,-0.74 -2.69,-1.64 -0.76,-0.3 -1.5,-0.54 -2.34,-0.84 -1.69,-0.62 -2.34,-1.29 -4.54,-1.82 0.98,-0.62 -1.22,-1 1.45,-0.43 -1.23,-1.33 -4.91,-3.19 -6.63,-3.92 0.54,1.58 0.93,0.2 0.01,1l-2.27 -1.11c-2.04,1.33 -8.21,5.25 -10.51,5.72z"/>
  <path class="fil13" d="M124.67 220.86l-1.82 1.33 2.36 0.5c3.04,2.09 12.44,1.95 17.25,1.91 -1.98,6.09 -11.29,14.65 -16.09,17.84 -6.45,4.28 -14.05,8.07 -23.55,9.32 -13.87,1.83 -29.04,-1.91 -39.28,-10.15l-8.6 -7.45 -0.86 -0.02c1.01,2.37 3.26,3.75 5.02,5.15 0.97,0.77 1.66,1.6 2.59,2.36 0.96,0.77 1.79,1.76 2.83,2.4 2.08,0.73 3.23,1.82 4.71,2.67 3.4,1.95 12.49,4.73 16.62,5.68 14.59,3.38 33.7,-2.19 45.03,-11.78 3.29,-2.77 9.89,-9.96 11.73,-13.61 3.3,-6.54 -8.74,-1.16 -16.62,-5.4 0.87,-0.89 10.42,-4.83 12.31,-5.63l11.66 -6.91c3.19,-1.97 17.47,-13.31 19.77,-16.67l2.3 -1.49 0.3 -2.56c-1.77,0.89 -7.46,7.23 -10.74,10.23 -11.54,10.56 -21.64,16.01 -36.92,22.28z"/>
  <path class="fil14" d="M211.35 29.72c2.94,-0.49 20.29,7.33 23.61,9.12 4.29,2.31 9.14,5.84 13.06,9.04 6.03,4.92 6.59,3.54 -1.17,11.75 -2.44,2.58 -8.28,5.04 -5.9,5.7l1.49 -0.91c0.91,-0.75 2.08,-1.29 3.03,-2.04 0.99,-0.77 2.01,-1.69 3.14,-2.75 1.32,-1.24 2.89,-2.89 4.04,-4.51 0.45,-0.69 0.86,-1.41 1.22,-2.14 2.92,-4.41 -3.1,-8.72 -5.31,-10.63 -7.85,-6.73 -25.87,-17.25 -35.23,-18.45 -0.67,1.55 -1.84,2.98 -2.48,4.59 -0.08,0.09 -0.18,0.21 -0.22,0.27l-0.42 0.54c-0.06,0.08 -0.14,0.19 -0.2,0.28 -3,4.57 -5.8,14.62 -6.29,19.73 -1.39,14.63 3.74,29.54 15.85,37.88 4.2,2.9 13.55,7.59 19.71,7.48 1.53,-1.14 3.88,-3.98 5.08,-5.51 3.35,-4.23 8.73,-12.87 10.51,-17.34 1.46,-3.69 3.16,-9.04 2.92,-13.03 -1.59,0.27 -4.3,2.27 -5.89,3.17 -1.07,0.6 -2.01,1.09 -3.1,1.47 -0.34,0.12 -1.2,0.47 -1.53,0.62l-1.47 0.81 1.08 0.62c1.85,-0.68 3.43,-1.5 4.93,-2.22 1.81,-0.87 2.57,-1.81 4.83,-2.33 -0.8,5.51 -2.08,9.21 -4.78,14.02 -1.33,2.36 -2.62,4.52 -3.76,6.99 -0.23,0.51 -0.27,0.41 -0.58,0.81 -0.97,1.26 -1.86,2.69 -2.78,4.01 -1.91,2.73 -3.64,3.87 -5.2,6.71 -5.61,-0.41 -13.08,-2.88 -16.65,-5.58 -3.37,-1.48 -9.1,-7.21 -11.16,-10.01 -8.52,-11.58 -9.01,-28.08 -3.8,-41.29 1.56,-3.95 2.91,-5.64 3.42,-6.87z"/>
  <path class="fil15 str4" d="M35.78 107.08c-1,-2.99 -1.82,-3.51 -2.19,-7.31 -0.31,-3.16 -0.75,-6.46 -0.13,-9.6 3.32,-16.86 19.51,-25.39 36.02,-24.04 -0.11,-0.05 -1.52,-0.4 -1.67,-0.43 -0.16,-0.04 -0.63,-0.15 -0.79,-0.19 -1.25,-0.34 -0.57,-0.09 -1.15,-0.38 -4.77,-1.65 -13.99,0.85 -18.33,2.6 -6.64,2.69 -5.53,3.23 -8.38,5.12 -6.22,4.12 -9.98,10.61 -10.02,19.49 -0.05,8.69 3.29,10.02 6.64,14.74z"/>
  <path class="fil9 str3" d="M113.71 124.42c0.51,3.95 4.11,14.38 3.8,21.74 -0.16,3.78 -2.94,8.59 -5.55,11.32 -3.48,3.64 -9.78,8.42 -14.46,10.42 -10.88,4.65 -18.06,4.04 -23.39,-4.66 -2.45,-4 -1.21,-9.68 -1.7,-14.85 -0.48,-5.01 -2.84,-9.36 -3.54,-13.5l-0.43 0.03c0.26,-0.45 0.11,-0.04 -0.92,-0.32 1.21,5.57 2.95,7.96 3.59,14.9 0.58,6.27 -0.68,10.18 2.36,15.26 5.48,9.12 15.19,8.22 24.88,3.96 7.46,-3.27 14.85,-9.43 18.81,-16.44 2.77,-4.9 1.64,-9.12 0.6,-15.11l-3.6 -14.22c-0.01,0.15 -0.13,0.83 -0.16,0.94 -0.02,0.09 -0.12,0.36 -0.13,0.31 -0.02,-0.04 -0.11,0.15 -0.16,0.22z"/>
  <path class="fil16 str2" d="M41.78 111.81l-3.75 -2.29 -2.25 -2.44c-3.35,-4.72 -6.69,-6.05 -6.64,-14.74 0.04,-8.88 3.8,-15.37 10.02,-19.49 2.85,-1.89 1.74,-2.43 8.38,-5.12 4.34,-1.75 13.56,-4.25 18.33,-2.6 2.41,0.12 3.07,0.82 5.23,0.28 -4.82,-4.05 -27.65,-2.29 -38.09,11.66 -6.39,8.55 -7.3,20.48 0.34,29.28 2.22,2.56 3.77,4.72 8.43,5.46z"/>
  <path class="fil13" d="M112.92 123.62c0.57,0.36 0.39,0.2 0.79,0.8 0.05,-0.07 0.14,-0.26 0.16,-0.22 0.01,0.05 0.11,-0.22 0.13,-0.31 0.03,-0.11 0.15,-0.79 0.16,-0.94 -0.05,-2.49 -4.92,-13.45 -6.29,-16.15 -2.54,-5.02 -5.26,-10.22 -8.27,-14.32 -5.79,-7.9 -13.82,-18.55 -21.91,-23.4l-0.29 0.79c0.78,1.91 3.66,2.23 5.88,5.02 1.49,1.88 0.79,1.36 2.62,2.81 1.52,1.21 1.62,1.52 2.82,3.04 1.82,2.29 3.25,2.97 5,5.9 2.85,4.78 5.29,6.1 8.92,13.13 3.17,6.16 6.83,12.37 8.89,19.18 0.34,1.14 0.92,3.52 1.39,4.67z"/>
  <path class="fil17" d="M204.39 98.78l-1.18 1.03c2.07,3.13 11.54,6.85 16.21,8.38 5.01,1.63 4.82,1.36 8.09,-1.41 2.37,-2.01 3.98,-4.39 6.15,-5.91 -0.54,-1.32 -3.14,-1.49 -4.52,-1.97 -1.87,-0.64 -3.42,-1.59 -5.35,-1.81 -2.67,-0.57 -0.47,-0.19 -1.45,0.43 2.2,0.53 2.85,1.2 4.54,1.82 0.84,0.3 1.58,0.54 2.34,0.84 2.26,0.9 1.33,0.02 2.69,1.64 -1.55,0.64 -2.56,2.06 -3.88,3.25 -0.6,0.55 -0.15,0.28 -1.05,0.77 -0.37,0.21 -0.56,0.2 -1.2,0.54l-1.79 1.48c-5.79,0.02 -13.22,-4.78 -17.73,-6.9 -3.26,-1.53 -1.73,0.51 -1.87,-2.18z"/>
  <path class="fil6 str2" d="M76.62 69.98l0.78 -0.11 0.29 -0.79c-1.39,-1.27 -3.64,-2.92 -6.01,-3.56l0.16 1.52c1.78,0.38 3.75,1.81 4.78,2.94z"/>
  <path class="fil6 str2" d="M102.95 47.79l0.4 -0.02c-0.06,-1.91 0.05,-0.81 -0.75,-1.62 -2.4,-2.46 -2.16,-3 -3.62,-3.59 -0.67,-0.27 -0.27,-0.21 -0.55,0.47 0.46,1.11 3.23,4.31 4.52,4.76z"/>
  <polygon class="fil18" points="48.61,145.96 55.79,139.39 61.5,138.34 63.53,142.55 64.73,148.53 64.86,156.62 59.27,159.55 53.83,163.63 51.07,153.18 48.78,147.54 "/>
  <path class="fil4" d="M57.76 159.68c-0.45,0.34 -3.18,2.55 -3.58,2.18 -0.51,-0.47 -0.99,-4.29 -1.45,-5.38 -0.52,-1.24 -0.82,-2.64 -1.29,-3.93 -0.55,-1.52 -1.18,-2.79 -1.82,-4.25 -0.8,-1.83 -0.05,-2.24 1.33,-3.3 1.51,-1.17 8.78,-6.93 10.41,-5.76 0.95,0.68 1.11,3.24 1.4,4.41 0.95,3.92 1.84,6.69 1.6,10.85 -0.04,0.7 -0.1,1.91 -0.74,2.34 -0.92,0.61 -2.99,1.25 -4.12,1.77 -0.64,0.32 -1.17,0.65 -1.74,1.07zm-22.69 -42.78c-2.08,0 -3.1,3.01 -5.07,6.43 -0.54,0.95 -4.13,7.25 -3.98,7.86 0.12,0.52 3.47,1.35 4.05,1.52 6.17,1.85 9.62,4.47 13.9,9.19 3.67,4.13 6.36,9.07 7.69,14.44 0.54,2.2 1.17,4.43 1.44,6.68 0.05,0.37 0.09,1.08 0.51,1.2 1.32,-0.05 1.92,-1.23 2.87,-2.05 2.76,-2.22 5.24,-3.13 8.34,-4.64 1.13,-0.54 0.77,-0.78 0.75,-1.95 -0.2,-8.59 -1.03,-12.08 -4.31,-20.04 -0.66,-1.62 -1.35,-2.81 -2.37,-4.23 -1.9,-2.57 -4.76,-5.81 -7.33,-7.71 -4.94,-3.66 -10.25,-6.37 -16.49,-6.7z"/>
  <path class="fil4" d="M122 123.02c1.19,-0.69 5.62,-1.15 6.85,-0.56 0.68,0.33 1.35,1.19 1.97,1.7 0.86,0.69 1.88,1.44 2.78,2.08 2.49,1.76 4.4,2.72 7.29,3.73 1.62,0.57 1.46,1.32 1.36,2.83 -0.07,1.16 -0.21,2.31 -0.31,3.47 -0.12,1.32 -0.21,2.64 -0.28,3.97 -0.13,2.14 -0.35,0.65 0.22,2.77l-15.46 2.53c-0.47,-4.06 -1.18,-7.75 -1.87,-11.53 -0.76,-4.14 -2.04,-7.15 -2.55,-10.99zm1.92 -12.39c-5.88,-22.68 13.93,-30.42 20.01,-29.02 0.46,-0.79 0.26,-0.31 0.34,-1.33 -5.54,-4.61 -4.4,-4.51 -12.44,-8.28 -14.15,-6.63 -29.43,-12.67 -38.48,-25.16 -3.25,1.45 -14.34,12.06 -16.17,14.3 2.97,2.72 7.79,4.78 14.39,11.79 10.38,11.01 20.74,26.19 25.82,40.22 0.8,2.22 2.71,8.45 3.44,9.71 1.75,8.79 3.4,14.42 4.05,23.87l17.93 -2.88c0.49,-4.36 0.82,-8.79 0.9,-13.19 0,-0.17 0.05,-0.86 -0.12,-0.94 -0.22,-0.11 -1.15,-0.36 -1.44,-0.45 -1,-0.3 -1.52,-0.49 -2.46,-0.96 -0.91,-0.46 -1.84,-0.96 -2.75,-1.44 -1.81,-0.96 -2.91,-1.83 -4.48,-3.1 -0.66,-0.54 -1.34,-1.04 -1.99,-1.57 -0.97,-0.79 -0.93,-1.24 -1.62,-2.21 -1.62,-2.29 -2.84,-3.8 -3.96,-6.45 -0.4,-0.97 -0.7,-1.9 -0.97,-2.91z"/>
  <polygon class="fil18" points="48.61,145.96 55.79,139.39 61.5,138.34 63.53,142.55 64.73,148.53 64.86,156.62 59.27,159.55 53.83,163.63 51.07,153.18 48.78,147.54 "/>
  <path class="fil4" d="M57.76 159.68c-0.45,0.34 -3.18,2.55 -3.58,2.18 -0.51,-0.47 -0.99,-4.29 -1.45,-5.38 -0.52,-1.24 -0.82,-2.64 -1.29,-3.93 -0.55,-1.52 -1.18,-2.79 -1.82,-4.25 -0.8,-1.83 -0.05,-2.24 1.33,-3.3 1.51,-1.17 8.78,-6.93 10.41,-5.76 0.95,0.68 1.11,3.24 1.4,4.41 0.95,3.92 1.84,6.69 1.6,10.85 -0.04,0.7 -0.1,1.91 -0.74,2.34 -0.92,0.61 -2.99,1.25 -4.12,1.77 -0.64,0.32 -1.17,0.65 -1.74,1.07zm-22.69 -42.78c-2.08,0 -3.1,3.01 -5.07,6.43 -0.54,0.95 -4.13,7.25 -3.98,7.86 0.12,0.52 3.47,1.35 4.05,1.52 6.17,1.85 9.62,4.47 13.9,9.19 3.67,4.13 6.36,9.07 7.69,14.44 0.54,2.2 1.17,4.43 1.44,6.68 0.05,0.37 0.09,1.08 0.51,1.2 1.32,-0.05 1.92,-1.23 2.87,-2.05 2.76,-2.22 5.24,-3.13 8.34,-4.64 1.13,-0.54 0.77,-0.78 0.75,-1.95 -0.2,-8.59 -1.03,-12.08 -4.31,-20.04 -0.66,-1.62 -1.35,-2.81 -2.37,-4.23 -1.9,-2.57 -4.76,-5.81 -7.33,-7.71 -4.94,-3.66 -10.25,-6.37 -16.49,-6.7z"/>
  <path class="fil19" d="M70.62 283.32l-13.6 0 0 50.14 -32.93 -50.14 -13.49 0 0 71.77 13.49 0 0 -48.6 32.93 48.6 13.6 0 0 -71.77zm10.45 71.77l40.46 0 0 -10.36 -26.97 0 0 -21.32 12.88 0 3.76 -10.77 -16.64 0 0 -18.04 27.21 0 0 -11.28 -40.7 0 0 71.77zm64.15 -71.77l-13.48 0 0 71.77 13.48 0 0 -37.94 14.1 37.94 10.08 0 14.34 -38.04 0 38.04 13.36 0 0 -71.77 -13.36 0 -19.44 50.44 -19.08 -50.44zm61.72 19.69l0 33.01c0,4.44 1.16,8.17 3.46,11.17 2.31,3.01 5.41,5.26 9.3,6.77 3.89,1.5 8.22,2.25 13,2.25 5.1,0 9.58,-0.8 13.42,-2.41 3.85,-1.6 6.83,-3.93 8.93,-6.97 2.11,-3.04 3.16,-6.64 3.16,-10.81l0 -32.91c0,-6.7 -2.22,-11.96 -6.68,-15.79 -4.45,-3.82 -10.69,-5.74 -18.71,-5.74 -8.02,0 -14.34,1.83 -18.95,5.49 -4.62,3.65 -6.93,8.97 -6.93,15.94zm13.49 30.96l0 -27.68c0,-2.94 0.42,-5.35 1.27,-7.23 0.85,-1.88 2.17,-3.26 3.95,-4.15 1.78,-0.89 4.09,-1.33 6.93,-1.33 3.08,0 5.51,0.46 7.29,1.38 1.78,0.92 3.03,2.31 3.76,4.15 0.73,1.85 1.1,4.24 1.1,7.18l0 27.58c0,2.11 -0.49,3.99 -1.46,5.63 -0.97,1.64 -2.35,2.91 -4.13,3.8 -1.78,0.89 -3.97,1.33 -6.56,1.33 -2.59,0 -4.8,-0.43 -6.62,-1.28 -1.83,-0.86 -3.2,-2.09 -4.14,-3.69 -0.93,-1.61 -1.39,-3.51 -1.39,-5.69z"/>
  <path class="fil19" d="M14.8 364.15l-4.2 0 0 10.76 1.37 0 0 -3.52 2.83 0c0.57,0 1.08,-0.06 1.55,-0.17 0.46,-0.12 0.85,-0.32 1.18,-0.6 0.33,-0.27 0.58,-0.65 0.76,-1.12 0.17,-0.47 0.26,-1.06 0.26,-1.77 0,-0.68 -0.09,-1.26 -0.27,-1.73 -0.19,-0.46 -0.45,-0.83 -0.79,-1.1 -0.34,-0.26 -0.73,-0.46 -1.19,-0.57 -0.46,-0.12 -0.96,-0.18 -1.5,-0.18zm-2.83 6.15l0 -5.04 2.64 0c0.39,0 0.74,0.03 1.06,0.1 0.32,0.06 0.59,0.18 0.81,0.35 0.23,0.17 0.4,0.42 0.51,0.75 0.12,0.32 0.18,0.75 0.18,1.27 0,0.57 -0.06,1.02 -0.18,1.36 -0.11,0.35 -0.29,0.6 -0.52,0.77 -0.23,0.17 -0.5,0.29 -0.81,0.35 -0.31,0.06 -0.66,0.09 -1.05,0.09l-2.64 0zm14.54 -1.74l-5.13 0 0 -4.41 -1.37 0 0 10.76 1.37 0 0 -5.24 5.13 0 0 5.24 1.35 0 0 -10.76 -1.35 0 0 4.41zm2.85 -3.36l1.24 0.03 0 9.68 1.35 0 0 -10.76 -2.59 0 0 1.05zm11.22 0.33l0.4 -0.95c-0.29,-0.13 -0.59,-0.24 -0.91,-0.32 -0.31,-0.08 -0.63,-0.15 -0.94,-0.19 -0.32,-0.04 -0.65,-0.06 -0.99,-0.06 -0.48,0 -0.97,0.05 -1.45,0.14 -0.48,0.09 -0.92,0.24 -1.32,0.45 -0.4,0.2 -0.72,0.47 -0.96,0.82 -0.25,0.34 -0.37,0.75 -0.37,1.24 0,0.4 0.09,0.74 0.27,1.04 0.19,0.3 0.44,0.56 0.75,0.78 0.32,0.22 0.68,0.42 1.08,0.59 0.4,0.17 0.8,0.33 1.22,0.48 0.41,0.14 0.81,0.29 1.21,0.44 0.39,0.16 0.75,0.33 1.07,0.51 0.31,0.19 0.56,0.4 0.75,0.63 0.19,0.24 0.28,0.52 0.28,0.85 0,0.36 -0.08,0.67 -0.24,0.93 -0.17,0.26 -0.39,0.47 -0.67,0.63 -0.28,0.16 -0.6,0.27 -0.95,0.35 -0.36,0.08 -0.73,0.12 -1.11,0.12 -0.4,0 -0.82,-0.05 -1.25,-0.14 -0.44,-0.09 -0.85,-0.23 -1.24,-0.41 -0.39,-0.18 -0.72,-0.41 -0.99,-0.68l-0.78 0.73c0.36,0.36 0.77,0.66 1.22,0.9 0.45,0.23 0.94,0.41 1.46,0.52 0.52,0.11 1.06,0.17 1.62,0.17 0.56,0 1.1,-0.06 1.62,-0.18 0.52,-0.12 1,-0.3 1.41,-0.54 0.42,-0.25 0.76,-0.57 1,-0.95 0.24,-0.38 0.36,-0.84 0.36,-1.38 0,-0.46 -0.09,-0.86 -0.28,-1.2 -0.19,-0.35 -0.44,-0.64 -0.77,-0.89 -0.32,-0.24 -0.68,-0.46 -1.07,-0.64 -0.4,-0.19 -0.81,-0.35 -1.23,-0.5 -0.43,-0.15 -0.84,-0.3 -1.23,-0.44 -0.4,-0.15 -0.75,-0.3 -1.08,-0.46 -0.32,-0.17 -0.57,-0.35 -0.76,-0.56 -0.19,-0.21 -0.28,-0.47 -0.28,-0.77 0,-0.29 0.08,-0.54 0.25,-0.73 0.17,-0.2 0.4,-0.35 0.68,-0.46 0.27,-0.12 0.57,-0.2 0.89,-0.24 0.31,-0.05 0.61,-0.07 0.89,-0.07 0.29,0 0.58,0.01 0.86,0.04 0.28,0.03 0.55,0.08 0.82,0.15 0.27,0.07 0.52,0.15 0.76,0.25zm9.55 3.03l-5.14 0 0 -4.41 -1.36 0 0 10.76 1.36 0 0 -5.24 5.14 0 0 5.24 1.35 0 0 -10.76 -1.35 0 0 4.41zm2.85 -3.36l1.24 0.03 0 9.68 1.34 0 0 -10.76 -2.58 0 0 1.05zm13.14 -1.05l-1.35 0 0 8.63 -6.27 -8.63 -1.37 0 0 10.76 1.37 0 0 -8.55 6.27 8.55 1.35 0 0 -10.76zm7.32 1.23l0.42 -0.86c-0.25,-0.11 -0.52,-0.21 -0.8,-0.29 -0.28,-0.07 -0.57,-0.13 -0.86,-0.16 -0.29,-0.04 -0.59,-0.06 -0.91,-0.06 -0.78,0 -1.44,0.12 -1.98,0.36 -0.54,0.24 -0.95,0.6 -1.23,1.07 -0.29,0.47 -0.43,1.05 -0.43,1.72l0 4.89c0,0.68 0.15,1.24 0.46,1.69 0.31,0.44 0.74,0.78 1.28,1 0.54,0.22 1.15,0.33 1.85,0.33 0.33,0 0.66,-0.03 1,-0.09 0.34,-0.07 0.66,-0.16 0.97,-0.28 0.3,-0.12 0.56,-0.27 0.78,-0.45l0.07 0.66 1.1 0 0 -4.61 -3.69 0 0.46 1.09 1.91 0 0 0.65c0,0.29 -0.06,0.55 -0.2,0.79 -0.13,0.24 -0.32,0.44 -0.55,0.61 -0.24,0.16 -0.52,0.29 -0.83,0.38 -0.32,0.09 -0.66,0.14 -1.04,0.14 -0.49,0 -0.89,-0.07 -1.22,-0.22 -0.33,-0.15 -0.58,-0.37 -0.74,-0.66 -0.16,-0.28 -0.25,-0.63 -0.25,-1.04l0 -5c0,-0.47 0.11,-0.85 0.31,-1.14 0.21,-0.28 0.5,-0.49 0.89,-0.63 0.38,-0.13 0.83,-0.2 1.36,-0.2 0.2,0 0.41,0.01 0.61,0.03 0.21,0.02 0.42,0.06 0.63,0.1 0.22,0.05 0.43,0.11 0.63,0.18zm15.07 0.15l0.4 -0.95c-0.29,-0.13 -0.59,-0.24 -0.91,-0.32 -0.31,-0.08 -0.63,-0.15 -0.94,-0.19 -0.32,-0.04 -0.65,-0.06 -0.99,-0.06 -0.48,0 -0.97,0.05 -1.45,0.14 -0.48,0.09 -0.92,0.24 -1.32,0.45 -0.4,0.2 -0.72,0.47 -0.96,0.82 -0.25,0.34 -0.37,0.75 -0.37,1.24 0,0.4 0.09,0.74 0.27,1.04 0.19,0.3 0.44,0.56 0.75,0.78 0.32,0.22 0.68,0.42 1.08,0.59 0.4,0.17 0.8,0.33 1.22,0.48 0.41,0.14 0.82,0.29 1.21,0.44 0.39,0.16 0.75,0.33 1.07,0.51 0.31,0.19 0.56,0.4 0.75,0.63 0.19,0.24 0.28,0.52 0.28,0.85 0,0.36 -0.08,0.67 -0.24,0.93 -0.17,0.26 -0.39,0.47 -0.67,0.63 -0.28,0.16 -0.59,0.27 -0.95,0.35 -0.36,0.08 -0.73,0.12 -1.11,0.12 -0.4,0 -0.82,-0.05 -1.25,-0.14 -0.44,-0.09 -0.85,-0.23 -1.24,-0.41 -0.39,-0.18 -0.72,-0.41 -0.99,-0.68l-0.78 0.73c0.36,0.36 0.77,0.66 1.22,0.9 0.45,0.23 0.94,0.41 1.46,0.52 0.52,0.11 1.06,0.17 1.62,0.17 0.56,0 1.1,-0.06 1.62,-0.18 0.53,-0.12 1,-0.3 1.42,-0.54 0.41,-0.25 0.75,-0.57 0.99,-0.95 0.24,-0.38 0.36,-0.84 0.36,-1.38 0,-0.46 -0.09,-0.86 -0.28,-1.2 -0.19,-0.35 -0.44,-0.64 -0.77,-0.89 -0.32,-0.24 -0.68,-0.46 -1.07,-0.64 -0.4,-0.19 -0.81,-0.35 -1.23,-0.5 -0.43,-0.15 -0.84,-0.3 -1.23,-0.44 -0.4,-0.15 -0.75,-0.3 -1.08,-0.46 -0.32,-0.17 -0.57,-0.35 -0.76,-0.56 -0.19,-0.21 -0.28,-0.47 -0.28,-0.77 0,-0.29 0.08,-0.54 0.25,-0.73 0.17,-0.2 0.4,-0.35 0.68,-0.46 0.28,-0.12 0.57,-0.2 0.89,-0.24 0.31,-0.05 0.61,-0.07 0.89,-0.07 0.29,0 0.58,0.01 0.86,0.04 0.28,0.03 0.55,0.08 0.82,0.15 0.27,0.07 0.52,0.15 0.76,0.25zm1.83 -0.33l1.24 0.03 0 9.68 1.34 0 0 -10.76 -2.58 0 0 1.05zm5.52 -1.05l-1.37 0 0 10.76 1.37 0 0 -7.38 2.9 7.38 1.23 0 2.94 -7.38 0 7.38 1.35 0 0 -10.76 -1.35 0 -3.57 8.81 -3.5 -8.81zm17.64 7.9l0 -7.9 -1.35 0 0 7.78c0,0.44 -0.1,0.81 -0.31,1.12 -0.21,0.3 -0.49,0.53 -0.86,0.68 -0.38,0.15 -0.81,0.23 -1.31,0.23 -0.51,0 -0.95,-0.08 -1.32,-0.23 -0.37,-0.15 -0.66,-0.38 -0.86,-0.68 -0.2,-0.29 -0.3,-0.66 -0.3,-1.1l0 -7.8 -1.36 0 0 7.9c0,0.67 0.16,1.23 0.49,1.68 0.33,0.45 0.78,0.79 1.37,1.01 0.58,0.23 1.25,0.34 2,0.34 0.75,0 1.42,-0.11 1.99,-0.34 0.57,-0.23 1.01,-0.57 1.34,-1.03 0.32,-0.45 0.48,-1 0.48,-1.66zm1.53 2.86l6.58 0 0 -1.03 -5.21 0 0 -9.73 -1.37 0 0 10.76zm17.09 0l-3.8 -10.76 -1.59 0 -3.77 10.76 1.49 0 1.21 -3.46 3.73 0 1.22 3.46 1.51 0zm-6.12 -4.61l1.5 -4.54 1.54 4.54 -3.04 0zm9.82 -5.07l3.05 0 0 -1.08 -7.35 0 0 1.08 2.97 0 0 9.68 1.33 0 0 -9.68zm4.25 -0.03l1.24 0.03 0 9.68 1.35 0 0 -10.76 -2.59 0 0 1.05zm4.05 1.9l0 4.95c0,0.67 0.17,1.23 0.52,1.68 0.34,0.45 0.81,0.79 1.39,1.01 0.58,0.23 1.23,0.34 1.95,0.34 0.75,0 1.42,-0.12 2,-0.37 0.57,-0.24 1.02,-0.59 1.34,-1.04 0.33,-0.45 0.49,-0.99 0.49,-1.62l0 -4.93c0,-1.01 -0.34,-1.79 -1.01,-2.36 -0.66,-0.57 -1.6,-0.86 -2.8,-0.86 -1.2,0 -2.15,0.28 -2.84,0.82 -0.7,0.54 -1.04,1.34 -1.04,2.38zm1.36 4.85l0 -4.77c0,-0.48 0.1,-0.88 0.29,-1.19 0.2,-0.32 0.48,-0.55 0.85,-0.71 0.37,-0.16 0.81,-0.24 1.32,-0.24 0.55,0 1.01,0.08 1.38,0.24 0.37,0.16 0.65,0.39 0.84,0.71 0.19,0.31 0.28,0.71 0.28,1.19l0 4.75c0,0.44 -0.1,0.82 -0.31,1.12 -0.21,0.31 -0.5,0.54 -0.87,0.69 -0.38,0.15 -0.82,0.22 -1.32,0.22 -0.48,0 -0.91,-0.08 -1.28,-0.23 -0.37,-0.15 -0.66,-0.38 -0.87,-0.68 -0.2,-0.31 -0.31,-0.67 -0.31,-1.1zm16.82 -7.8l-1.34 0 0 8.63 -6.27 -8.63 -1.37 0 0 10.76 1.37 0 0 -8.55 6.27 8.55 1.34 0 0 -10.76zm8.64 1.38l0.4 -0.95c-0.29,-0.13 -0.59,-0.24 -0.91,-0.32 -0.31,-0.08 -0.63,-0.15 -0.95,-0.19 -0.31,-0.04 -0.64,-0.06 -0.98,-0.06 -0.49,0 -0.97,0.05 -1.45,0.14 -0.48,0.09 -0.92,0.24 -1.32,0.45 -0.4,0.2 -0.72,0.47 -0.97,0.82 -0.24,0.34 -0.36,0.75 -0.36,1.24 0,0.4 0.09,0.74 0.27,1.04 0.19,0.3 0.43,0.56 0.75,0.78 0.32,0.22 0.67,0.42 1.08,0.59 0.4,0.17 0.8,0.33 1.22,0.48 0.41,0.14 0.81,0.29 1.21,0.44 0.39,0.16 0.75,0.33 1.07,0.51 0.31,0.19 0.56,0.4 0.75,0.63 0.19,0.24 0.28,0.52 0.28,0.85 0,0.36 -0.08,0.67 -0.24,0.93 -0.17,0.26 -0.39,0.47 -0.67,0.63 -0.28,0.16 -0.6,0.27 -0.95,0.35 -0.36,0.08 -0.73,0.12 -1.11,0.12 -0.4,0 -0.82,-0.05 -1.25,-0.14 -0.44,-0.09 -0.85,-0.23 -1.24,-0.41 -0.39,-0.18 -0.72,-0.41 -0.99,-0.68l-0.78 0.73c0.36,0.36 0.77,0.66 1.22,0.9 0.45,0.23 0.94,0.41 1.46,0.52 0.52,0.11 1.06,0.17 1.62,0.17 0.56,0 1.1,-0.06 1.62,-0.18 0.52,-0.12 0.99,-0.3 1.41,-0.54 0.42,-0.25 0.75,-0.57 1,-0.95 0.24,-0.38 0.36,-0.84 0.36,-1.38 0,-0.46 -0.09,-0.86 -0.28,-1.2 -0.19,-0.35 -0.44,-0.64 -0.77,-0.89 -0.32,-0.24 -0.68,-0.46 -1.07,-0.64 -0.4,-0.19 -0.81,-0.35 -1.23,-0.5 -0.43,-0.15 -0.84,-0.3 -1.23,-0.44 -0.4,-0.15 -0.76,-0.3 -1.08,-0.46 -0.32,-0.17 -0.57,-0.35 -0.76,-0.56 -0.19,-0.21 -0.28,-0.47 -0.28,-0.77 0,-0.29 0.08,-0.54 0.25,-0.73 0.17,-0.2 0.4,-0.35 0.67,-0.46 0.28,-0.12 0.58,-0.2 0.9,-0.24 0.31,-0.05 0.61,-0.07 0.89,-0.07 0.29,0 0.58,0.01 0.86,0.04 0.28,0.03 0.55,0.08 0.82,0.15 0.26,0.07 0.52,0.15 0.76,0.25zm14.14 -0.33l0.42 -1.1 -3.02 0c-0.55,0 -1.03,0.1 -1.45,0.3 -0.42,0.2 -0.74,0.48 -0.96,0.83 -0.22,0.34 -0.32,0.75 -0.31,1.21 0.02,0.26 0.07,0.52 0.18,0.8 0.1,0.28 0.26,0.54 0.48,0.8 0.22,0.26 0.51,0.48 0.87,0.68l-0.32 0c-0.33,0 -0.64,0.04 -0.92,0.13 -0.27,0.08 -0.52,0.22 -0.72,0.41 -0.21,0.18 -0.37,0.41 -0.48,0.69 -0.11,0.29 -0.16,0.63 -0.16,1.03l0 1.46c0,0.37 0.05,0.69 0.15,0.97 0.11,0.27 0.25,0.51 0.44,0.71 0.19,0.2 0.41,0.37 0.67,0.49 0.27,0.13 0.55,0.23 0.87,0.29 0.32,0.06 0.66,0.09 1.02,0.09 0.27,0 0.56,-0.03 0.88,-0.11 0.31,-0.07 0.62,-0.17 0.93,-0.31 0.31,-0.14 0.58,-0.32 0.82,-0.53 0.17,0.27 0.41,0.49 0.72,0.65 0.32,0.16 0.71,0.28 1.17,0.36l0.37 -0.89c-0.42,-0.08 -0.74,-0.23 -0.97,-0.45 -0.23,-0.21 -0.35,-0.51 -0.35,-0.9l0 -3.06 1.41 0 0.42 -1.05 -1.83 0 0 -1.58 -1.31 0 0 1.6 -0.67 0c-0.32,-0.05 -0.62,-0.14 -0.9,-0.26 -0.28,-0.13 -0.52,-0.28 -0.73,-0.47 -0.22,-0.18 -0.38,-0.39 -0.51,-0.63 -0.12,-0.24 -0.18,-0.5 -0.18,-0.78 0,-0.43 0.14,-0.77 0.41,-1.02 0.28,-0.24 0.65,-0.36 1.12,-0.36l2.44 0zm-0.98 4.53l0 2.51c0,0.31 -0.08,0.58 -0.25,0.82 -0.17,0.24 -0.41,0.43 -0.71,0.58 -0.29,0.14 -0.65,0.23 -1.06,0.26 -0.44,0.02 -0.81,-0.03 -1.1,-0.15 -0.3,-0.11 -0.53,-0.29 -0.7,-0.53 -0.16,-0.23 -0.24,-0.52 -0.24,-0.84l0 -1.37c0,-0.3 0.05,-0.53 0.15,-0.69 0.1,-0.17 0.24,-0.29 0.4,-0.38 0.17,-0.09 0.34,-0.14 0.52,-0.17 0.18,-0.03 0.35,-0.04 0.51,-0.04l2.48 0zm13.27 -4.5l3.04 0 0 -1.08 -7.34 0 0 1.08 2.97 0 0 9.68 1.33 0 0 -9.68zm8.51 -1.08l-4.19 0 0 10.76 1.36 0 0 -3.52 2.83 0c0.11,0 0.21,0 0.31,0 0.1,0 0.19,0 0.29,-0.01 0.1,-0.01 0.19,-0.02 0.29,-0.03l1.51 3.56 1.43 0 -1.72 -3.9c0.37,-0.18 0.67,-0.4 0.9,-0.69 0.24,-0.28 0.42,-0.63 0.55,-1.06 0.13,-0.42 0.19,-0.93 0.19,-1.53 0,-0.68 -0.09,-1.26 -0.27,-1.73 -0.18,-0.46 -0.44,-0.83 -0.78,-1.1 -0.34,-0.26 -0.74,-0.46 -1.2,-0.57 -0.45,-0.12 -0.95,-0.18 -1.5,-0.18zm-0.18 6.15l-2.65 0 0 -5.04 2.65 0c0.39,0 0.74,0.03 1.05,0.1 0.32,0.06 0.59,0.18 0.81,0.35 0.23,0.17 0.4,0.42 0.51,0.75 0.12,0.32 0.18,0.75 0.18,1.27 0,0.57 -0.06,1.02 -0.18,1.36 -0.11,0.35 -0.28,0.6 -0.51,0.77 -0.24,0.17 -0.51,0.29 -0.82,0.35 -0.31,0.06 -0.65,0.09 -1.04,0.09zm14.5 4.61l-3.81 -10.76 -1.58 0 -3.77 10.76 1.49 0 1.2 -3.46 3.74 0 1.22 3.46 1.51 0zm-6.12 -4.61l1.49 -4.54 1.55 4.54 -3.04 0zm6.34 -5.1l1.24 0.03 0 9.68 1.35 0 0 -10.76 -2.59 0 0 1.05zm13.14 -1.05l-1.35 0 0 8.63 -6.27 -8.63 -1.36 0 0 10.76 1.36 0 0 -8.55 6.27 8.55 1.35 0 0 -10.76zm1.5 1.05l1.24 0.03 0 9.68 1.34 0 0 -10.76 -2.58 0 0 1.05zm13.14 -1.05l-1.35 0 0 8.63 -6.27 -8.63 -1.37 0 0 10.76 1.37 0 0 -8.55 6.27 8.55 1.35 0 0 -10.76zm7.32 1.23l0.42 -0.86c-0.25,-0.11 -0.52,-0.21 -0.8,-0.29 -0.28,-0.07 -0.57,-0.13 -0.86,-0.16 -0.29,-0.04 -0.59,-0.06 -0.91,-0.06 -0.78,0 -1.44,0.12 -1.98,0.36 -0.54,0.24 -0.95,0.6 -1.23,1.07 -0.29,0.47 -0.43,1.05 -0.43,1.72l0 4.89c0,0.68 0.15,1.24 0.46,1.69 0.31,0.44 0.74,0.78 1.28,1 0.54,0.22 1.15,0.33 1.85,0.33 0.32,0 0.66,-0.03 1,-0.09 0.34,-0.07 0.66,-0.16 0.97,-0.28 0.3,-0.12 0.56,-0.27 0.78,-0.45l0.07 0.66 1.1 0 0 -4.61 -3.69 0 0.46 1.09 1.91 0 0 0.65c0,0.29 -0.06,0.55 -0.2,0.79 -0.13,0.24 -0.32,0.44 -0.55,0.61 -0.24,0.16 -0.52,0.29 -0.83,0.38 -0.32,0.09 -0.66,0.14 -1.04,0.14 -0.49,0 -0.89,-0.07 -1.22,-0.22 -0.33,-0.15 -0.58,-0.37 -0.74,-0.66 -0.16,-0.28 -0.25,-0.63 -0.25,-1.04l0 -5c0,-0.47 0.11,-0.85 0.31,-1.14 0.21,-0.28 0.5,-0.49 0.89,-0.63 0.38,-0.13 0.83,-0.2 1.35,-0.2 0.21,0 0.42,0.01 0.62,0.03 0.21,0.02 0.42,0.06 0.63,0.1 0.22,0.05 0.43,0.11 0.63,0.18z"/>
 </g>
</svg>
