<?xml version="1.0" encoding="UTF-8"?>
<!DOCTYPE svg PUBLIC "-//W3C//DTD SVG 1.1//EN" "http://www.w3.org/Graphics/SVG/1.1/DTD/svg11.dtd">
<!-- Creator: CorelDRAW (Versão OEM) -->
<svg xmlns="http://www.w3.org/2000/svg" xml:space="preserve" width="1000px" height="270px" version="1.1" style="shape-rendering:geometricPrecision; text-rendering:geometricPrecision; image-rendering:optimizeQuality; fill-rule:evenodd; clip-rule:evenodd"
viewBox="0 0 1000 269.78"
 xmlns:xlink="http://www.w3.org/1999/xlink"
 xmlns:xodm="http://www.corel.com/coreldraw/odm/2003">
 <defs>
  <style type="text/css">
   <![CDATA[
    .str3 {stroke:#C86C45;stroke-width:0.36;stroke-miterlimit:22.9256}
    .str1 {stroke:#D96029;stroke-width:0.36;stroke-miterlimit:22.9256}
    .str2 {stroke:#E89A65;stroke-width:0.36;stroke-miterlimit:22.9256}
    .str0 {stroke:#EE7828;stroke-width:0.36;stroke-miterlimit:22.9256}
    .str4 {stroke:#F4924D;stroke-width:0.36;stroke-miterlimit:22.9256}
    .fil9 {fill:#C86C45}
    .fil5 {fill:#D45B23}
    .fil10 {fill:#D5D8DC}
    .fil2 {fill:#D95E26}
    .fil8 {fill:#D96029}
    .fil12 {fill:#D96029}
    .fil13 {fill:#D9884F}
    .fil18 {fill:#D9DCDD}
    .fil1 {fill:#DB5E24}
    .fil17 {fill:#E6ECF3}
    .fil16 {fill:#E89A65}
    .fil6 {fill:#E89A65}
    .fil7 {fill:#EA762A}
    .fil14 {fill:#EC924C}
    .fil3 {fill:#ED7729}
    .fil0 {fill:#EE7828}
    .fil15 {fill:#F38D49}
    .fil11 {fill:#F4924D}
    .fil4 {fill:#FCFCFC}
    .fil19 {fill:#FEFEFE;fill-rule:nonzero}
   ]]>
  </style>
 </defs>
 <g id="Camada_x0020_1">
  <metadata id="CorelCorpID_0Corel-Layer"/>
  <g id="_1255696199760">
   <path class="fil0 str0" d="M132.4 61.63c2.93,1.84 7.4,3.68 11.21,5.51 5.35,2.58 11.37,6.22 13.99,11.18 1.88,3.57 0.57,2.54 4.88,3.51 4.69,1.06 8.58,2.92 12.45,4.63 -2.76,1.45 -18.37,-4.66 -28.07,1.5 -2.33,1.48 -5.45,5.34 -6.25,9.61 -0.92,4.87 0.37,9.7 2.21,13.27 3.39,6.63 9.48,12.28 20.08,11.58 10.19,-0.67 15.3,-7.76 19.81,-11.59 0.55,-1.13 1.08,-1.47 1.36,-2.65l1.1 -1.58c1.88,0.77 -0.39,-0.28 0.82,0.72 0.07,0.06 0.18,0.17 0.25,0.22l0.47 0.35c1.51,0.76 12.11,-3.95 13.28,-4.83 0.08,-0.06 0.21,-0.18 0.27,-0.23 0.07,-0.05 0.19,-0.16 0.27,-0.25 -0.12,-0.26 -0.44,-1.16 -0.49,-1.26l-5.52 -6.05c-5.22,-5.45 -12.1,-18.11 -13.4,-25.37 -1.41,-7.96 -2.71,-15.01 -1.67,-24.04 1.29,-11.19 4.86,-19.28 5,-20.57 -17.57,-0.45 -25.34,1.44 -41,6.07 -6.06,1.8 -28.3,11.54 -31.03,16.5 2.69,3.78 13.65,9.81 18.83,12.22 3.52,1.64 1.66,0.69 1.54,1.25 -0.14,0.69 0.56,0.04 -0.39,0.3z"/>
   <path class="fil0 str0" d="M77.57 133.22l0.42 -0.04 10.19 -3.28c9.75,-3.02 12.26,-3.26 21.45,-5.6 3.36,-0.85 7.77,-1.26 11.41,-2.13 -0.46,-1.13 -1.03,-3.45 -1.36,-4.56 -2.01,-6.66 -5.59,-12.72 -8.69,-18.75 -3.54,-6.86 -5.93,-8.16 -8.72,-12.83 -1.7,-2.86 -3.11,-3.53 -4.88,-5.77 -1.18,-1.48 -1.27,-1.78 -2.76,-2.96 -1.79,-1.42 -1.1,-0.91 -2.56,-2.75 -2.17,-2.73 -4.98,-3.04 -5.75,-4.91l-0.75 0.11c-0.26,0.4 -3.83,3.54 -4.62,4.36l-12.62 14.73c-5.86,7.05 -3.32,4.31 -7.8,10.33l-7.48 10.55c1.78,1.65 5.77,2.45 8.21,4.05 1.35,0.88 2.45,1.61 3.75,2.45 4.56,2.95 11.52,11.89 12.56,17z"/>
   <path class="fil1 str1" d="M77.99 133.18c0.68,4.05 2.99,8.3 3.46,13.2 0.48,5.05 -0.74,10.6 1.66,14.51 5.21,8.5 12.23,9.1 22.86,4.56 4.57,-1.96 10.72,-6.63 14.13,-10.18 2.55,-2.68 5.27,-7.38 5.42,-11.07 0.31,-7.19 -3.21,-17.39 -3.71,-21.25 -0.39,-0.58 -0.21,-0.42 -0.77,-0.78 -3.64,0.87 -8.05,1.28 -11.41,2.13 -9.19,2.34 -11.7,2.58 -21.45,5.6l-10.19 3.28z"/>
   <path class="fil2 str1" d="M185.17 106.6l-1.1 1.58c1.41,0.41 1.4,-1.25 0.97,1.28 0.36,-0.41 0.66,-0.74 1.24,-1.14 -0.45,2.13 -3.12,6.65 -4.35,8.53 -3.44,5.31 -7.69,9.16 -13.77,11.43 -5.75,2.14 -6.33,1.38 -8.77,2.15 -1.14,0.37 -0.35,-0.02 -1.26,0.49l-0.07 7.93c5.78,0.11 14.09,-5.34 10.99,0.86 -3.18,6.38 -2.87,3.86 -2.07,8.91 0.8,5.11 2.19,7.84 5.94,9.81 10.24,5.38 21.37,-13.14 24.73,-20.96 1.01,-2.32 3.01,-11.11 3.88,-12.03 0.7,-0.74 8.62,-5.01 10.07,-5.89l8.88 -6.05c-1.58,-0.75 -3.57,-1.53 -5.06,-2.4 -3.1,-1.81 -9.02,-4.43 -12.39,-7.55 -0.92,-0.85 -0.33,-0.18 -0.93,-1.07l-1.57 0.1c-0.08,0.09 -0.2,0.2 -0.27,0.25 -0.06,0.05 -0.19,0.17 -0.27,0.23 -1.17,0.88 -11.77,5.59 -13.28,4.83l-0.47 -0.35c-0.07,-0.05 -0.18,-0.16 -0.25,-0.22 -1.21,-1 1.06,0.05 -0.82,-0.72z"/>
   <path class="fil3 str0" d="M228.51 87.25c0.51,-1.56 -0.18,-0.68 2.69,-2.81 1.29,-0.95 2.07,-1.54 3.22,-2.52 2.53,-2.16 3.43,-3.1 6.25,-5.24 1.97,-1.49 3.97,-3.77 5.96,-5.52l5.33 -5.81 -1.06 -0.6 -0.64 0.1 -0.02 0.01c-1.04,0.36 -3.02,0.34 -4.08,0.34 0.53,-0.27 -0.1,-0.25 0.45,-0.58l0.57 -0.19c1.29,-0.91 3.37,-2.47 4.75,-4.8 7.58,-8.02 7.03,-6.67 1.14,-11.48 -3.83,-3.13 -8.57,-6.57 -12.76,-8.83 -3.25,-1.75 -20.2,-9.39 -23.08,-8.91 -0.5,1.19 -1.82,2.84 -3.34,6.7 -5.09,12.92 -4.62,29.04 3.71,40.36 2.02,2.73 7.62,8.33 10.91,9.78zm-1.13 -47.8c0.12,0 0.25,0.01 0.37,0.01 -0.6,0.66 -0.96,1.54 -0.96,2.5 0,2.05 1.66,3.72 3.72,3.72 1.55,0 2.89,-0.96 3.44,-2.32 0.58,1.06 0.91,2.28 0.91,3.57 0,4.13 -3.35,7.48 -7.48,7.48 -4.13,0 -7.48,-3.35 -7.48,-7.48 0,-4.13 3.35,-7.48 7.48,-7.48z"/>
   <path class="fil4" d="M209.28 98.9l1.15 -1.01c2.25,-0.45 8.28,-4.29 10.27,-5.59l2.22 1.09c0.9,-0.78 0.52,0.57 -0.01,-0.97 -0.2,-0.45 -3.84,-3.24 -4.74,-4.02 -11.63,-10.05 -16.56,-26.56 -14.07,-42.06 0.24,-1.47 0.47,-2.73 0.82,-4.1 1.94,-7.62 6.41,-13.31 8.34,-19.13 -2.02,-1.2 -14.74,-3.36 -17.75,-3.14 -2.8,6.88 -4.49,5.54 -7.82,20.04 -1.79,7.8 -2.02,17.29 -0.23,25.3 2.55,11.42 8.54,23.35 17.73,30.77 1.31,1.06 2.39,2.43 4.09,2.82z"/>
   <path class="fil5 str1" d="M73.74 239.87c-1.02,-0.64 -1.83,-1.59 -2.76,-2.35 -0.92,-0.74 -1.59,-1.55 -2.54,-2.31 -1.72,-1.37 -3.92,-2.71 -4.9,-5.03 -1.75,-0.81 -4.05,-4.93 -5.14,-6.57 -5.84,-8.77 -6.17,-16.41 -8.06,-25.46 -1.16,0.53 -0.31,-0.46 -0.8,1.27 -0.01,0.04 -0.29,1.92 -0.29,1.93 -0.44,3.27 -1.05,8.53 -0.32,11.5l0.43 3.8c0.13,2.37 1.6,7.91 2.23,9.82 4.81,14.52 18.95,27.57 33.24,32.42 17.57,5.96 37.9,2.94 53.19,-6.21 5.36,-3.2 9.55,-6.41 13.83,-10.86 6.18,-6.44 12.8,-15.96 16.74,-24.33 2.11,-4.48 7.67,-19.03 7.96,-24.82 -1.08,1.05 -1.4,2.02 -2.08,3.74 -3.56,8.95 -8.83,17.39 -13.96,25.36 -2.65,4.13 -11.74,15.5 -15.45,18.14 -1.43,1.02 -1.71,0.99 -3.28,2.45 -8.4,7.81 -23.89,12.98 -38.05,12.32 -5.89,-0.28 -13.44,-1.89 -18.02,-4.49 -4.54,-2.57 -10.31,-6.28 -11.97,-10.32z"/>
   <path class="fil3 str0" d="M44.7 236.11l-4.63 -10.09c-1.55,-3.56 -2.91,-7.3 -3.86,-10.69 -4.42,-15.8 -4.29,-34.09 3.04,-49.07 2.45,-5.03 5.33,-9.22 8.76,-13.35 2.27,-2.72 2.89,-2.11 3.24,-4.07 -1.34,-2.5 -3.81,-5.41 -5.75,-6.86 -2.69,-2.01 -4.78,-3.5 -7.96,-4.6l-0.5 0.98c-0.4,0.49 -0.15,-0.1 -0.94,0.8 -0.58,0.66 -1.11,2.06 -1.61,2.88 -3.13,5.16 -3.32,6.84 -5.32,11.46 -0.97,2.24 -1.83,3.63 -2.51,5.83 -3.37,10.75 -5.4,24.79 -2.08,37.05 1.19,4.39 0.43,5.67 3.6,13.33 2.43,5.86 4.73,11.85 8.65,16.94 1.13,1.46 2.31,3.47 3.5,4.89 1.31,1.56 2.96,3.13 4.37,4.57z"/>
   <path class="fil6 str2" d="M103.49 26.37c-0.33,2.92 -0.64,7.99 0.54,10.36 1.08,-3.12 -0.62,-11.03 6.64,-16.84 10.18,-8.14 22.16,-9.08 34.9,-6.35 3.11,0.66 14.19,4.7 14.96,6.92 -21.27,4.07 -33.3,9.37 -50.36,20.57l-2.76 1.92c1.43,0.58 1.2,1.11 3.55,3.51 0.77,0.8 0.67,-0.28 0.73,1.58l-0.4 0.02c0.98,1.74 2.79,2.98 4.4,4.19 1.67,1.25 2.9,2.23 5.22,3.59 2.87,1.68 8.49,4.97 11.49,5.79 0.95,-0.26 0.25,0.39 0.39,-0.3 0.12,-0.56 1.98,0.39 -1.54,-1.25 -5.18,-2.41 -16.14,-8.44 -18.83,-12.22 2.73,-4.96 24.97,-14.7 31.03,-16.5 15.66,-4.63 23.43,-6.52 41,-6.07 -0.14,1.29 -3.71,9.38 -5,20.57 -1.04,9.03 0.26,16.08 1.67,24.04 1.3,7.26 8.18,19.92 13.4,25.37l5.52 6.05c0.05,0.1 0.37,1 0.49,1.26l1.57 -0.1 -0.18 -1.22c-3.57,-5.23 -15.82,-11.77 -20.42,-34.99 -1.57,-7.92 -1.76,-18.05 -0.1,-25.93 3.01,-14.23 5.69,-15.15 7.25,-20.76 -0.35,-0.25 -0.04,-0.24 -1.11,-0.78 -4.55,0.2 -9.83,0.04 -14.51,0.11 -7.5,0.11 -5.68,1.51 -11.29,-2.61 -16.62,-12.2 -41.36,-13.73 -53.56,0.21 -1.5,1.71 -4.59,6.6 -4.69,9.86z"/>
   <path class="fil7 str0" d="M73.74 239.87c1.66,4.04 7.43,7.75 11.97,10.32 4.58,2.6 12.13,4.21 18.02,4.49 14.16,0.66 29.65,-4.51 38.05,-12.32 1.57,-1.46 1.85,-1.43 3.28,-2.45 3.71,-2.64 12.8,-14.01 15.45,-18.14 5.13,-7.97 10.4,-16.41 13.96,-25.36 0.68,-1.72 1,-2.69 2.08,-3.74 0.14,-2.34 0.59,-1.18 0.01,-3.28 -2.25,3.28 -16.2,14.36 -19.32,16.29l-11.39 6.75c-1.85,0.79 -11.19,4.63 -12.04,5.5 7.7,4.15 19.47,-1.11 16.25,5.28 -1.8,3.57 -8.26,10.6 -11.47,13.31 -11.07,9.37 -29.75,14.81 -44.01,11.51 -4.04,-0.93 -12.92,-3.65 -16.24,-5.56 -1.44,-0.83 -2.57,-1.89 -4.6,-2.6z"/>
   <path class="fil8 str1" d="M104.34 25.58c-2.67,3.75 0.11,15.67 2.54,17.83 0.27,-0.66 -0.12,-0.73 0.53,-0.46l2.76 -1.92c17.06,-11.2 29.09,-16.5 50.36,-20.57 -0.77,-2.22 -11.85,-6.26 -14.96,-6.92 -12.74,-2.73 -24.72,-1.79 -34.9,6.35 -7.26,5.81 -5.41,12.94 -6.48,16.06 -1.19,-2.37 -0.18,-7.45 0.15,-10.37z"/>
   <path class="fil2 str1" d="M44.7 236.11c0.93,1.25 0.22,0.81 2.28,1.09 -0.51,-2.49 -2.25,-5.6 -3.22,-8.1 -3.02,-7.79 -4.12,-22.7 -2.46,-30.36 0.62,-2.87 2.35,-11.05 3.42,-13.44 0.26,-0.59 1.4,-2.76 1.93,-3.78 1.37,-2.67 2.56,-5.13 4.06,-7.39l5 -6.29c0.33,-8.01 0.1,-8.54 -2.34,-15.14 -0.87,-2.36 -0.6,-2.65 -2.12,-3.86 -0.35,1.96 -0.97,1.35 -3.24,4.07 -3.43,4.13 -6.31,8.32 -8.76,13.35 -7.33,14.98 -7.46,33.27 -3.04,49.07 0.95,3.39 2.31,7.13 3.86,10.69l4.63 10.09z"/>
   <path class="fil8 str1" d="M45.65 106l2.2 2.39c1.41,-0.44 2.1,-2.32 3.95,-5.16l23.97 -31.7c1.7,-1.83 3.72,-3.48 4.46,-5.12l-1.64 -0.43c-16.14,-1.31 -31.96,7.03 -35.21,23.5 -0.6,3.07 -0.17,6.3 0.13,9.39 0.36,3.71 1.16,4.21 2.14,7.13z"/>
   <path class="fil2 str1" d="M251.96 65.35l-5.33 5.81c-1.99,1.75 -3.99,4.03 -5.96,5.52 -2.82,2.14 -3.72,3.08 -6.25,5.24 -1.15,0.98 -1.93,1.57 -3.22,2.52 -2.87,2.13 -2.18,1.25 -2.69,2.81 3.49,2.64 10.79,5.05 16.27,5.46 1.46,-2.66 -0.16,0.21 1.62,-1.5 2.33,-2.26 6.06,-9.17 6.59,-9.42 3.22,-7.21 6.96,-10.19 8.5,-20.88 -2.21,0.5 -2.94,1.43 -4.72,2.27 -1.47,0.7 -3.01,1.51 -4.81,2.17z"/>
   <path class="fil9 str1" d="M178.81 187.93l-2.25 1.46c0.58,2.1 0.13,0.94 -0.01,3.28 -0.29,5.79 -5.85,20.34 -7.96,24.82 -3.94,8.37 -10.56,17.89 -16.74,24.33 -4.28,4.45 -8.47,7.66 -13.83,10.86 -15.29,9.15 -35.62,12.17 -53.19,6.21 -14.29,-4.85 -28.43,-17.9 -33.24,-32.42 -0.63,-1.91 -2.1,-7.45 -2.23,-9.82l-0.43 -3.8c-0.73,-2.97 -0.12,-8.23 0.32,-11.5 0,-0.01 0.28,-1.89 0.29,-1.93 0.49,-1.73 -0.36,-0.74 0.8,-1.27 1.89,9.05 2.22,16.69 8.06,25.46 1.09,1.64 3.39,5.76 5.14,6.57l0.83 0.02c-1.84,-4.32 -13.09,-14.33 -12.76,-35.65l0.32 -5.26c-0.01,-0.08 -0.05,-0.22 -0.06,-0.29 -0.02,-0.07 -0.08,-0.22 -0.1,-0.27 -0.01,-0.06 -0.05,-0.19 -0.1,-0.27 -1.56,2.45 -3.43,10.17 -3.91,13.7 -2.01,14.71 3.36,30.93 12.34,40.95 13.46,15 29.26,21.78 50.73,19.72 29.45,-2.82 49.14,-23.09 59.78,-46.83 2.83,-6.3 7.62,-20.84 8.2,-28.07z"/>
   <path class="fil10" d="M129.23 121.21c0.49,3.75 1.97,8.11 2.71,12.16 0.68,3.69 1.31,6.66 1.77,10.63l16.27 -2.59c-0.56,-2.07 -0.4,-1.77 -0.28,-3.87 0.65,-11.45 2.18,-8.02 -2.85,-10.12 -2.16,-0.9 -6.27,-3.79 -7.96,-5.2 -1.01,-0.83 -0.93,0.14 -1.81,-1.85 -1.29,-0.62 -6.71,0.07 -7.85,0.84z"/>
   <path class="fil11" d="M64.88 116.14c-1.24,-0.81 -2.5,-1.66 -3.75,-2.45 -2.23,-1.4 -5.06,-1.99 -7.27,-3.34 -1.08,-0.66 -0.55,-1.03 0.09,-1.9 2.51,-3.46 4.92,-7 7.45,-10.46 0.93,-1.28 1.77,-2.56 2.68,-3.84 1.25,-1.76 2.84,-3.63 4.23,-5.28 1.34,-1.6 2.73,-3.19 4.09,-4.78 2.82,-3.29 5.62,-6.59 8.45,-9.86 0.55,-0.64 1.59,-1.53 2.23,-2.11 0.73,-0.67 1.73,-1.52 2.38,-2.24 0.17,-0.19 0.13,-0.12 -0.16,-0.41 -1.04,-1.02 -2.19,-1.78 -3.55,-2.31 -1.19,-0.45 -0.7,-0.67 -1.06,-1.55 -0.21,-0.52 -1.34,-0.16 -1.84,-0.14 -1.01,0.05 -2.29,-0.35 -3.38,-0.43 -0.37,-0.03 -0.58,-0.08 -0.13,0.12 0.2,0.09 2.82,0.71 3.17,0.8 0.26,0.07 1.43,0.31 1.55,0.51 0.36,0.64 -3.75,4.43 -4.28,5.06 -0.65,0.77 -1.37,1.8 -1.99,2.62 -5.04,6.66 -10.07,13.31 -15.1,19.97 -0.6,0.79 -1.19,1.58 -1.79,2.37 -1.66,2.2 -3.37,4.4 -5,6.62 -0.94,1.27 -2.29,4.2 -3.5,5 -0.55,0.37 -0.66,0.21 0.12,0.7 1.44,0.89 2.86,1.83 4.42,2.49 2.72,1.14 5.22,1.96 7.81,3.44 5.24,3.03 10.06,7.56 12.98,12.9 0.43,0.79 2.52,4.98 2.98,5.25 0.37,0.22 1.25,-0.03 0.87,0.28 -0.02,-0.05 -0.39,-1.3 -0.47,-1.53 -1.85,-5.07 -7.72,-12.54 -12.23,-15.5z"/>
   <path class="fil12" d="M51.25 148.84c1.52,1.21 1.25,1.5 2.12,3.86 2.44,6.6 2.67,7.13 2.34,15.14 -1.59,2 -3.25,4.02 -4.8,6.04 -1.28,1.65 -2.76,4.7 -3.74,6.62 -0.78,1.54 -1.7,3.17 -2.42,4.72 -0.74,1.62 -1.46,4.75 -1.89,6.53 -0.57,2.4 -1.15,4.92 -1.64,7.34 -1.59,7.97 -0.37,22.42 2.54,30.01 0.97,2.5 2.71,5.61 3.22,8.1 -2.06,-0.28 -1.35,0.16 -2.28,-1.09 -1.41,-1.44 -3.06,-3.01 -4.37,-4.57 -1.19,-1.42 -2.37,-3.43 -3.5,-4.89 -3.92,-5.09 -6.22,-11.08 -8.65,-16.94 -3.17,-7.66 -2.41,-8.94 -3.6,-13.33 -3.13,-12.68 -1.64,-24.7 2.08,-37.05 0.68,-2.2 1.54,-3.59 2.51,-5.83 2,-4.62 2.19,-6.3 5.32,-11.46 0.5,-0.82 1.03,-2.22 1.61,-2.88 0.79,-0.9 0.54,-0.31 0.94,-0.8l0.5 -0.98c3.18,1.1 5.27,2.59 7.96,4.6 1.94,1.45 4.41,4.36 5.75,6.86zm-5.79 82.42c-6.44,-15.17 -5.3,-34.31 1.86,-49.04 2.11,-4.33 4.11,-7.67 7.06,-11.44 2.23,-2.85 2.79,-3.86 2.61,-7.61 -0.43,-8.1 -3.84,-15.19 -8.88,-20.29 -3.3,-3.35 -6.37,-5.81 -12.45,-7.03l-2.92 -0.04 -0.5 0.78c-0.74,2.82 -2.03,5.27 -3.19,7.98 -1.17,2.76 -1.91,5.39 -2.84,8.11 -1.98,5.93 -3.14,10.64 -3.79,16.87 -0.21,2.1 -0.8,3.88 -0.92,6.03 -0.18,3.35 0.08,6.96 0.34,10.32 0.11,1.45 0.24,2.9 0.38,4.36 0.19,1.82 0.42,3.64 0.74,5.44l0.03 0.2c2.41,12.87 8.52,26.21 16.14,35.95 2.55,3.27 4.77,5.79 7.8,8.6 1.71,1.58 3.36,3.11 5.02,4.74 0.75,0.73 1.52,1.16 2.29,1.88 0.12,0.12 0.83,0.78 0.94,0.81 0,0 0.43,0.02 0.45,-0.01 0.07,-0.07 0.01,-0.75 0,-0.79 -0.09,-0.22 -1.33,-1.31 -1.6,-1.61 -0.6,-0.65 -1.3,-1.52 -1.87,-2.22 -2.27,-2.83 -5.25,-8.59 -6.7,-11.99z"/>
   <path class="fil9 str3" d="M202.1 102.48c0.6,0.89 0.01,0.22 0.93,1.07 3.37,3.12 9.29,5.74 12.39,7.55 1.49,0.87 3.48,1.65 5.06,2.4l-8.88 6.05c-1.45,0.88 -9.37,5.15 -10.07,5.89 -0.87,0.92 -2.87,9.71 -3.88,12.03 -3.36,7.82 -14.49,26.34 -24.73,20.96 -3.75,-1.97 -5.14,-4.7 -5.94,-9.81 -0.8,-5.05 -1.11,-2.53 2.07,-8.91 3.1,-6.2 -5.21,-0.75 -10.99,-0.86l0.07 -7.93c0.91,-0.51 0.12,-0.12 1.26,-0.49 2.44,-0.77 3.02,-0.01 8.77,-2.15 6.08,-2.27 10.33,-6.12 13.77,-11.43 1.23,-1.88 3.9,-6.4 4.35,-8.53 -0.58,0.4 -0.88,0.73 -1.24,1.14 0.43,-2.53 0.44,-0.87 -0.97,-1.28 -0.28,1.18 -0.81,1.52 -1.36,2.65l1.03 -0.37 -0.48 1.17c-1.03,4.72 -6.58,10.13 -9.63,12.38 -7.27,5.38 -14.96,4.37 -16.04,5.36 -1.64,2.62 -1.24,7.78 -0.67,11.11l0.97 -0.06 6.37 -1.3 3.27 -0.7 -0.33 1.84c-1.56,4.39 -3.02,7.12 -0.82,12.82 5.78,14.98 26.51,6.88 34.69,-21.99 2.27,-8.04 0.97,-3.74 12.52,-11.24 3.24,-2.1 6.4,-4.76 9.47,-6.45l-0.28 -0.95c-7.22,-1.15 -14.66,-7 -19.9,-10.58 -0.67,-0.46 -0.05,-0.11 -0.96,-0.61l0.18 1.22z"/>
   <path class="fil10" d="M210.43 97.89c0.14,2.63 -1.36,0.64 1.83,2.14 4.41,2.06 11.66,6.76 17.32,6.74l1.76 -1.44c0.62,-0.34 0.81,-0.33 1.17,-0.53 0.88,-0.49 0.44,-0.22 1.02,-0.75 1.29,-1.17 2.28,-2.56 3.79,-3.19 -1.32,-1.58 -0.41,-0.72 -2.62,-1.59 -0.75,-0.3 -1.47,-0.53 -2.29,-0.83 -1.65,-0.61 -2.29,-1.26 -4.44,-1.77 0.96,-0.61 -1.19,-0.98 1.42,-0.43 -1.2,-1.3 -4.8,-3.11 -6.48,-3.82 0.53,1.54 0.91,0.19 0.01,0.97l-2.22 -1.09c-1.99,1.3 -8.02,5.14 -10.27,5.59z"/>
   <path class="fil13" d="M132.52 217.2l-1.78 1.31 2.31 0.48c2.97,2.04 12.16,1.91 16.86,1.87 -1.94,5.95 -11.03,14.31 -15.73,17.43 -6.3,4.18 -13.73,7.89 -23.01,9.11 -13.56,1.79 -28.38,-1.87 -38.39,-9.92l-8.41 -7.28 -0.83 -0.02c0.98,2.32 3.18,3.66 4.9,5.03 0.95,0.76 1.62,1.57 2.54,2.31 0.93,0.76 1.74,1.71 2.76,2.35 2.03,0.71 3.16,1.77 4.6,2.6 3.32,1.91 12.2,4.63 16.24,5.56 14.26,3.3 32.94,-2.14 44.01,-11.51 3.21,-2.71 9.67,-9.74 11.47,-13.31 3.22,-6.39 -8.55,-1.13 -16.25,-5.28 0.85,-0.87 10.19,-4.71 12.04,-5.5l11.39 -6.75c3.12,-1.93 17.07,-13.01 19.32,-16.29l2.25 -1.46 0.28 -2.5c-1.72,0.87 -7.28,7.07 -10.48,10 -11.29,10.32 -21.16,15.65 -36.09,21.77z"/>
   <path class="fil14" d="M217.23 30.41c2.88,-0.48 19.83,7.16 23.08,8.91 4.19,2.26 8.93,5.7 12.76,8.83 5.89,4.81 6.44,3.46 -1.14,11.48 -2.39,2.53 -8.1,4.93 -5.77,5.57l1.46 -0.89c0.88,-0.73 2.03,-1.26 2.96,-1.99 0.96,-0.75 1.97,-1.65 3.06,-2.68 1.29,-1.22 2.83,-2.83 3.95,-4.42 0.44,-0.67 0.84,-1.37 1.19,-2.08 2.86,-4.31 -3.02,-8.53 -5.19,-10.39 -7.67,-6.58 -25.28,-16.86 -34.42,-18.04 -0.66,1.52 -1.81,2.91 -2.43,4.49 -0.07,0.09 -0.17,0.2 -0.22,0.26l-0.41 0.53c-0.05,0.08 -0.13,0.19 -0.18,0.27 -2.94,4.48 -5.67,14.3 -6.15,19.29 -1.36,14.29 3.65,28.87 15.48,37.02 4.11,2.83 13.25,7.41 19.27,7.31 1.49,-1.11 3.79,-3.9 4.96,-5.38 3.27,-4.14 8.54,-12.58 10.27,-16.96 1.43,-3.6 3.09,-8.83 2.85,-12.73 -1.54,0.27 -4.19,2.22 -5.75,3.1 -1.04,0.59 -1.96,1.06 -3.03,1.44 -0.33,0.11 -1.17,0.45 -1.49,0.6l-1.44 0.8 1.06 0.6c1.8,-0.66 3.34,-1.47 4.81,-2.17 1.78,-0.84 2.51,-1.77 4.72,-2.27 -0.78,5.38 -2.03,9 -4.67,13.69 -1.3,2.31 -2.55,4.42 -3.67,6.84 -0.23,0.49 -0.27,0.4 -0.57,0.79 -0.95,1.23 -1.81,2.63 -2.72,3.92 -1.86,2.66 -3.55,3.78 -5.08,6.56 -5.48,-0.41 -12.78,-2.82 -16.27,-5.46 -3.29,-1.45 -8.89,-7.05 -10.91,-9.78 -8.33,-11.32 -8.8,-27.44 -3.71,-40.36 1.52,-3.86 2.84,-5.51 3.34,-6.7z"/>
   <path class="fil15 str4" d="M45.65 106c-0.98,-2.92 -1.78,-3.42 -2.14,-7.13 -0.3,-3.09 -0.73,-6.32 -0.13,-9.39 3.25,-16.47 19.07,-24.81 35.21,-23.5 -0.12,-0.04 -1.49,-0.38 -1.64,-0.42 -0.15,-0.04 -0.62,-0.14 -0.77,-0.18 -1.22,-0.34 -0.56,-0.09 -1.12,-0.37 -4.67,-1.62 -13.68,0.82 -17.91,2.54 -6.5,2.62 -5.41,3.16 -8.19,5 -6.08,4.03 -9.76,10.37 -9.8,19.05 -0.04,8.5 3.22,9.79 6.49,14.4z"/>
   <path class="fil9 str3" d="M121.81 122.95c0.5,3.86 4.02,14.06 3.71,21.25 -0.15,3.69 -2.87,8.39 -5.42,11.07 -3.41,3.55 -9.56,8.22 -14.13,10.18 -10.63,4.54 -17.65,3.94 -22.86,-4.56 -2.4,-3.91 -1.18,-9.46 -1.66,-14.51 -0.47,-4.9 -2.78,-9.15 -3.46,-13.2l-0.42 0.04c0.25,-0.45 0.11,-0.04 -0.9,-0.32 1.18,5.44 2.88,7.78 3.51,14.56 0.56,6.13 -0.67,9.96 2.31,14.91 5.35,8.92 14.84,8.03 24.31,3.88 7.29,-3.2 14.51,-9.22 18.38,-16.07 2.71,-4.79 1.6,-8.92 0.58,-14.76l-3.51 -13.91c-0.01,0.15 -0.13,0.82 -0.15,0.93 -0.02,0.08 -0.12,0.35 -0.14,0.3 -0.01,-0.05 -0.1,0.14 -0.15,0.21z"/>
   <path class="fil16 str2" d="M51.51 110.63l-3.66 -2.24 -2.2 -2.39c-3.27,-4.61 -6.53,-5.9 -6.49,-14.4 0.04,-8.68 3.72,-15.02 9.8,-19.05 2.78,-1.84 1.69,-2.38 8.19,-5 4.23,-1.72 13.24,-4.16 17.91,-2.54 2.35,0.11 3,0.8 5.11,0.27 -4.72,-3.96 -27.02,-2.24 -37.22,11.4 -6.25,8.35 -7.14,20.01 0.33,28.62 2.17,2.49 3.68,4.61 8.23,5.33z"/>
   <path class="fil13" d="M121.04 122.17c0.56,0.36 0.38,0.2 0.77,0.78 0.05,-0.07 0.14,-0.26 0.15,-0.21 0.02,0.05 0.12,-0.22 0.14,-0.3 0.02,-0.11 0.14,-0.78 0.15,-0.93 -0.05,-2.42 -4.81,-13.14 -6.15,-15.78 -2.48,-4.9 -5.14,-9.98 -8.08,-14 -5.66,-7.71 -13.51,-18.12 -21.41,-22.86l-0.29 0.77c0.77,1.87 3.58,2.18 5.75,4.91 1.46,1.84 0.77,1.33 2.56,2.75 1.49,1.18 1.58,1.48 2.76,2.96 1.77,2.24 3.18,2.91 4.88,5.77 2.79,4.67 5.18,5.97 8.72,12.83 3.1,6.03 6.68,12.09 8.69,18.75 0.33,1.11 0.9,3.43 1.36,4.56z"/>
   <path class="fil17" d="M210.43 97.89l-1.15 1.01c2.02,3.06 11.28,6.7 15.84,8.19 4.89,1.6 4.71,1.33 7.9,-1.38 2.32,-1.96 3.9,-4.29 6.02,-5.77 -0.54,-1.29 -3.08,-1.46 -4.42,-1.93 -1.83,-0.62 -3.34,-1.55 -5.23,-1.77 -2.61,-0.55 -0.46,-0.18 -1.42,0.43 2.15,0.51 2.79,1.16 4.44,1.77 0.82,0.3 1.54,0.53 2.29,0.83 2.21,0.87 1.3,0.01 2.62,1.59 -1.51,0.63 -2.5,2.02 -3.79,3.19 -0.58,0.53 -0.14,0.26 -1.02,0.75 -0.36,0.2 -0.55,0.19 -1.17,0.53l-1.76 1.44c-5.66,0.02 -12.91,-4.68 -17.32,-6.74 -3.19,-1.5 -1.69,0.49 -1.83,-2.14z"/>
   <path class="fil6 str2" d="M85.57 69.75l0.75 -0.11 0.29 -0.77c-1.36,-1.25 -3.56,-2.86 -5.87,-3.48l0.15 1.49c1.74,0.37 3.67,1.77 4.68,2.87z"/>
   <path class="fil6 str2" d="M111.29 48.06l0.4 -0.02c-0.06,-1.86 0.04,-0.78 -0.73,-1.58 -2.35,-2.4 -2.12,-2.93 -3.55,-3.51 -0.65,-0.27 -0.26,-0.2 -0.53,0.46 0.45,1.09 3.15,4.22 4.41,4.65z"/>
   <polygon class="fil18" points="58.19,144 65.2,137.58 70.78,136.56 72.77,140.67 73.95,146.52 74.07,154.42 68.6,157.28 63.29,161.27 60.59,151.06 58.35,145.55 "/>
   <path class="fil4" d="M67.13 157.41c-0.44,0.33 -3.1,2.49 -3.49,2.13 -0.5,-0.46 -0.97,-4.19 -1.42,-5.26 -0.51,-1.2 -0.81,-2.57 -1.26,-3.84 -0.54,-1.48 -1.16,-2.73 -1.78,-4.15 -0.78,-1.79 -0.05,-2.19 1.3,-3.23 1.47,-1.14 8.58,-6.77 10.17,-5.62 0.92,0.66 1.09,3.17 1.36,4.31 0.93,3.83 1.8,6.53 1.57,10.6 -0.04,0.68 -0.09,1.87 -0.73,2.29 -0.9,0.59 -2.91,1.22 -4.02,1.73 -0.62,0.3 -1.14,0.63 -1.7,1.04zm-22.18 -41.81c-2.03,0 -3.02,2.94 -4.95,6.29 -0.52,0.92 -4.03,7.09 -3.89,7.68 0.12,0.51 3.4,1.31 3.96,1.48 6.03,1.82 9.4,4.37 13.59,8.99 3.58,4.04 6.21,8.86 7.51,14.11 0.52,2.15 1.15,4.33 1.41,6.53 0.04,0.35 0.09,1.05 0.5,1.16 1.28,-0.04 1.87,-1.2 2.8,-1.99 2.7,-2.18 5.12,-3.06 8.15,-4.53 1.1,-0.54 0.76,-0.77 0.73,-1.92 -0.19,-8.39 -1,-11.8 -4.2,-19.58 -0.66,-1.58 -1.33,-2.75 -2.32,-4.13 -1.86,-2.52 -4.66,-5.68 -7.17,-7.54 -4.82,-3.58 -10.02,-6.22 -16.12,-6.55z"/>
   <path class="fil4" d="M129.92 121.59c1.15,-0.68 5.48,-1.13 6.69,-0.55 0.66,0.32 1.31,1.16 1.93,1.65 0.83,0.68 1.83,1.41 2.71,2.04 2.44,1.72 4.3,2.66 7.12,3.65 1.59,0.55 1.43,1.28 1.33,2.76 -0.07,1.13 -0.21,2.26 -0.3,3.39 -0.11,1.29 -0.2,2.59 -0.28,3.88 -0.12,2.1 -0.33,0.64 0.22,2.71l-15.11 2.48c-0.46,-3.97 -1.15,-7.58 -1.83,-11.27 -0.74,-4.05 -1.99,-6.99 -2.48,-10.74zm1.86 -12.11c-5.74,-22.17 13.62,-29.73 19.56,-28.37 0.45,-0.76 0.26,-0.3 0.34,-1.29 -5.42,-4.51 -4.3,-4.41 -12.16,-8.09 -13.83,-6.48 -28.76,-12.39 -37.61,-24.6 -3.17,1.42 -14.01,11.79 -15.8,13.98 2.9,2.65 7.61,4.67 14.07,11.53 10.13,10.75 20.26,25.59 25.23,39.3 0.78,2.17 2.65,8.26 3.36,9.49 1.71,8.58 3.32,14.09 3.96,23.33l17.52 -2.81c0.48,-4.27 0.8,-8.6 0.88,-12.9 0,-0.16 0.05,-0.84 -0.12,-0.92 -0.21,-0.1 -1.13,-0.35 -1.4,-0.43 -0.98,-0.3 -1.5,-0.48 -2.41,-0.95 -0.89,-0.45 -1.8,-0.94 -2.68,-1.4 -1.77,-0.94 -2.85,-1.79 -4.39,-3.04 -0.64,-0.52 -1.3,-1.01 -1.94,-1.53 -0.95,-0.77 -0.91,-1.21 -1.58,-2.15 -1.58,-2.25 -2.78,-3.72 -3.87,-6.31 -0.4,-0.95 -0.69,-1.86 -0.96,-2.84z"/>
   <polygon class="fil18" points="58.19,144 65.2,137.58 70.78,136.56 72.77,140.67 73.95,146.52 74.07,154.42 68.6,157.28 63.29,161.27 60.59,151.06 58.35,145.55 "/>
   <path class="fil4" d="M67.13 157.41c-0.44,0.33 -3.1,2.49 -3.49,2.13 -0.5,-0.46 -0.97,-4.19 -1.42,-5.26 -0.51,-1.2 -0.81,-2.57 -1.26,-3.84 -0.54,-1.48 -1.16,-2.73 -1.78,-4.15 -0.78,-1.79 -0.05,-2.19 1.3,-3.23 1.47,-1.14 8.58,-6.77 10.17,-5.62 0.92,0.66 1.09,3.17 1.36,4.31 0.93,3.83 1.8,6.53 1.57,10.6 -0.04,0.68 -0.09,1.87 -0.73,2.29 -0.9,0.59 -2.91,1.22 -4.02,1.73 -0.62,0.3 -1.14,0.63 -1.7,1.04zm-22.18 -41.81c-2.03,0 -3.02,2.94 -4.95,6.29 -0.52,0.92 -4.03,7.09 -3.89,7.68 0.12,0.51 3.4,1.31 3.96,1.48 6.03,1.82 9.4,4.37 13.59,8.99 3.58,4.04 6.21,8.86 7.51,14.11 0.52,2.15 1.15,4.33 1.41,6.53 0.04,0.35 0.09,1.05 0.5,1.16 1.28,-0.04 1.87,-1.2 2.8,-1.99 2.7,-2.18 5.12,-3.06 8.15,-4.53 1.1,-0.54 0.76,-0.77 0.73,-1.92 -0.19,-8.39 -1,-11.8 -4.2,-19.58 -0.66,-1.58 -1.33,-2.75 -2.32,-4.13 -1.86,-2.52 -4.66,-5.68 -7.17,-7.54 -4.82,-3.58 -10.02,-6.22 -16.12,-6.55z"/>
  </g>
  <g id="_1255696198512">
   <path class="fil19" d="M463.85 11.38l-37.34 0 0 137.55 -90.34 -137.55 -37.01 0 0 196.9 37.01 0 0 -133.33 90.34 133.33 37.34 0 0 -196.9zm28.66 196.9l111.01 0 0 -28.41 -74 0 0 -58.51 35.33 0 10.34 -29.53 -45.67 0 0 -49.51 74.67 0 0 -30.94 -111.68 0 0 196.9zm176.02 -196.9l-37 0 0 196.9 37 0 0 -104.08 38.67 104.08 27.67 0 39.34 -104.36 0 104.36 36.67 0 0 -196.9 -36.67 0 -53.34 138.39 -52.34 -138.39zm169.35 54l0 90.58c0,12.19 3.17,22.41 9.5,30.66 6.33,8.25 14.84,14.44 25.5,18.56 10.67,4.13 22.56,6.19 35.67,6.19 14,0 26.28,-2.2 36.84,-6.61 10.56,-4.4 18.72,-10.78 24.5,-19.12 5.78,-8.35 8.67,-18.24 8.67,-29.68l0 -90.29c0,-18.38 -6.11,-32.82 -18.34,-43.32 -12.22,-10.5 -29.33,-15.76 -51.33,-15.76 -22.01,0 -39.34,5.02 -52.01,15.05 -12.67,10.04 -19,24.62 -19,43.74zm37 84.95l0 -75.94c0,-8.07 1.17,-14.68 3.5,-19.84 2.34,-5.15 5.95,-8.95 10.84,-11.39 4.89,-2.44 11.22,-3.65 19,-3.65 8.45,0 15.11,1.26 20,3.79 4.89,2.53 8.34,6.33 10.34,11.4 2,5.06 3,11.62 3,19.69l0 75.66c0,5.82 -1.34,10.97 -4,15.47 -2.67,4.5 -6.45,7.97 -11.34,10.41 -4.89,2.44 -10.89,3.66 -18,3.66 -7.11,0 -13.17,-1.17 -18.17,-3.52 -5,-2.34 -8.78,-5.72 -11.33,-10.12 -2.56,-4.41 -3.84,-9.62 -3.84,-15.62z"/>
   <path class="fil19" d="M310.66 233.15l-11.5 0 0 29.53 3.75 0 0 -9.66 7.75 0c1.57,0 2.99,-0.16 4.25,-0.48 1.27,-0.33 2.35,-0.87 3.25,-1.63 0.9,-0.76 1.6,-1.78 2.08,-3.08 0.48,-1.29 0.73,-2.91 0.73,-4.85 0,-1.89 -0.25,-3.47 -0.76,-4.75 -0.5,-1.28 -1.21,-2.28 -2.15,-3.01 -0.93,-0.74 -2.02,-1.26 -3.27,-1.59 -1.25,-0.32 -2.63,-0.48 -4.13,-0.48zm-7.75 16.88l0 -13.84 7.25 0c1.07,0 2.04,0.09 2.9,0.27 0.87,0.18 1.61,0.51 2.23,0.97 0.62,0.46 1.08,1.15 1.4,2.05 0.32,0.9 0.47,2.06 0.47,3.5 0,1.55 -0.15,2.79 -0.47,3.73 -0.32,0.95 -0.79,1.65 -1.43,2.11 -0.63,0.47 -1.37,0.78 -2.22,0.95 -0.85,0.17 -1.81,0.26 -2.88,0.26l-7.25 0zm39.91 -4.77l-14.1 0 0 -12.11 -3.75 0 0 29.53 3.75 0 0 -14.38 14.1 0 0 14.38 3.7 0 0 -29.53 -3.7 0 0 12.11zm7.8 -9.24l3.4 0.08 0 26.58 3.7 0 0 -29.53 -7.1 0 0 2.87zm30.8 0.93l1.1 -2.62c-0.8,-0.37 -1.63,-0.66 -2.5,-0.89 -0.87,-0.22 -1.73,-0.39 -2.6,-0.5 -0.87,-0.12 -1.77,-0.17 -2.7,-0.17 -1.33,0 -2.66,0.12 -3.98,0.38 -1.31,0.25 -2.52,0.66 -3.62,1.22 -1.1,0.56 -1.98,1.32 -2.65,2.26 -0.67,0.94 -1,2.07 -1,3.4 0,1.09 0.25,2.05 0.75,2.86 0.5,0.82 1.18,1.53 2.05,2.14 0.87,0.6 1.85,1.14 2.95,1.62 1.1,0.48 2.22,0.91 3.35,1.31 1.13,0.39 2.24,0.8 3.33,1.22 1.08,0.42 2.05,0.89 2.92,1.39 0.87,0.51 1.56,1.09 2.08,1.73 0.51,0.65 0.77,1.42 0.77,2.32 0,0.99 -0.22,1.84 -0.67,2.56 -0.45,0.71 -1.06,1.29 -1.83,1.73 -0.77,0.43 -1.64,0.76 -2.62,0.97 -0.99,0.21 -2,0.31 -3.03,0.31 -1.1,0 -2.25,-0.12 -3.45,-0.38 -1.2,-0.25 -2.33,-0.62 -3.4,-1.11 -1.07,-0.5 -1.97,-1.12 -2.7,-1.88l-2.15 2.02c1,0.99 2.12,1.8 3.35,2.45 1.23,0.65 2.57,1.13 4,1.44 1.43,0.3 2.92,0.46 4.45,0.46 1.53,0 3.02,-0.16 4.45,-0.49 1.43,-0.32 2.73,-0.82 3.88,-1.49 1.15,-0.68 2.05,-1.54 2.72,-2.6 0.67,-1.05 1,-2.31 1,-3.77 0,-1.27 -0.26,-2.37 -0.77,-3.32 -0.52,-0.94 -1.22,-1.75 -2.1,-2.42 -0.89,-0.68 -1.87,-1.27 -2.95,-1.77 -1.09,-0.51 -2.21,-0.97 -3.38,-1.38 -1.17,-0.4 -2.29,-0.81 -3.37,-1.2 -1.09,-0.39 -2.07,-0.81 -2.96,-1.26 -0.88,-0.45 -1.58,-0.97 -2.1,-1.55 -0.51,-0.57 -0.77,-1.27 -0.77,-2.08 0,-0.82 0.23,-1.49 0.7,-2.03 0.47,-0.53 1.08,-0.95 1.85,-1.26 0.77,-0.31 1.58,-0.53 2.45,-0.66 0.87,-0.13 1.68,-0.19 2.45,-0.19 0.8,0 1.58,0.04 2.35,0.13 0.77,0.08 1.52,0.22 2.25,0.4 0.73,0.18 1.43,0.41 2.1,0.7zm26.2 8.31l-14.1 0 0 -12.11 -3.75 0 0 29.53 3.75 0 0 -14.38 14.1 0 0 14.38 3.7 0 0 -29.53 -3.7 0 0 12.11zm7.8 -9.24l3.4 0.08 0 26.58 3.7 0 0 -29.53 -7.1 0 0 2.87zm36.06 -2.87l-3.7 0 0 23.67 -17.2 -23.67 -3.75 0 0 29.53 3.75 0 0 -23.46 17.2 23.46 3.7 0 0 -29.53zm20.1 3.37l1.15 -2.36c-0.7,-0.31 -1.43,-0.57 -2.2,-0.78 -0.77,-0.21 -1.55,-0.37 -2.35,-0.46 -0.8,-0.1 -1.63,-0.15 -2.5,-0.15 -2.13,0 -3.94,0.33 -5.43,0.99 -1.48,0.66 -2.61,1.64 -3.4,2.93 -0.78,1.3 -1.17,2.87 -1.17,4.73l0 13.42c0,1.85 0.42,3.39 1.27,4.62 0.85,1.22 2.02,2.13 3.5,2.74 1.49,0.6 3.18,0.91 5.08,0.91 0.9,0 1.82,-0.09 2.75,-0.26 0.93,-0.17 1.82,-0.42 2.65,-0.76 0.83,-0.33 1.55,-0.74 2.15,-1.22l0.2 1.81 3 0 0 -12.65 -10.1 0 1.25 2.99 5.25 0 0 1.77c0,0.79 -0.18,1.52 -0.55,2.18 -0.37,0.66 -0.88,1.21 -1.53,1.66 -0.65,0.45 -1.4,0.8 -2.27,1.06 -0.87,0.25 -1.82,0.38 -2.85,0.38 -1.33,0 -2.45,-0.21 -3.35,-0.61 -0.9,-0.41 -1.58,-1.01 -2.03,-1.8 -0.45,-0.79 -0.67,-1.74 -0.67,-2.87l0 -13.71c0,-1.29 0.28,-2.33 0.85,-3.12 0.57,-0.79 1.37,-1.37 2.42,-1.73 1.05,-0.37 2.3,-0.55 3.73,-0.55 0.57,0 1.13,0.03 1.7,0.08 0.57,0.06 1.14,0.15 1.72,0.28 0.59,0.12 1.16,0.29 1.73,0.48zm41.35 0.43l1.1 -2.62c-0.8,-0.37 -1.63,-0.66 -2.5,-0.89 -0.86,-0.22 -1.73,-0.39 -2.6,-0.5 -0.86,-0.12 -1.76,-0.17 -2.7,-0.17 -1.33,0 -2.66,0.12 -3.97,0.38 -1.32,0.25 -2.53,0.66 -3.63,1.22 -1.1,0.56 -1.98,1.32 -2.65,2.26 -0.67,0.94 -1,2.07 -1,3.4 0,1.09 0.25,2.05 0.75,2.86 0.5,0.82 1.19,1.53 2.05,2.14 0.87,0.6 1.85,1.14 2.95,1.62 1.1,0.48 2.22,0.91 3.35,1.31 1.14,0.39 2.24,0.8 3.33,1.22 1.08,0.42 2.06,0.89 2.92,1.39 0.87,0.51 1.56,1.09 2.08,1.73 0.51,0.65 0.77,1.42 0.77,2.32 0,0.99 -0.22,1.84 -0.67,2.56 -0.45,0.71 -1.06,1.29 -1.83,1.73 -0.76,0.43 -1.64,0.76 -2.62,0.97 -0.99,0.21 -1.99,0.31 -3.03,0.31 -1.1,0 -2.25,-0.12 -3.45,-0.38 -1.2,-0.25 -2.33,-0.62 -3.4,-1.11 -1.06,-0.5 -1.97,-1.12 -2.7,-1.88l-2.15 2.02c1,0.99 2.12,1.8 3.35,2.45 1.24,0.65 2.57,1.13 4,1.44 1.44,0.3 2.92,0.46 4.45,0.46 1.54,0 3.02,-0.16 4.45,-0.49 1.44,-0.32 2.73,-0.82 3.88,-1.49 1.15,-0.68 2.06,-1.54 2.72,-2.6 0.67,-1.05 1,-2.31 1,-3.77 0,-1.27 -0.25,-2.37 -0.77,-3.32 -0.52,-0.94 -1.22,-1.75 -2.1,-2.42 -0.89,-0.68 -1.87,-1.27 -2.95,-1.77 -1.09,-0.51 -2.21,-0.97 -3.38,-1.38 -1.16,-0.4 -2.29,-0.81 -3.37,-1.2 -1.09,-0.39 -2.07,-0.81 -2.95,-1.26 -0.89,-0.45 -1.59,-0.97 -2.1,-1.55 -0.52,-0.57 -0.78,-1.27 -0.78,-2.08 0,-0.82 0.24,-1.49 0.7,-2.03 0.47,-0.53 1.09,-0.95 1.85,-1.26 0.77,-0.31 1.59,-0.53 2.45,-0.66 0.87,-0.13 1.69,-0.19 2.45,-0.19 0.8,0 1.59,0.04 2.35,0.13 0.77,0.08 1.52,0.22 2.25,0.4 0.74,0.18 1.44,0.41 2.1,0.7zm5 -0.93l3.4 0.08 0 26.58 3.7 0 0 -29.53 -7.1 0 0 2.87zm15.16 -2.87l-3.76 0 0 29.53 3.76 0 0 -20.25 7.95 20.25 3.4 0 8.05 -20.25 0 20.25 3.7 0 0 -29.53 -3.7 0 -9.8 24.17 -9.6 -24.17zm48.4 21.69l0 -21.69 -3.7 0 0 21.35c0,1.21 -0.28,2.23 -0.85,3.06 -0.57,0.83 -1.36,1.45 -2.38,1.87 -1.01,0.43 -2.2,0.64 -3.57,0.64 -1.4,0 -2.61,-0.21 -3.63,-0.64 -1.01,-0.42 -1.8,-1.04 -2.35,-1.85 -0.55,-0.82 -0.82,-1.83 -0.82,-3.04l0 -21.39 -3.75 0 0 21.69c0,1.82 0.45,3.36 1.35,4.59 0.9,1.24 2.15,2.17 3.75,2.79 1.6,0.62 3.43,0.93 5.5,0.93 2.07,0 3.88,-0.32 5.45,-0.95 1.57,-0.63 2.79,-1.57 3.67,-2.81 0.89,-1.24 1.33,-2.75 1.33,-4.55zm4.2 7.84l18.05 0 0 -2.82 -14.3 0 0 -26.71 -3.75 0 0 29.53zm46.9 0l-10.45 -29.53 -4.35 0 -10.35 29.53 4.1 0 3.3 -9.49 10.25 0 3.35 9.49 4.15 0zm-16.8 -12.65l4.1 -12.45 4.25 12.45 -8.35 0zm26.96 -13.93l8.35 0 0 -2.95 -20.16 0 0 2.95 8.16 0 0 26.58 3.65 0 0 -26.58zm11.65 -0.08l3.4 0.08 0 26.58 3.7 0 0 -29.53 -7.1 0 0 2.87zm11.1 5.23l0 13.59c0,1.82 0.47,3.36 1.42,4.59 0.95,1.24 2.23,2.17 3.83,2.79 1.6,0.62 3.38,0.93 5.35,0.93 2.07,0 3.89,-0.34 5.47,-1.02 1.59,-0.67 2.82,-1.63 3.7,-2.86 0.89,-1.24 1.33,-2.72 1.33,-4.43l0 -13.55c0,-2.76 -0.92,-4.91 -2.75,-6.48 -1.83,-1.56 -4.4,-2.34 -7.7,-2.34 -3.3,0 -5.9,0.75 -7.8,2.24 -1.9,1.49 -2.85,3.67 -2.85,6.54zm3.75 13.29l0 -13.08c0,-1.32 0.26,-2.41 0.8,-3.27 0.53,-0.86 1.31,-1.51 2.32,-1.94 1.02,-0.44 2.23,-0.66 3.63,-0.66 1.5,0 2.76,0.22 3.77,0.66 1.02,0.43 1.79,1.08 2.3,1.94 0.52,0.86 0.78,1.95 0.78,3.27l0 13.04c0,1.21 -0.28,2.23 -0.85,3.08 -0.57,0.84 -1.37,1.47 -2.4,1.88 -1.03,0.4 -2.23,0.61 -3.6,0.61 -1.34,0 -2.51,-0.21 -3.53,-0.64 -1.01,-0.42 -1.81,-1.04 -2.37,-1.87 -0.57,-0.83 -0.85,-1.84 -0.85,-3.02zm46.15 -21.39l-3.7 0 0 23.67 -17.2 -23.67 -3.75 0 0 29.53 3.75 0 0 -23.46 17.2 23.46 3.7 0 0 -29.53zm23.7 3.8l1.1 -2.62c-0.8,-0.37 -1.63,-0.66 -2.5,-0.89 -0.86,-0.22 -1.73,-0.39 -2.6,-0.5 -0.86,-0.12 -1.76,-0.17 -2.7,-0.17 -1.33,0 -2.65,0.12 -3.97,0.38 -1.32,0.25 -2.53,0.66 -3.63,1.22 -1.1,0.56 -1.98,1.32 -2.65,2.26 -0.66,0.94 -1,2.07 -1,3.4 0,1.09 0.25,2.05 0.75,2.86 0.5,0.82 1.19,1.53 2.05,2.14 0.87,0.6 1.85,1.14 2.95,1.62 1.1,0.48 2.22,0.91 3.35,1.31 1.14,0.39 2.25,0.8 3.33,1.22 1.08,0.42 2.06,0.89 2.92,1.39 0.87,0.51 1.56,1.09 2.08,1.73 0.52,0.65 0.77,1.42 0.77,2.32 0,0.99 -0.22,1.84 -0.67,2.56 -0.45,0.71 -1.06,1.29 -1.83,1.73 -0.76,0.43 -1.64,0.76 -2.62,0.97 -0.98,0.21 -1.99,0.31 -3.03,0.31 -1.1,0 -2.25,-0.12 -3.45,-0.38 -1.2,-0.25 -2.33,-0.62 -3.4,-1.11 -1.06,-0.5 -1.96,-1.12 -2.7,-1.88l-2.15 2.02c1,0.99 2.12,1.8 3.35,2.45 1.24,0.65 2.57,1.13 4,1.44 1.44,0.3 2.92,0.46 4.45,0.46 1.54,0 3.02,-0.16 4.45,-0.49 1.44,-0.32 2.73,-0.82 3.88,-1.49 1.15,-0.68 2.06,-1.54 2.72,-2.6 0.67,-1.05 1,-2.31 1,-3.77 0,-1.27 -0.25,-2.37 -0.77,-3.32 -0.52,-0.94 -1.22,-1.75 -2.1,-2.42 -0.88,-0.68 -1.87,-1.27 -2.95,-1.77 -1.08,-0.51 -2.21,-0.97 -3.38,-1.38 -1.16,-0.4 -2.29,-0.81 -3.37,-1.2 -1.09,-0.39 -2.07,-0.81 -2.95,-1.26 -0.89,-0.45 -1.59,-0.97 -2.1,-1.55 -0.52,-0.57 -0.78,-1.27 -0.78,-2.08 0,-0.82 0.24,-1.49 0.7,-2.03 0.47,-0.53 1.09,-0.95 1.85,-1.26 0.77,-0.31 1.59,-0.53 2.45,-0.66 0.87,-0.13 1.69,-0.19 2.45,-0.19 0.8,0 1.59,0.04 2.35,0.13 0.77,0.08 1.52,0.22 2.25,0.4 0.74,0.18 1.44,0.41 2.1,0.7zm38.81 -0.93l1.15 -3 -8.3 0c-1.5,0 -2.83,0.28 -3.98,0.82 -1.15,0.55 -2.02,1.31 -2.62,2.26 -0.6,0.96 -0.89,2.07 -0.85,3.33 0.03,0.71 0.19,1.44 0.47,2.2 0.29,0.76 0.73,1.49 1.33,2.19 0.6,0.71 1.4,1.32 2.4,1.86l-0.9 0c-0.9,0 -1.74,0.12 -2.5,0.36 -0.77,0.24 -1.44,0.61 -2,1.12 -0.57,0.5 -1,1.14 -1.3,1.92 -0.3,0.77 -0.45,1.7 -0.45,2.8l0 4.01c0,1.01 0.14,1.9 0.42,2.66 0.28,0.76 0.68,1.41 1.2,1.96 0.52,0.55 1.14,1 1.85,1.35 0.72,0.35 1.51,0.61 2.38,0.78 0.86,0.17 1.8,0.25 2.8,0.25 0.73,0 1.53,-0.09 2.4,-0.29 0.86,-0.2 1.72,-0.49 2.57,-0.87 0.85,-0.38 1.59,-0.86 2.23,-1.45 0.46,0.76 1.13,1.36 2,1.79 0.86,0.44 1.93,0.77 3.2,0.99l1 -2.44c-1.13,-0.23 -2.02,-0.64 -2.65,-1.23 -0.64,-0.59 -0.95,-1.42 -0.95,-2.49l0 -8.39 3.85 0 1.15 -2.87 -5 0 0 -4.35 -3.6 0 0 4.39 -1.85 0c-0.87,-0.14 -1.69,-0.38 -2.45,-0.72 -0.77,-0.34 -1.44,-0.76 -2.03,-1.26 -0.58,-0.51 -1.04,-1.09 -1.37,-1.76 -0.34,-0.66 -0.5,-1.37 -0.5,-2.13 0,-1.18 0.37,-2.11 1.12,-2.78 0.75,-0.68 1.78,-1.01 3.08,-1.01l6.7 0zm-2.7 12.44l0 6.88c0,0.85 -0.24,1.6 -0.7,2.26 -0.47,0.66 -1.11,1.19 -1.93,1.58 -0.81,0.39 -1.79,0.63 -2.92,0.72 -1.2,0.05 -2.21,-0.08 -3.03,-0.4 -0.81,-0.33 -1.45,-0.81 -1.9,-1.46 -0.45,-0.65 -0.67,-1.42 -0.67,-2.32l0 -3.75c0,-0.82 0.14,-1.45 0.42,-1.9 0.29,-0.45 0.65,-0.8 1.1,-1.04 0.45,-0.24 0.93,-0.39 1.43,-0.46 0.5,-0.07 0.96,-0.11 1.4,-0.11l6.8 0zm36.4 -12.36l8.35 0 0 -2.95 -20.15 0 0 2.95 8.15 0 0 26.58 3.65 0 0 -26.58zm23.35 -2.95l-11.5 0 0 29.53 3.75 0 0 -9.66 7.75 0c0.3,0 0.59,0 0.85,0 0.27,0 0.54,-0.01 0.8,-0.04 0.27,-0.03 0.54,-0.06 0.8,-0.09l4.15 9.79 3.9 0 -4.7 -10.71c1,-0.48 1.83,-1.11 2.48,-1.88 0.65,-0.78 1.15,-1.75 1.5,-2.91 0.35,-1.17 0.52,-2.57 0.52,-4.2 0,-1.89 -0.25,-3.47 -0.75,-4.75 -0.5,-1.28 -1.21,-2.28 -2.15,-3.01 -0.93,-0.74 -2.02,-1.26 -3.27,-1.59 -1.25,-0.32 -2.63,-0.48 -4.13,-0.48zm-0.5 16.88l-7.25 0 0 -13.84 7.25 0c1.07,0 2.04,0.09 2.9,0.27 0.87,0.18 1.61,0.51 2.23,0.97 0.62,0.46 1.08,1.15 1.4,2.05 0.32,0.9 0.47,2.06 0.47,3.5 0,1.55 -0.15,2.79 -0.47,3.73 -0.32,0.95 -0.79,1.65 -1.43,2.11 -0.63,0.47 -1.37,0.78 -2.22,0.95 -0.85,0.17 -1.81,0.26 -2.88,0.26zm39.81 12.65l-10.45 -29.53 -4.35 0 -10.36 29.53 4.1 0 3.31 -9.49 10.25 0 3.35 9.49 4.15 0zm-16.8 -12.65l4.1 -12.45 4.25 12.45 -8.35 0zm17.4 -14.01l3.4 0.08 0 26.58 3.7 0 0 -29.53 -7.1 0 0 2.87zm36.05 -2.87l-3.7 0 0 23.67 -17.2 -23.67 -3.75 0 0 29.53 3.75 0 0 -23.46 17.2 23.46 3.7 0 0 -29.53zm4.1 2.87l3.4 0.08 0 26.58 3.7 0 0 -29.53 -7.1 0 0 2.87zm36.05 -2.87l-3.7 0 0 23.67 -17.2 -23.67 -3.75 0 0 29.53 3.75 0 0 -23.46 17.2 23.46 3.7 0 0 -29.53zm20.11 3.37l1.15 -2.36c-0.7,-0.31 -1.44,-0.57 -2.2,-0.78 -0.77,-0.21 -1.55,-0.37 -2.35,-0.46 -0.8,-0.1 -1.64,-0.15 -2.5,-0.15 -2.14,0 -3.95,0.33 -5.43,0.99 -1.48,0.66 -2.62,1.64 -3.4,2.93 -0.78,1.3 -1.17,2.87 -1.17,4.73l0 13.42c0,1.85 0.42,3.39 1.27,4.62 0.85,1.22 2.02,2.13 3.5,2.74 1.48,0.6 3.18,0.91 5.08,0.91 0.9,0 1.81,-0.09 2.75,-0.26 0.93,-0.17 1.81,-0.42 2.65,-0.76 0.83,-0.33 1.55,-0.74 2.15,-1.22l0.2 1.81 3 0 0 -12.65 -10.1 0 1.25 2.99 5.25 0 0 1.77c0,0.79 -0.19,1.52 -0.55,2.18 -0.37,0.66 -0.88,1.21 -1.53,1.66 -0.65,0.45 -1.41,0.8 -2.27,1.06 -0.87,0.25 -1.82,0.38 -2.85,0.38 -1.34,0 -2.45,-0.21 -3.35,-0.61 -0.9,-0.41 -1.58,-1.01 -2.03,-1.8 -0.45,-0.79 -0.67,-1.74 -0.67,-2.87l0 -13.71c0,-1.29 0.28,-2.33 0.85,-3.12 0.56,-0.79 1.37,-1.37 2.42,-1.73 1.05,-0.37 2.29,-0.55 3.73,-0.55 0.56,0 1.13,0.03 1.7,0.08 0.56,0.06 1.14,0.15 1.72,0.28 0.58,0.12 1.16,0.29 1.73,0.48z"/>
  </g>
 </g>
</svg>
