<?xml version="1.0" encoding="UTF-8"?>
<!DOCTYPE svg PUBLIC "-//W3C//DTD SVG 1.1//EN" "http://www.w3.org/Graphics/SVG/1.1/DTD/svg11.dtd">
<!-- Creator: CorelDRAW (Versão OEM) -->
<svg xmlns="http://www.w3.org/2000/svg" xml:space="preserve" width="1000px" height="369px" version="1.1" style="shape-rendering:geometricPrecision; text-rendering:geometricPrecision; image-rendering:optimizeQuality; fill-rule:evenodd; clip-rule:evenodd"
viewBox="0 0 1000 368.71"
 xmlns:xlink="http://www.w3.org/1999/xlink"
 xmlns:xodm="http://www.corel.com/coreldraw/odm/2003">
 <defs>
  <style type="text/css">
   <![CDATA[
    .str3 {stroke:#C86C45;stroke-width:0.36;stroke-miterlimit:22.9256}
    .str1 {stroke:#D96029;stroke-width:0.36;stroke-miterlimit:22.9256}
    .str2 {stroke:#E89A65;stroke-width:0.36;stroke-miterlimit:22.9256}
    .str0 {stroke:#EE7828;stroke-width:0.36;stroke-miterlimit:22.9256}
    .str4 {stroke:#F4924D;stroke-width:0.36;stroke-miterlimit:22.9256}
    .fil1 {fill:#102A47}
    .fil11 {fill:#C86C45}
    .fil7 {fill:#D45B23}
    .fil12 {fill:#D5D8DC}
    .fil4 {fill:#D95E26}
    .fil10 {fill:#D96029}
    .fil14 {fill:#D96029}
    .fil15 {fill:#D9884F}
    .fil20 {fill:#D9DCDD}
    .fil3 {fill:#DB5E24}
    .fil19 {fill:#E6ECF3}
    .fil18 {fill:#E89A65}
    .fil8 {fill:#E89A65}
    .fil9 {fill:#EA762A}
    .fil16 {fill:#EC924C}
    .fil5 {fill:#ED7729}
    .fil2 {fill:#EE7828}
    .fil17 {fill:#F38D49}
    .fil13 {fill:#F4924D}
    .fil6 {fill:#FCFCFC}
    .fil0 {fill:#102A47;fill-rule:nonzero}
   ]]>
  </style>
 </defs>
 <g id="Camada_x0020_1">
  <metadata id="CorelCorpID_0Corel-Layer"/>
  <g id="_2234669663200">
   <g>
    <path class="fil0" d="M473.85 75.95l-32.77 0 0 120.72 -79.29 -120.72 -32.47 0 0 172.81 32.47 0 0 -117.02 79.29 117.02 32.77 0 0 -172.81zm25.16 172.81l97.42 0 0 -24.93 -64.95 0 0 -51.35 31.01 0 9.07 -25.92 -40.08 0 0 -43.45 65.54 0 0 -27.16 -98.01 0 0 172.81zm154.47 -172.81l-32.47 0 0 172.81 32.47 0 0 -91.34 33.94 91.34 24.29 0 34.52 -91.59 0 91.59 32.18 0 0 -172.81 -32.18 0 -46.81 121.46 -45.94 -121.46zm148.63 47.4l0 79.49c0,10.7 2.78,19.67 8.34,26.91 5.56,7.24 13.02,12.67 22.38,16.29 9.36,3.62 19.8,5.43 31.3,5.43 12.29,0 23.07,-1.93 32.33,-5.8 9.27,-3.86 16.44,-9.46 21.51,-16.78 5.07,-7.33 7.6,-16.01 7.6,-26.05l0 -79.24c0,-16.13 -5.36,-28.8 -16.09,-38.02 -10.72,-9.22 -25.74,-13.83 -45.05,-13.83 -19.31,0 -34.53,4.41 -45.64,13.21 -11.12,8.81 -16.68,21.6 -16.68,38.39zm32.47 74.55l0 -66.65c0,-7.08 1.03,-12.88 3.08,-17.4 2.04,-4.53 5.21,-7.86 9.51,-10 4.29,-2.14 9.85,-3.21 16.67,-3.21 7.41,0 13.27,1.11 17.56,3.33 4.29,2.22 7.31,5.56 9.07,10 1.75,4.44 2.63,10.2 2.63,17.28l0 66.41c0,5.1 -1.17,9.63 -3.51,13.58 -2.34,3.95 -5.66,6.99 -9.95,9.13 -4.29,2.14 -9.56,3.21 -15.8,3.21 -6.24,0 -11.55,-1.03 -15.94,-3.09 -4.39,-2.05 -7.71,-5.02 -9.95,-8.88 -2.24,-3.87 -3.37,-8.44 -3.37,-13.71z"/>
    <path class="fil0" d="M339.41 270.58l-10.09 0 0 25.93 3.29 0 0 -8.48 6.8 0c1.38,0 2.62,-0.15 3.73,-0.43 1.11,-0.28 2.06,-0.76 2.85,-1.43 0.79,-0.66 1.4,-1.56 1.82,-2.7 0.43,-1.13 0.64,-2.55 0.64,-4.26 0,-1.65 -0.22,-3.04 -0.66,-4.16 -0.44,-1.13 -1.07,-2.01 -1.88,-2.65 -0.82,-0.64 -1.78,-1.11 -2.88,-1.39 -1.1,-0.28 -2.3,-0.43 -3.62,-0.43zm-6.8 14.82l0 -12.15 6.36 0c0.94,0 1.79,0.08 2.55,0.24 0.76,0.16 1.41,0.45 1.95,0.85 0.54,0.41 0.95,1.01 1.23,1.8 0.28,0.79 0.42,1.81 0.42,3.07 0,1.36 -0.14,2.45 -0.42,3.28 -0.28,0.83 -0.7,1.44 -1.25,1.85 -0.56,0.41 -1.21,0.69 -1.96,0.83 -0.74,0.15 -1.58,0.23 -2.52,0.23l-6.36 0zm35.02 -4.19l-12.38 0 0 -10.63 -3.29 0 0 25.93 3.29 0 0 -12.63 12.38 0 0 12.63 3.25 0 0 -25.93 -3.25 0 0 10.63zm6.85 -8.11l2.98 0.08 0 23.33 3.25 0 0 -25.93 -6.23 0 0 2.52zm27.03 0.82l0.96 -2.3c-0.7,-0.32 -1.43,-0.58 -2.19,-0.78 -0.76,-0.19 -1.52,-0.34 -2.28,-0.44 -0.76,-0.1 -1.55,-0.15 -2.37,-0.15 -1.17,0 -2.34,0.11 -3.49,0.33 -1.16,0.23 -2.22,0.58 -3.18,1.08 -0.97,0.49 -1.74,1.15 -2.33,1.98 -0.58,0.83 -0.88,1.82 -0.88,2.98 0,0.96 0.22,1.8 0.66,2.52 0.44,0.71 1.04,1.34 1.8,1.87 0.76,0.53 1.63,1 2.59,1.42 0.97,0.42 1.95,0.81 2.94,1.15 1,0.35 1.97,0.71 2.92,1.08 0.95,0.37 1.81,0.77 2.57,1.22 0.76,0.44 1.36,0.95 1.82,1.52 0.45,0.56 0.68,1.24 0.68,2.03 0,0.87 -0.2,1.61 -0.59,2.24 -0.4,0.63 -0.93,1.14 -1.61,1.52 -0.67,0.38 -1.44,0.67 -2.3,0.85 -0.86,0.19 -1.75,0.28 -2.66,0.28 -0.96,0 -1.97,-0.11 -3.02,-0.33 -1.06,-0.22 -2.05,-0.55 -2.99,-0.98 -0.93,-0.44 -1.72,-0.98 -2.37,-1.65l-1.88 1.78c0.87,0.86 1.85,1.58 2.94,2.14 1.08,0.57 2.25,0.99 3.51,1.26 1.25,0.27 2.56,0.41 3.9,0.41 1.35,0 2.65,-0.14 3.91,-0.43 1.26,-0.28 2.39,-0.72 3.4,-1.31 1.01,-0.59 1.81,-1.35 2.39,-2.28 0.59,-0.92 0.88,-2.03 0.88,-3.31 0,-1.11 -0.23,-2.08 -0.68,-2.91 -0.46,-0.83 -1.07,-1.54 -1.84,-2.13 -0.78,-0.59 -1.64,-1.11 -2.59,-1.55 -0.95,-0.45 -1.94,-0.85 -2.97,-1.21 -1.02,-0.35 -2.01,-0.71 -2.96,-1.05 -0.95,-0.35 -1.81,-0.72 -2.59,-1.11 -0.77,-0.4 -1.39,-0.85 -1.84,-1.35 -0.45,-0.51 -0.68,-1.12 -0.68,-1.84 0,-0.71 0.2,-1.31 0.61,-1.77 0.41,-0.47 0.95,-0.84 1.63,-1.12 0.67,-0.27 1.39,-0.46 2.15,-0.57 0.76,-0.11 1.47,-0.17 2.15,-0.17 0.7,0 1.39,0.04 2.06,0.11 0.67,0.08 1.33,0.2 1.98,0.36 0.64,0.16 1.25,0.36 1.84,0.61zm22.99 7.29l-12.37 0 0 -10.63 -3.29 0 0 25.93 3.29 0 0 -12.63 12.37 0 0 12.63 3.25 0 0 -25.93 -3.25 0 0 10.63zm6.85 -8.11l2.98 0.08 0 23.33 3.25 0 0 -25.93 -6.23 0 0 2.52zm31.64 -2.52l-3.25 0 0 20.78 -15.09 -20.78 -3.29 0 0 25.93 3.29 0 0 -20.59 15.09 20.59 3.25 0 0 -25.93zm17.64 2.97l1.01 -2.08c-0.61,-0.27 -1.26,-0.5 -1.93,-0.68 -0.67,-0.19 -1.36,-0.32 -2.06,-0.41 -0.7,-0.09 -1.43,-0.13 -2.19,-0.13 -1.88,0 -3.46,0.29 -4.77,0.87 -1.3,0.58 -2.29,1.44 -2.98,2.58 -0.69,1.13 -1.03,2.51 -1.03,4.14l0 11.78c0,1.63 0.37,2.98 1.12,4.05 0.74,1.08 1.77,1.88 3.07,2.41 1.3,0.53 2.79,0.8 4.45,0.8 0.79,0 1.6,-0.08 2.42,-0.23 0.82,-0.14 1.59,-0.37 2.32,-0.66 0.73,-0.3 1.36,-0.66 1.89,-1.08l0.18 1.6 2.63 0 0 -11.11 -8.87 0 1.1 2.63 4.61 0 0 1.55c0,0.69 -0.16,1.33 -0.48,1.91 -0.33,0.58 -0.77,1.07 -1.34,1.46 -0.57,0.4 -1.24,0.7 -2,0.93 -0.76,0.22 -1.59,0.33 -2.5,0.33 -1.17,0 -2.15,-0.18 -2.94,-0.54 -0.79,-0.36 -1.38,-0.88 -1.78,-1.57 -0.39,-0.69 -0.59,-1.53 -0.59,-2.52l0 -12.03c0,-1.14 0.25,-2.05 0.75,-2.74 0.49,-0.7 1.2,-1.2 2.12,-1.52 0.93,-0.32 2.02,-0.48 3.27,-0.48 0.5,0 1,0.02 1.5,0.07 0.49,0.05 1,0.13 1.51,0.24 0.51,0.11 1.02,0.25 1.51,0.43zm36.3 0.37l0.96 -2.3c-0.7,-0.32 -1.43,-0.58 -2.19,-0.78 -0.76,-0.19 -1.52,-0.34 -2.28,-0.44 -0.76,-0.1 -1.55,-0.15 -2.37,-0.15 -1.17,0 -2.34,0.11 -3.49,0.33 -1.16,0.23 -2.22,0.58 -3.18,1.08 -0.97,0.49 -1.75,1.15 -2.33,1.98 -0.59,0.83 -0.88,1.82 -0.88,2.98 0,0.96 0.22,1.8 0.66,2.52 0.44,0.71 1.04,1.34 1.8,1.87 0.76,0.53 1.62,1 2.59,1.42 0.96,0.42 1.94,0.81 2.94,1.15 0.99,0.35 1.97,0.71 2.92,1.08 0.95,0.37 1.8,0.77 2.56,1.22 0.77,0.44 1.37,0.95 1.83,1.52 0.45,0.56 0.68,1.24 0.68,2.03 0,0.87 -0.2,1.61 -0.6,2.24 -0.39,0.63 -0.92,1.14 -1.6,1.52 -0.67,0.38 -1.44,0.67 -2.3,0.85 -0.87,0.19 -1.75,0.28 -2.66,0.28 -0.96,0 -1.97,-0.11 -3.03,-0.33 -1.05,-0.22 -2.04,-0.55 -2.98,-0.98 -0.94,-0.44 -1.73,-0.98 -2.37,-1.65l-1.89 1.78c0.88,0.86 1.86,1.58 2.94,2.14 1.09,0.57 2.26,0.99 3.52,1.26 1.25,0.27 2.55,0.41 3.9,0.41 1.35,0 2.65,-0.14 3.91,-0.43 1.25,-0.28 2.39,-0.72 3.4,-1.31 1.01,-0.59 1.8,-1.35 2.39,-2.28 0.58,-0.92 0.88,-2.03 0.88,-3.31 0,-1.11 -0.23,-2.08 -0.68,-2.91 -0.46,-0.83 -1.07,-1.54 -1.85,-2.13 -0.77,-0.59 -1.63,-1.11 -2.59,-1.55 -0.95,-0.45 -1.93,-0.85 -2.96,-1.21 -1.02,-0.35 -2.01,-0.71 -2.96,-1.05 -0.95,-0.35 -1.81,-0.72 -2.59,-1.11 -0.77,-0.4 -1.39,-0.85 -1.84,-1.35 -0.46,-0.51 -0.68,-1.12 -0.68,-1.84 0,-0.71 0.2,-1.31 0.61,-1.77 0.41,-0.47 0.95,-0.84 1.63,-1.12 0.67,-0.27 1.39,-0.46 2.15,-0.57 0.76,-0.11 1.47,-0.17 2.15,-0.17 0.7,0 1.39,0.04 2.06,0.11 0.67,0.08 1.33,0.2 1.97,0.36 0.65,0.16 1.26,0.36 1.85,0.61zm4.39 -0.82l2.98 0.08 0 23.33 3.25 0 0 -25.93 -6.23 0 0 2.52zm13.29 -2.52l-3.29 0 0 25.93 3.29 0 0 -17.78 6.98 17.78 2.98 0 7.07 -17.78 0 17.78 3.25 0 0 -25.93 -3.25 0 -8.6 21.22 -8.43 -21.22zm42.48 19.04l0 -19.04 -3.24 0 0 18.74c0,1.06 -0.25,1.96 -0.75,2.69 -0.5,0.72 -1.19,1.27 -2.08,1.64 -0.9,0.37 -1.94,0.56 -3.14,0.56 -1.23,0 -2.29,-0.19 -3.18,-0.56 -0.9,-0.37 -1.58,-0.91 -2.07,-1.62 -0.48,-0.72 -0.72,-1.61 -0.72,-2.67l0 -18.78 -3.29 0 0 19.04c0,1.6 0.39,2.95 1.18,4.03 0.79,1.09 1.89,1.91 3.29,2.45 1.41,0.54 3.02,0.81 4.83,0.81 1.82,0 3.41,-0.27 4.79,-0.83 1.37,-0.56 2.45,-1.38 3.22,-2.46 0.78,-1.09 1.16,-2.42 1.16,-4zm3.69 6.89l15.84 0 0 -2.49 -12.55 0 0 -23.44 -3.29 0 0 25.93zm41.16 0l-9.17 -25.93 -3.82 0 -9.08 25.93 3.6 0 2.9 -8.34 8.99 0 2.94 8.34 3.64 0zm-14.74 -11.11l3.6 -10.93 3.73 10.93 -7.33 0zm23.65 -12.22l7.33 0 0 -2.6 -17.68 0 0 2.6 7.15 0 0 23.33 3.2 0 0 -23.33zm10.23 -0.08l2.98 0.08 0 23.33 3.25 0 0 -25.93 -6.23 0 0 2.52zm9.74 4.59l0 11.93c0,1.6 0.42,2.95 1.25,4.03 0.84,1.09 1.95,1.91 3.36,2.45 1.4,0.54 2.97,0.81 4.69,0.81 1.82,0 3.42,-0.29 4.81,-0.89 1.39,-0.59 2.47,-1.43 3.25,-2.51 0.77,-1.09 1.16,-2.39 1.16,-3.89l0 -11.89c0,-2.42 -0.8,-4.31 -2.41,-5.68 -1.61,-1.37 -3.86,-2.06 -6.76,-2.06 -2.9,0 -5.18,0.66 -6.85,1.96 -1.66,1.31 -2.5,3.23 -2.5,5.74zm3.29 11.67l0 -11.48c0,-1.16 0.24,-2.12 0.7,-2.87 0.47,-0.75 1.15,-1.32 2.05,-1.7 0.89,-0.39 1.95,-0.58 3.18,-0.58 1.31,0 2.42,0.19 3.31,0.58 0.89,0.38 1.57,0.95 2.02,1.7 0.45,0.75 0.68,1.71 0.68,2.87l0 11.44c0,1.06 -0.25,1.96 -0.75,2.71 -0.49,0.74 -1.2,1.28 -2.1,1.64 -0.91,0.36 -1.96,0.54 -3.16,0.54 -1.17,0 -2.2,-0.19 -3.1,-0.56 -0.89,-0.37 -1.58,-0.92 -2.08,-1.64 -0.5,-0.73 -0.75,-1.61 -0.75,-2.65zm40.51 -18.78l-3.25 0 0 20.78 -15.1 -20.78 -3.29 0 0 25.93 3.29 0 0 -20.59 15.1 20.59 3.25 0 0 -25.93zm20.8 3.34l0.97 -2.3c-0.71,-0.32 -1.44,-0.58 -2.2,-0.78 -0.76,-0.19 -1.52,-0.34 -2.28,-0.44 -0.76,-0.1 -1.55,-0.15 -2.37,-0.15 -1.17,0 -2.33,0.11 -3.49,0.33 -1.15,0.23 -2.22,0.58 -3.18,1.08 -0.97,0.49 -1.74,1.15 -2.33,1.98 -0.58,0.83 -0.87,1.82 -0.87,2.98 0,0.96 0.22,1.8 0.65,2.52 0.44,0.71 1.04,1.34 1.8,1.87 0.76,0.53 1.63,1 2.59,1.42 0.97,0.42 1.95,0.81 2.94,1.15 1,0.35 1.97,0.71 2.92,1.08 0.95,0.37 1.81,0.77 2.57,1.22 0.76,0.44 1.37,0.95 1.82,1.52 0.45,0.56 0.68,1.24 0.68,2.03 0,0.87 -0.2,1.61 -0.59,2.24 -0.4,0.63 -0.93,1.14 -1.6,1.52 -0.68,0.38 -1.45,0.67 -2.31,0.85 -0.86,0.19 -1.75,0.28 -2.65,0.28 -0.97,0 -1.98,-0.11 -3.03,-0.33 -1.05,-0.22 -2.05,-0.55 -2.99,-0.98 -0.93,-0.44 -1.72,-0.98 -2.37,-1.65l-1.88 1.78c0.88,0.86 1.86,1.58 2.94,2.14 1.08,0.57 2.25,0.99 3.51,1.26 1.26,0.27 2.56,0.41 3.9,0.41 1.35,0 2.65,-0.14 3.91,-0.43 1.26,-0.28 2.39,-0.72 3.4,-1.31 1.01,-0.59 1.81,-1.35 2.39,-2.28 0.59,-0.92 0.88,-2.03 0.88,-3.31 0,-1.11 -0.23,-2.08 -0.68,-2.91 -0.45,-0.83 -1.07,-1.54 -1.84,-2.13 -0.78,-0.59 -1.64,-1.11 -2.59,-1.55 -0.95,-0.45 -1.94,-0.85 -2.96,-1.21 -1.03,-0.35 -2.02,-0.71 -2.97,-1.05 -0.95,-0.35 -1.81,-0.72 -2.59,-1.11 -0.77,-0.4 -1.39,-0.85 -1.84,-1.35 -0.45,-0.51 -0.68,-1.12 -0.68,-1.84 0,-0.71 0.21,-1.31 0.62,-1.77 0.41,-0.47 0.95,-0.84 1.62,-1.12 0.67,-0.27 1.39,-0.46 2.15,-0.57 0.76,-0.11 1.48,-0.17 2.15,-0.17 0.7,0 1.39,0.04 2.06,0.11 0.68,0.08 1.33,0.2 1.98,0.36 0.64,0.16 1.26,0.36 1.84,0.61zm34.06 -0.82l1 -2.63 -7.28 0c-1.32,0 -2.48,0.24 -3.49,0.73 -1.01,0.48 -1.78,1.14 -2.3,1.98 -0.53,0.84 -0.78,1.81 -0.75,2.92 0.03,0.62 0.17,1.26 0.42,1.93 0.25,0.66 0.63,1.31 1.16,1.92 0.53,0.62 1.23,1.16 2.11,1.63l-0.79 0c-0.79,0 -1.52,0.11 -2.2,0.32 -0.67,0.21 -1.25,0.53 -1.75,0.98 -0.5,0.44 -0.88,1 -1.14,1.68 -0.27,0.68 -0.4,1.5 -0.4,2.47l0 3.51c0,0.89 0.13,1.67 0.37,2.34 0.25,0.66 0.6,1.24 1.06,1.72 0.45,0.48 0.99,0.88 1.62,1.18 0.63,0.31 1.33,0.54 2.09,0.69 0.76,0.15 1.58,0.22 2.45,0.22 0.65,0 1.35,-0.09 2.11,-0.26 0.76,-0.17 1.51,-0.42 2.26,-0.76 0.75,-0.33 1.4,-0.76 1.95,-1.28 0.41,0.67 1,1.2 1.76,1.58 0.76,0.38 1.7,0.67 2.81,0.87l0.88 -2.15c-1,-0.2 -1.77,-0.55 -2.33,-1.07 -0.56,-0.52 -0.83,-1.25 -0.83,-2.19l0 -7.37 3.37 0 1.01 -2.51 -4.38 0 0 -3.82 -3.16 0 0 3.85 -1.63 0c-0.76,-0.12 -1.48,-0.33 -2.15,-0.63 -0.67,-0.29 -1.26,-0.66 -1.78,-1.11 -0.51,-0.44 -0.91,-0.95 -1.2,-1.53 -0.3,-0.58 -0.44,-1.21 -0.44,-1.87 0,-1.04 0.33,-1.86 0.99,-2.45 0.65,-0.59 1.55,-0.89 2.69,-0.89l5.89 0zm-2.37 10.93l0 6.03c0,0.74 -0.21,1.4 -0.62,1.98 -0.41,0.58 -0.97,1.05 -1.69,1.39 -0.71,0.35 -1.57,0.56 -2.57,0.63 -1.05,0.05 -1.93,-0.07 -2.65,-0.35 -0.72,-0.28 -1.27,-0.71 -1.67,-1.28 -0.39,-0.57 -0.59,-1.24 -0.59,-2.03l0 -3.3c0,-0.72 0.12,-1.27 0.37,-1.67 0.25,-0.39 0.57,-0.69 0.97,-0.9 0.39,-0.21 0.81,-0.35 1.25,-0.41 0.44,-0.06 0.85,-0.09 1.23,-0.09l5.97 0zm31.94 -10.85l7.33 0 0 -2.6 -17.68 0 0 2.6 7.15 0 0 23.33 3.2 0 0 -23.33zm20.5 -2.6l-10.09 0 0 25.93 3.29 0 0 -8.48 6.8 0c0.26,0 0.51,0 0.74,0 0.24,0 0.47,-0.02 0.71,-0.04 0.23,-0.03 0.47,-0.05 0.7,-0.08l3.64 8.6 3.42 0 -4.12 -9.41c0.88,-0.42 1.6,-0.97 2.17,-1.65 0.57,-0.68 1.01,-1.53 1.32,-2.55 0.31,-1.03 0.46,-2.26 0.46,-3.69 0,-1.65 -0.22,-3.04 -0.66,-4.16 -0.44,-1.13 -1.07,-2.01 -1.89,-2.65 -0.82,-0.64 -1.77,-1.11 -2.87,-1.39 -1.1,-0.28 -2.3,-0.43 -3.62,-0.43zm-0.44 14.82l-6.36 0 0 -12.15 6.36 0c0.94,0 1.78,0.08 2.55,0.24 0.76,0.16 1.41,0.45 1.95,0.85 0.54,0.41 0.95,1.01 1.23,1.8 0.27,0.79 0.41,1.81 0.41,3.07 0,1.36 -0.14,2.45 -0.41,3.28 -0.28,0.83 -0.7,1.44 -1.25,1.85 -0.56,0.41 -1.21,0.69 -1.96,0.83 -0.74,0.15 -1.58,0.23 -2.52,0.23zm34.93 11.11l-9.17 -25.93 -3.82 0 -9.08 25.93 3.6 0 2.89 -8.34 9 0 2.94 8.34 3.64 0zm-14.74 -11.11l3.6 -10.93 3.73 10.93 -7.33 0zm15.27 -12.3l2.98 0.08 0 23.33 3.25 0 0 -25.93 -6.23 0 0 2.52zm31.64 -2.52l-3.25 0 0 20.78 -15.09 -20.78 -3.29 0 0 25.93 3.29 0 0 -20.59 15.09 20.59 3.25 0 0 -25.93zm3.6 2.52l2.98 0.08 0 23.33 3.25 0 0 -25.93 -6.23 0 0 2.52zm31.64 -2.52l-3.25 0 0 20.78 -15.09 -20.78 -3.29 0 0 25.93 3.29 0 0 -20.59 15.09 20.59 3.25 0 0 -25.93zm17.64 2.97l1.01 -2.08c-0.61,-0.27 -1.26,-0.5 -1.93,-0.68 -0.67,-0.19 -1.36,-0.32 -2.06,-0.41 -0.7,-0.09 -1.44,-0.13 -2.2,-0.13 -1.87,0 -3.46,0.29 -4.76,0.87 -1.3,0.58 -2.29,1.44 -2.98,2.58 -0.69,1.13 -1.03,2.51 -1.03,4.14l0 11.78c0,1.63 0.37,2.98 1.12,4.05 0.74,1.08 1.77,1.88 3.07,2.41 1.3,0.53 2.78,0.8 4.45,0.8 0.79,0 1.6,-0.08 2.42,-0.23 0.82,-0.14 1.59,-0.37 2.32,-0.66 0.73,-0.3 1.36,-0.66 1.89,-1.08l0.17 1.6 2.64 0 0 -11.11 -8.87 0 1.1 2.63 4.61 0 0 1.55c0,0.69 -0.16,1.33 -0.48,1.91 -0.33,0.58 -0.77,1.07 -1.34,1.46 -0.57,0.4 -1.24,0.7 -2,0.93 -0.76,0.22 -1.59,0.33 -2.5,0.33 -1.17,0 -2.15,-0.18 -2.94,-0.54 -0.79,-0.36 -1.38,-0.88 -1.78,-1.57 -0.39,-0.69 -0.59,-1.53 -0.59,-2.52l0 -12.03c0,-1.14 0.25,-2.05 0.74,-2.74 0.5,-0.7 1.21,-1.2 2.13,-1.52 0.92,-0.32 2.01,-0.48 3.27,-0.48 0.5,0 1,0.02 1.49,0.07 0.5,0.05 1.01,0.13 1.52,0.24 0.51,0.11 1.02,0.25 1.51,0.43z"/>
   </g>
   <g>
    <g>
     <path class="fil1" d="M227.14 76.31c2.1,-0.05 6.08,0.42 9.69,1.06 3.93,0.7 7.96,1.73 9.62,2.73 0.23,0.13 0.45,0.28 0.66,0.44 0.58,-0.07 1.16,-0.07 1.75,0.01l0 -0.01c4.59,0.6 10.67,3.04 16.58,6.14 6.68,3.5 13.41,7.93 17.4,11.35 0.27,0.24 0.07,0.06 0.49,0.41 3.22,2.66 8.71,7.22 7.36,13.63 1.27,1.06 2.18,2.57 2.48,4.33 0.05,0.31 0.08,0.62 0.09,0.93 0.11,2.13 -0.18,4.43 -0.69,6.69 -0.6,2.67 -1.5,5.3 -2.32,7.38 -0.88,2.2 -2.5,5.23 -4.3,8.19 -1.91,3.16 -4.08,6.37 -5.76,8.48 -0.74,0.95 -1.87,2.34 -2.85,3.4 -0.91,0.98 -1.89,1.93 -2.85,2.65 -0.65,0.48 -1.36,0.83 -2.09,1.07 -0.38,1.78 -1.44,3.4 -3.02,4.45 -0.37,0.29 -0.95,0.92 -1.56,1.58 -0.9,0.96 -1.83,1.96 -3.06,3l-0.52 0.43c-2.9,2.49 -4.26,3.66 -6.3,3.75 -0.66,1.49 -1.82,2.75 -3.33,3.51 -1.15,0.66 -2.53,1.66 -3.92,2.67 -1.1,0.8 -2.21,1.61 -3.72,2.59 -3.85,2.5 -6.3,3.67 -7.89,4.44 -0.38,0.18 -0.01,-0.25 -0.32,0.02 -0.79,0.72 0.66,-0.22 0.28,1.14l-0.06 0.18c-3.26,11.53 -8.68,19.91 -14.43,24.92 -3.46,3.01 -7.18,4.93 -10.8,5.7 -4.29,0.92 -8.4,0.27 -11.94,-1.96 -2.97,-1.88 -5.35,-4.78 -6.87,-8.71 -0.98,-2.55 -1.44,-4.63 -1.55,-6.46 -0.55,0 -1.08,-0.06 -1.59,-0.17 -1.03,0.78 -2.27,1.28 -3.6,1.42l-14.98 2.4c-0.31,0.05 -0.62,0.08 -0.92,0.09 -0.18,0.36 -0.38,0.73 -0.59,1.1 -2.08,3.69 -4.98,7.1 -8.28,9.98 -3.4,2.98 -7.29,5.47 -11.22,7.19 -5.18,2.27 -10.5,3.63 -15.51,3.19 -5.95,-0.52 -11.14,-3.31 -14.85,-9.49 -0.42,-0.7 -0.78,-1.37 -1.09,-2.02 -0.98,0.48 -1.89,0.97 -2.71,1.62 -0.01,0.01 0.05,-0.03 0,0.03 -1.43,1.53 -2.8,3.01 -5.97,3.33 -0.02,0.06 -0.04,0.12 -0.06,0.17 -0.68,1.85 -1.6,3.15 -3.03,4.98 -0.01,0 -0.01,0.01 -0.02,0.02l0.02 0.01c-1.15,1.46 -2.08,2.79 -2.9,4.13 -0.25,0.4 -0.49,0.82 -0.74,1.26 1.14,0.88 1.96,2.05 2.4,3.35 0.02,0.06 0.05,0.13 0.07,0.19l0 0c0,0 0,0 0,0 0.07,0.19 0.14,0.38 0.19,0.57 0.06,0.2 0.12,0.41 0.17,0.64 -0.03,-0.1 -0.1,-0.37 -0.06,-0.22 0.02,0.07 0.03,0.14 0.05,0.23l0.01 0c0,0.01 0,0.02 0,0.02 0.02,0.09 0.03,0.17 0.05,0.25 0.02,0.13 0.04,0.28 0.07,0.46 0.06,0.46 0.07,0.91 0.04,1.35l0.01 0 -0.28 4.61c0,0.02 0,0.03 0,0.05 -0.08,12.11 4.99,19.36 7.87,23.48 0.72,1.03 1.34,1.92 1.86,2.79l6.21 5.36c3.55,2.85 8,4.95 12.81,6.19 5,1.29 10.34,1.66 15.43,0.99 3.39,-0.45 6.44,-1.35 9.22,-2.52 2.83,-1.19 5.47,-2.72 7.94,-4.36 1.05,-0.7 2.42,-1.78 3.87,-3.08 -1.19,-0.26 -2.32,-0.61 -3.31,-1.04l-1.08 -0.23c-3.88,-0.81 -6.37,-4.61 -5.57,-8.49 0.38,-1.8 1.41,-3.31 2.79,-4.32l0 0 1.56 -1.15c0.58,-0.43 1.2,-0.75 1.85,-0.98 6.06,-2.5 11.11,-4.84 15.78,-7.59 4.67,-2.75 8.93,-5.9 13.45,-10.03 0.74,-0.68 2.12,-2.08 3.5,-3.49 2.65,-2.7 5.31,-5.41 7.31,-6.41 3.53,-1.78 7.85,-0.36 9.64,3.18 0.65,1.3 0.87,2.7 0.72,4.04l0.01 0 -0.23 1.98c-0.27,3.3 -1.35,7.92 -2.7,12.54 -1.6,5.49 -3.63,11.12 -5.11,14.42 -5.42,12.11 -13.37,23.31 -23.95,31.6 -9.42,7.38 -20.86,12.42 -34.39,13.71 -10.58,1.02 -19.84,-0.18 -28.21,-3.52 -6.18,-2.46 -11.78,-6.05 -16.96,-10.74 -1.25,0.84 -2.59,1.15 -3.89,1.18 -0.08,0 -0.18,0 -0.29,-0.01 -0.45,-0.02 -0.89,-0.07 -1.33,-0.17 -0.41,-0.07 -0.78,-0.13 -0.96,-0.17l-0.01 0.03c-1.09,-0.34 -2.02,-0.94 -2.79,-1.6 -0.36,-0.31 -0.73,-0.65 -0.82,-0.74l-0.38 -0.29c-0.51,-0.38 -1.01,-0.76 -1.73,-1.47 -1.22,-1.2 -2.64,-2.51 -4.11,-3.87 -0.05,-0.05 -0.11,-0.1 -0.16,-0.15l0 0c-1.52,-1.41 -2.81,-2.72 -4.03,-4.07 -1.11,-1.23 -2.27,-2.64 -3.58,-4.32 -3.73,-4.78 -7.08,-10.41 -9.76,-16.39 -2.64,-5.87 -4.66,-12.11 -5.8,-18.25 -0.01,-0.03 -0.01,-0.06 -0.02,-0.09l-0.01 0.01 -0.03 -0.18c-0.11,-0.59 -0.24,-1.51 -0.4,-2.69 -0.12,-0.92 -0.22,-1.79 -0.3,-2.63 -0.03,-0.24 -0.09,-0.89 -0.19,-1.99 -0.15,-1.75 -0.15,-1.56 -0.18,-2 -0.1,-1.31 -0.2,-2.69 -0.29,-4.78 -0.08,-1.76 -0.1,-3.51 -0.01,-5.21 0.09,-1.57 0.32,-2.73 0.55,-3.9 0.12,-0.65 0.25,-1.3 0.29,-1.72 0.32,-3.06 0.76,-5.74 1.36,-8.38 0.59,-2.56 1.35,-5.11 2.3,-7.97 0.01,-0.02 0.01,-0.03 0.02,-0.05l-0.02 0c0.4,-1.17 0.54,-1.6 0.68,-2.03 0.58,-1.78 1.15,-3.55 2.01,-5.57 0.39,-0.92 0.63,-1.44 0.87,-1.96 0.64,-1.44 1.27,-2.84 1.6,-4.06 0.21,-0.83 0.57,-1.58 1.02,-2.25l0.28 -0.43c0.52,-0.82 1.17,-1.5 1.92,-2.03 0.12,-1.58 0.71,-3.24 1.53,-4.85 1.09,-2.15 2.47,-4.57 2.76,-5.09 0.44,-0.77 0.67,-1.2 0.88,-1.6 0.94,-1.78 1.78,-3.38 2.86,-4.64 -0.01,-0.01 -0.03,-0.03 -0.05,-0.06 -4.34,-4.99 -6.34,-10.88 -6.4,-16.78 -0.08,-6.15 2.02,-12.27 5.79,-17.31l-0.02 -0.01c0.29,-0.4 0.65,-0.84 1.05,-1.32 5.75,-6.85 14.14,-10.68 21.73,-12.28 5.55,-1.17 11.02,-1.06 15.1,-0.02 0.07,-0.1 0.14,-0.19 0.22,-0.28l-0.02 -0.02c1.05,-1.29 5.12,-5.31 8.87,-8.62 2.1,-1.86 4.21,-3.58 5.94,-4.69 -0.14,-0.45 -0.26,-0.91 -0.38,-1.38 -0.62,-1.62 -0.92,-3.46 -1.01,-5.3 -0.13,-2.43 0.06,-4.98 0.26,-6.73 0,-0.04 0,-0.07 0.01,-0.11 0.18,-2.11 0.9,-4.26 1.82,-6.2 1.21,-2.54 2.93,-5.04 4.02,-6.29 6.65,-7.59 16.38,-11.1 26.66,-11.14 10.29,-0.04 21.25,3.48 29.99,9.89 1.5,1.1 1.33,1.12 1.41,1.11 0.81,-0.07 1.9,-0.16 4.17,-0.19 1.6,-0.03 3.29,-0.02 5,-0.01 2.52,0.01 5.07,0.02 7.51,-0.09 1.27,-0.06 2.48,0.22 3.54,0.76l0 0c0.5,0.25 0.91,0.48 1.25,0.7 0.78,-0.29 1.61,-0.44 2.46,-0.45zm12.14 76.45c-1.5,-0.34 -2.44,-1.54 -3.59,-2.47 -8.06,-6.51 -13.33,-16.99 -15.56,-27.01 -1.57,-7.02 -1.37,-15.35 0.2,-22.2 2.92,-12.72 4.4,-11.55 6.86,-17.58 2.64,-0.2 13.81,1.7 15.58,2.75 -1.69,5.1 -5.61,10.1 -7.31,16.79 -0.31,1.2 -0.52,2.3 -0.73,3.6 -2.18,13.6 2.15,28.09 12.35,36.91 0.79,0.68 3.99,3.13 4.16,3.52 1.48,0.63 4.64,2.22 5.69,3.36 1.65,0.2 2.99,1.01 4.59,1.56 1.18,0.4 3.41,0.56 3.87,1.69 -1.86,1.29 -3.24,3.34 -5.27,5.06 -2.81,2.38 -2.65,2.61 -6.94,1.21 -4,-1.3 -12.13,-4.5 -13.9,-7.19zm-45.37 26.75c0.95,-0.87 7.7,0.01 14.08,-4.71 2.68,-1.98 7.55,-6.72 8.45,-10.87l0.43 -1.02 -0.91 0.32c-3.95,3.37 -8.44,9.59 -17.39,10.18 -9.3,0.61 -14.64,-4.35 -17.62,-10.16 -1.61,-3.14 -2.74,-7.38 -1.94,-11.66 0.71,-3.74 3.44,-7.13 5.49,-8.43 8.51,-5.41 22.21,-0.04 24.64,-1.31 -3.41,-1.5 -6.82,-3.13 -10.93,-4.06 -3.79,-0.86 -2.63,0.05 -4.29,-3.08 -2.3,-4.36 -7.58,-7.55 -12.28,-9.81 -3.34,-1.61 -7.26,-3.23 -9.83,-4.85 -2.64,-0.72 -7.57,-3.6 -10.09,-5.08 -2.03,-1.19 -3.11,-2.05 -4.58,-3.15 -1.41,-1.06 -3,-2.15 -3.86,-3.68 -1.1,-0.37 -3.48,-3.12 -3.87,-4.08 -0.91,-0.8 -1.87,-3.16 -2.5,-5.86 -1.04,-2.08 -0.77,-6.52 -0.48,-9.09 0.09,-2.86 2.8,-7.15 4.12,-8.66 10.71,-12.23 32.42,-10.89 47.01,-0.18 4.92,3.62 3.32,2.39 9.91,2.29 4.1,-0.06 8.74,0.09 12.73,-0.1 0.94,0.48 0.66,0.47 0.97,0.69 -1.37,4.92 -3.72,5.73 -6.36,18.22 -1.46,6.91 -1.29,15.81 0.09,22.75 4.04,20.39 14.79,26.13 17.92,30.72 0.8,0.43 0.26,0.13 0.84,0.53 4.61,3.14 11.13,8.27 17.47,9.29l0.24 0.83c-2.69,1.48 -5.46,3.82 -8.31,5.66 -10.13,6.58 -8.99,2.81 -10.99,9.86 -7.18,25.35 -25.36,32.45 -30.44,19.3 -1.93,-4.99 -0.65,-7.39 0.72,-11.25l0.29 -1.61 -2.87 0.61 -5.59 1.14 -0.85 0.06c-0.5,-2.92 -0.85,-7.46 0.58,-9.75zm92.18 -61.93c0.21,3.42 -1.25,8.01 -2.5,11.18 -1.53,3.84 -6.15,11.24 -9.02,14.87 -1.03,1.31 -3.04,3.75 -4.35,4.73 -5.29,0.09 -13.31,-3.93 -16.91,-6.42 -10.39,-7.15 -14.79,-19.94 -13.59,-32.49 0.42,-4.38 2.82,-13 5.39,-16.92 0.05,-0.08 0.12,-0.17 0.17,-0.24l0.36 -0.47c0.04,-0.05 0.12,-0.15 0.19,-0.22 0.55,-1.39 1.55,-2.61 2.13,-3.95 8.02,1.04 23.48,10.06 30.21,15.84 1.9,1.63 7.07,5.33 4.55,9.11 -0.3,0.63 -0.65,1.24 -1.04,1.83 -0.98,1.39 -2.33,2.81 -3.46,3.88 -0.97,0.91 -1.85,1.69 -2.69,2.35 -0.82,0.64 -1.83,1.11 -2.61,1.75l-1.14 0.7c-0.03,0.02 -0.07,0.05 -0.13,0.08 0.92,0 2.66,0.02 3.58,-0.3l0.01 0 0.56 -0.1 1.27 -0.7c0.28,-0.13 1.02,-0.43 1.31,-0.53 0.94,-0.33 1.74,-0.74 2.66,-1.26 1.37,-0.77 3.69,-2.49 5.05,-2.72zm-141.04 -10.25c7.77,10.72 20.87,15.9 33.01,21.59 6.89,3.23 5.91,3.14 10.67,7.1 -0.07,0.87 0.1,0.46 -0.3,1.13 -5.21,-1.19 -22.21,5.44 -17.16,24.9 0.23,0.86 0.49,1.66 0.83,2.49 0.96,2.28 2.01,3.57 3.4,5.54 0.59,0.82 0.56,1.21 1.39,1.89 0.56,0.45 1.14,0.89 1.7,1.34 1.35,1.1 2.3,1.84 3.85,2.66 0.78,0.41 1.58,0.85 2.36,1.24 0.8,0.41 1.25,0.56 2.11,0.83 0.24,0.07 1.04,0.29 1.23,0.38 0.15,0.07 0.11,0.66 0.1,0.81 -0.06,3.77 -0.35,7.57 -0.77,11.31l-15.37 2.47c-0.56,-8.11 -1.98,-12.94 -3.48,-20.47 -0.63,-1.08 -2.26,-6.43 -2.95,-8.33 -4.36,-12.03 -13.24,-25.05 -22.14,-34.5 -5.67,-6.01 -9.8,-7.78 -12.35,-10.11 1.58,-1.92 11.08,-11.03 13.87,-12.27zm5.36 39.14c2.58,3.53 4.91,7.98 7.09,12.29 1.18,2.32 5.36,11.72 5.4,13.85l3.08 12.2c0.9,5.14 1.87,8.75 -0.51,12.96 -3.4,6.01 -9.73,11.3 -16.13,14.1 -8.31,3.65 -16.64,4.43 -21.34,-3.4 -2.61,-4.35 -1.53,-7.71 -2.02,-13.09 -0.55,-5.95 -2.05,-8 -3.08,-12.77 0.06,0.02 0.13,0.03 0.19,0.04 -0.06,-0.01 -0.11,-0.03 -0.15,-0.05 -0.41,-0.25 -2.25,-3.92 -2.62,-4.61 -2.56,-4.69 -6.79,-8.67 -11.4,-11.32 -2.26,-1.3 -4.46,-2.03 -6.85,-3.02 -0.55,-0.24 -1.08,-0.51 -1.6,-0.8l0.35 0.21c-4,-0.64 -5.33,-2.49 -7.23,-4.68 -6.55,-7.56 -5.77,-17.79 -0.29,-25.11 8.95,-11.98 28.53,-13.48 32.67,-10.01 -0.08,0.02 -0.14,0.03 -0.21,0.05 0.31,-0.02 0.58,0.02 0.67,0.24 0.04,0.09 0.06,0.18 0.08,0.26l-0.04 -0.45c2.03,0.54 3.96,1.96 5.15,3.05 6.94,4.16 13.83,13.29 18.79,20.06zm-32.88 36.94c2.81,6.83 3.52,9.82 3.69,17.19 0.03,1.01 0.33,1.21 -0.64,1.68 -2.66,1.29 -4.79,2.06 -7.16,3.97 -0.81,0.7 -1.33,1.72 -2.45,1.76 -0.36,-0.1 -0.4,-0.71 -0.44,-1.03 -0.23,-1.93 -0.78,-3.84 -1.24,-5.73 -1.14,-4.61 -3.45,-8.84 -6.59,-12.38 -3.68,-4.05 -6.63,-6.3 -11.92,-7.89 -0.5,-0.14 -3.37,-0.85 -3.48,-1.3 -0.12,-0.52 2.95,-5.93 3.42,-6.74 1.69,-2.94 2.56,-5.52 4.34,-5.52 5.35,0.29 9.91,2.61 14.14,5.75 2.21,1.63 4.67,4.41 6.3,6.61 0.87,1.22 1.46,2.24 2.03,3.63zm-16.62 53.3c-0.29,18.71 9.58,27.5 11.2,31.29l7.38 6.38c8.78,7.07 21.79,10.28 33.69,8.72 8.14,-1.08 14.66,-4.33 20.19,-8 4.12,-2.74 12.1,-10.07 13.8,-15.3 -4.12,0.03 -12.18,0.15 -14.79,-1.64l-2.03 -0.43 1.57 -1.14c13.1,-5.38 21.76,-10.05 31.66,-19.11 2.81,-2.57 7.69,-8.01 9.21,-8.77l-0.25 2.19c-0.51,6.34 -4.72,19.11 -7.2,24.63 -9.33,20.84 -26.62,38.63 -52.46,41.1 -18.85,1.81 -32.71,-4.14 -44.52,-17.3 -7.89,-8.79 -12.6,-23.03 -10.83,-35.94 0.42,-3.1 2.06,-9.88 3.42,-12.03 0.05,0.08 0.09,0.19 0.1,0.24 0.01,0.05 0.07,0.18 0.08,0.24 0.01,0.06 0.05,0.19 0.06,0.26l-0.28 4.61zm-3.77 -10.82c-6.29,12.92 -7.29,29.73 -1.64,43.04 1.28,2.98 3.89,8.04 5.89,10.52 0.5,0.61 1.11,1.38 1.64,1.95 0.24,0.26 1.32,1.22 1.4,1.41 0.01,0.04 0.06,0.63 0,0.7 -0.02,0.02 -0.39,0.01 -0.39,0.01 -0.1,-0.03 -0.72,-0.61 -0.83,-0.71 -0.68,-0.64 -1.35,-1.02 -2,-1.66 -1.47,-1.43 -2.91,-2.77 -4.41,-4.16 -2.66,-2.46 -4.61,-4.67 -6.85,-7.54 -6.68,-8.56 -12.05,-20.26 -14.16,-31.55l-0.03 -0.18c-0.28,-1.58 -0.48,-3.18 -0.65,-4.78 -0.13,-1.27 -0.24,-2.55 -0.34,-3.82 -0.22,-2.95 -0.45,-6.11 -0.29,-9.06 0.11,-1.88 0.62,-3.45 0.81,-5.29 0.57,-5.47 1.58,-9.61 3.32,-14.8 0.82,-2.39 1.47,-4.7 2.5,-7.12 1.02,-2.38 2.15,-4.53 2.8,-7l0.43 -0.69 2.57 0.03c5.33,1.08 8.03,3.23 10.92,6.17 4.42,4.48 7.42,10.7 7.79,17.81 0.17,3.29 -0.32,4.18 -2.28,6.68 -2.6,3.3 -4.35,6.24 -6.2,10.04zm10.68 3.33c0.01,0.04 0.02,0.08 0.03,0.11 -0.01,-0.06 -0.02,-0.1 -0.03,-0.11l0 0zm0.36 1.21l0 0.01 0 0 0 -0.01zm0 0.01c0.01,0.05 0.01,0.04 0,0l0 0z"/>
    </g>
    <path class="fil0" d="M251.2 115.88c-1.63,-0.57 -3.55,-2.28 -4.35,-3.84 -0.29,-0.58 -0.61,-2.39 -0.72,-4.02 -0.18,-2.76 -0.15,-3.12 0.83,-4.97 0.87,-1.74 1.31,-2.14 3.34,-3.16 1.96,-1.01 2.72,-1.19 4.86,-1.19 3.3,0 5.04,0.54 6.92,2.21 1.85,1.63 2.4,3.19 2.4,6.93 0,3.8 -1.24,6.23 -3.81,7.5 -2.29,1.12 -7.15,1.41 -9.46,0.54l-0.01 0z"/>
    <path class="fil2 str0" d="M171.81 120.05c2.57,1.62 6.49,3.24 9.83,4.85 4.7,2.26 9.98,5.45 12.28,9.81 1.66,3.13 0.5,2.22 4.29,3.08 4.11,0.93 7.52,2.56 10.93,4.06 -2.43,1.27 -16.13,-4.1 -24.64,1.31 -2.05,1.3 -4.78,4.69 -5.49,8.43 -0.8,4.28 0.33,8.52 1.94,11.66 2.98,5.81 8.32,10.77 17.62,10.16 8.95,-0.59 13.44,-6.81 17.39,-10.18 0.48,-0.99 0.95,-1.29 1.19,-2.32l0.97 -1.39c1.65,0.68 -0.34,-0.25 0.72,0.64 0.06,0.04 0.16,0.14 0.22,0.19l0.41 0.3c1.32,0.68 10.63,-3.46 11.66,-4.23 0.07,-0.06 0.18,-0.16 0.23,-0.21 0.06,-0.04 0.17,-0.14 0.24,-0.21 -0.1,-0.23 -0.39,-1.03 -0.43,-1.11l-4.84 -5.31c-4.59,-4.79 -10.63,-15.9 -11.76,-22.27 -1.25,-6.98 -2.38,-13.17 -1.47,-21.1 1.14,-9.81 4.26,-16.91 4.39,-18.05 -15.42,-0.39 -22.24,1.27 -35.98,5.33 -5.33,1.58 -24.84,10.13 -27.24,14.48 2.36,3.32 11.99,8.61 16.53,10.73 3.09,1.44 1.45,0.6 1.35,1.09 -0.12,0.6 0.49,0.04 -0.34,0.26z"/>
    <path class="fil2 str0" d="M123.69 182.88l0.36 -0.03 8.95 -2.88c8.56,-2.65 10.76,-2.86 18.82,-4.91 2.95,-0.75 6.82,-1.11 10.02,-1.87 -0.41,-0.99 -0.91,-3.03 -1.2,-4.01 -1.76,-5.84 -4.9,-11.16 -7.62,-16.45 -3.11,-6.02 -5.2,-7.16 -7.65,-11.26 -1.5,-2.51 -2.73,-3.09 -4.29,-5.06 -1.03,-1.3 -1.12,-1.57 -2.42,-2.61 -1.57,-1.24 -0.97,-0.79 -2.24,-2.4 -1.91,-2.4 -4.38,-2.68 -5.05,-4.32l-0.66 0.1c-0.23,0.35 -3.36,3.11 -4.06,3.83l-11.07 12.93c-5.15,6.19 -2.92,3.78 -6.85,9.06l-6.56 9.26c1.56,1.45 5.06,2.15 7.2,3.56 1.18,0.77 2.15,1.41 3.3,2.15 3.99,2.58 10.11,10.43 11.02,14.91z"/>
    <path class="fil3 str1" d="M124.05 182.85c0.61,3.55 2.63,7.29 3.04,11.58 0.42,4.43 -0.64,9.3 1.46,12.74 4.57,7.46 10.73,7.99 20.06,4 4.02,-1.72 9.41,-5.82 12.4,-8.94 2.24,-2.34 4.63,-6.47 4.76,-9.71 0.27,-6.31 -2.82,-15.26 -3.26,-18.65 -0.34,-0.51 -0.18,-0.37 -0.67,-0.68 -3.2,0.76 -7.07,1.12 -10.02,1.87 -8.06,2.05 -10.26,2.26 -18.82,4.91l-8.95 2.88z"/>
    <path class="fil4 str1" d="M218.12 159.52l-0.97 1.39c1.24,0.36 1.23,-1.1 0.85,1.12 0.32,-0.36 0.59,-0.65 1.1,-1 -0.4,1.88 -2.75,5.84 -3.82,7.49 -3.02,4.65 -6.75,8.04 -12.09,10.03 -5.04,1.88 -5.55,1.21 -7.69,1.89 -1,0.32 -0.31,-0.02 -1.11,0.43l-0.06 6.96c5.07,0.09 12.36,-4.69 9.65,0.75 -2.8,5.6 -2.52,3.39 -1.83,7.82 0.71,4.49 1.93,6.88 5.22,8.61 8.98,4.72 18.75,-11.53 21.71,-18.39 0.88,-2.04 2.64,-9.75 3.4,-10.56 0.61,-0.66 7.56,-4.4 8.84,-5.17l7.79 -5.31c-1.39,-0.66 -3.14,-1.35 -4.44,-2.11 -2.73,-1.59 -7.92,-3.88 -10.87,-6.63 -0.81,-0.74 -0.3,-0.15 -0.82,-0.93l-1.38 0.09c-0.07,0.07 -0.18,0.17 -0.24,0.21 -0.05,0.05 -0.16,0.15 -0.23,0.21 -1.03,0.77 -10.34,4.91 -11.66,4.23l-0.41 -0.3c-0.06,-0.05 -0.16,-0.15 -0.22,-0.19 -1.06,-0.89 0.93,0.04 -0.72,-0.64z"/>
    <path class="fil5 str0" d="M256.16 142.54c0.45,-1.37 -0.16,-0.59 2.36,-2.46 1.13,-0.84 1.82,-1.36 2.82,-2.22 2.23,-1.9 3.01,-2.72 5.49,-4.6 1.72,-1.3 3.49,-3.31 5.23,-4.84l4.67 -5.1 -0.93 -0.53 -0.56 0.1 -0.01 0c-0.92,0.32 -2.66,0.3 -3.58,0.3 0.46,-0.24 -0.09,-0.22 0.39,-0.51l0.5 -0.16c1.13,-0.8 2.96,-2.17 4.17,-4.22 6.65,-7.04 6.18,-5.85 1,-10.07 -3.36,-2.75 -7.52,-5.77 -11.2,-7.76 -2.85,-1.53 -17.73,-8.24 -20.25,-7.82 -0.44,1.05 -1.6,2.5 -2.93,5.89 -4.48,11.33 -4.06,25.48 3.25,35.42 1.77,2.4 6.69,7.31 9.58,8.58zm-1 -41.95c0.11,0 0.22,0.01 0.33,0.01 -0.53,0.58 -0.85,1.35 -0.85,2.19 0,1.8 1.47,3.27 3.27,3.27 1.37,0 2.54,-0.84 3.02,-2.04 0.51,0.94 0.8,2 0.8,3.14 0,3.62 -2.94,6.56 -6.57,6.56 -3.62,0 -6.56,-2.94 -6.56,-6.56 0,-3.63 2.94,-6.57 6.56,-6.57z"/>
    <path class="fil6" d="M239.28 152.76l1.01 -0.88c1.98,-0.4 7.26,-3.76 9.01,-4.91l1.95 0.96c0.79,-0.69 0.46,0.5 -0.01,-0.86 -0.17,-0.39 -3.37,-2.84 -4.16,-3.52 -10.2,-8.82 -14.53,-23.31 -12.35,-36.91 0.21,-1.3 0.42,-2.4 0.73,-3.6 1.7,-6.69 5.62,-11.69 7.31,-16.79 -1.77,-1.05 -12.94,-2.95 -15.58,-2.75 -2.46,6.03 -3.94,4.86 -6.86,17.58 -1.57,6.85 -1.77,15.18 -0.2,22.2 2.23,10.02 7.5,20.5 15.56,27.01 1.15,0.93 2.09,2.13 3.59,2.47z"/>
    <path class="fil7 str1" d="M120.32 276.48c-0.89,-0.55 -1.6,-1.39 -2.42,-2.06 -0.8,-0.65 -1.39,-1.36 -2.23,-2.03 -1.51,-1.2 -3.44,-2.38 -4.3,-4.41 -1.53,-0.71 -3.55,-4.33 -4.51,-5.77 -5.12,-7.7 -5.41,-14.4 -7.07,-22.34 -1.02,0.47 -0.27,-0.41 -0.7,1.11 -0.01,0.04 -0.25,1.69 -0.26,1.7 -0.39,2.87 -0.92,7.48 -0.28,10.09l0.38 3.33c0.11,2.08 1.4,6.95 1.96,8.63 4.22,12.74 16.63,24.19 29.17,28.45 15.42,5.23 33.26,2.58 46.68,-5.45 4.71,-2.81 8.38,-5.63 12.13,-9.54 5.43,-5.65 11.24,-14 14.7,-21.35 1.85,-3.93 6.73,-16.7 6.99,-21.78 -0.95,0.92 -1.23,1.77 -1.83,3.28 -3.12,7.85 -7.75,15.27 -12.25,22.26 -2.33,3.62 -10.31,13.6 -13.56,15.92 -1.26,0.9 -1.5,0.87 -2.88,2.15 -7.37,6.85 -20.97,11.4 -33.39,10.81 -5.17,-0.25 -11.8,-1.66 -15.82,-3.94 -3.98,-2.25 -9.05,-5.51 -10.51,-9.06z"/>
    <path class="fil5 str0" d="M94.84 273.19l-4.07 -8.86c-1.35,-3.12 -2.55,-6.41 -3.38,-9.39 -3.88,-13.86 -3.76,-29.91 2.66,-43.06 2.16,-4.42 4.68,-8.09 7.69,-11.71 2,-2.4 2.54,-1.86 2.84,-3.57 -1.17,-2.2 -3.34,-4.75 -5.04,-6.03 -2.36,-1.76 -4.19,-3.07 -6.98,-4.04l-0.45 0.87c-0.35,0.42 -0.13,-0.09 -0.82,0.7 -0.51,0.58 -0.97,1.8 -1.41,2.53 -2.75,4.53 -2.92,6 -4.67,10.05 -0.85,1.97 -1.6,3.19 -2.21,5.12 -2.95,9.44 -4.73,21.76 -1.81,32.52 1.04,3.85 0.37,4.98 3.15,11.69 2.13,5.15 4.15,10.4 7.59,14.87 0.99,1.29 2.03,3.05 3.07,4.29 1.16,1.38 2.61,2.75 3.84,4.02z"/>
    <path class="fil8 str2" d="M146.43 89.11c-0.29,2.57 -0.56,7.01 0.48,9.09 0.95,-2.73 -0.55,-9.68 5.83,-14.78 8.93,-7.14 19.45,-7.96 30.63,-5.57 2.73,0.58 12.45,4.12 13.12,6.07 -18.66,3.57 -29.22,8.23 -44.19,18.06l-2.42 1.68c1.25,0.51 1.05,0.98 3.11,3.08 0.68,0.7 0.59,-0.25 0.64,1.39l-0.35 0.01c0.86,1.53 2.45,2.62 3.86,3.68 1.47,1.1 2.55,1.96 4.58,3.15 2.52,1.48 7.45,4.36 10.09,5.08 0.83,-0.22 0.22,0.34 0.34,-0.26 0.1,-0.49 1.74,0.35 -1.35,-1.09 -4.54,-2.12 -14.17,-7.41 -16.53,-10.73 2.4,-4.35 21.91,-12.9 27.24,-14.48 13.74,-4.06 20.56,-5.72 35.98,-5.33 -0.13,1.14 -3.25,8.24 -4.39,18.05 -0.91,7.93 0.22,14.12 1.47,21.1 1.13,6.37 7.17,17.48 11.76,22.27l4.84 5.31c0.04,0.08 0.33,0.88 0.43,1.11l1.38 -0.09 -0.16 -1.07c-3.13,-4.59 -13.88,-10.33 -17.92,-30.72 -1.38,-6.94 -1.55,-15.84 -0.09,-22.75 2.64,-12.49 4.99,-13.3 6.36,-18.22 -0.31,-0.22 -0.03,-0.21 -0.97,-0.69 -3.99,0.19 -8.63,0.04 -12.73,0.1 -6.59,0.1 -4.99,1.33 -9.91,-2.29 -14.59,-10.71 -36.3,-12.05 -47.01,0.18 -1.32,1.51 -4.03,5.8 -4.12,8.66z"/>
    <path class="fil9 str0" d="M120.32 276.48c1.46,3.55 6.53,6.81 10.51,9.06 4.02,2.28 10.65,3.69 15.82,3.94 12.42,0.59 26.02,-3.96 33.39,-10.81 1.38,-1.28 1.62,-1.25 2.88,-2.15 3.25,-2.32 11.23,-12.3 13.56,-15.92 4.5,-6.99 9.13,-14.41 12.25,-22.26 0.6,-1.51 0.88,-2.36 1.83,-3.28 0.12,-2.06 0.51,-1.04 0,-2.88 -1.97,2.88 -14.21,12.61 -16.95,14.3l-10 5.92c-1.62,0.69 -9.82,4.07 -10.57,4.83 6.76,3.64 17.09,-0.98 14.26,4.63 -1.58,3.14 -7.24,9.3 -10.06,11.68 -9.72,8.23 -26.11,13 -38.63,10.11 -3.54,-0.82 -11.33,-3.21 -14.24,-4.88 -1.27,-0.73 -2.26,-1.66 -4.05,-2.29z"/>
    <path class="fil10 str1" d="M147.18 88.42c-2.34,3.28 0.1,13.75 2.23,15.64 0.24,-0.57 -0.1,-0.63 0.47,-0.4l2.42 -1.68c14.97,-9.83 25.53,-14.49 44.19,-18.06 -0.67,-1.95 -10.39,-5.49 -13.12,-6.07 -11.18,-2.39 -21.7,-1.57 -30.63,5.57 -6.38,5.1 -4.75,11.36 -5.69,14.09 -1.04,-2.07 -0.16,-6.53 0.13,-9.09z"/>
    <path class="fil4 str1" d="M94.84 273.19c0.82,1.09 0.2,0.71 2,0.95 -0.45,-2.18 -1.98,-4.91 -2.83,-7.11 -2.64,-6.83 -3.61,-19.92 -2.16,-26.65 0.55,-2.51 2.06,-9.69 3.01,-11.79 0.23,-0.51 1.23,-2.42 1.69,-3.31 1.21,-2.35 2.25,-4.51 3.56,-6.49l4.4 -5.52c0.28,-7.03 0.08,-7.5 -2.06,-13.29 -0.77,-2.07 -0.53,-2.33 -1.87,-3.38 -0.3,1.71 -0.84,1.17 -2.84,3.57 -3.01,3.62 -5.53,7.29 -7.69,11.71 -6.42,13.15 -6.54,29.2 -2.66,43.06 0.83,2.98 2.03,6.27 3.38,9.39l4.07 8.86z"/>
    <path class="fil10 str1" d="M95.67 159l1.93 2.1c1.24,-0.39 1.84,-2.04 3.47,-4.53l21.03 -27.82c1.5,-1.61 3.27,-3.06 3.92,-4.5l-1.44 -0.37c-14.16,-1.16 -28.05,6.16 -30.9,20.62 -0.53,2.69 -0.15,5.52 0.12,8.23 0.31,3.26 1.01,3.7 1.87,6.27z"/>
    <path class="fil4 str1" d="M276.73 123.32l-4.67 5.1c-1.74,1.53 -3.51,3.54 -5.23,4.84 -2.48,1.88 -3.26,2.7 -5.49,4.6 -1,0.86 -1.69,1.38 -2.82,2.22 -2.52,1.87 -1.91,1.09 -2.36,2.46 3.06,2.32 9.47,4.43 14.27,4.79 1.29,-2.33 -0.14,0.19 1.42,-1.31 2.06,-1.98 5.32,-8.05 5.79,-8.27 2.83,-6.33 6.11,-8.95 7.47,-18.33 -1.95,0.45 -2.59,1.26 -4.15,2 -1.29,0.61 -2.64,1.32 -4.23,1.9z"/>
    <path class="fil11 str1" d="M212.54 230.9l-1.98 1.28c0.51,1.84 0.12,0.82 0,2.88 -0.26,5.08 -5.14,17.85 -6.99,21.78 -3.46,7.35 -9.27,15.7 -14.7,21.35 -3.75,3.91 -7.42,6.73 -12.13,9.54 -13.42,8.03 -31.26,10.68 -46.68,5.45 -12.54,-4.26 -24.95,-15.71 -29.17,-28.45 -0.56,-1.68 -1.85,-6.55 -1.96,-8.63l-0.38 -3.33c-0.64,-2.61 -0.11,-7.22 0.28,-10.09 0.01,-0.01 0.25,-1.66 0.26,-1.7 0.43,-1.52 -0.32,-0.64 0.7,-1.11 1.66,7.94 1.95,14.64 7.07,22.34 0.96,1.44 2.98,5.06 4.51,5.77l0.74 0.02c-1.62,-3.79 -11.49,-12.58 -11.2,-31.29l0.28 -4.61c-0.01,-0.07 -0.05,-0.2 -0.06,-0.26 -0.01,-0.06 -0.07,-0.19 -0.08,-0.24 -0.01,-0.05 -0.05,-0.16 -0.1,-0.24 -1.36,2.15 -3,8.93 -3.42,12.03 -1.77,12.91 2.94,27.15 10.83,35.94 11.81,13.16 25.67,19.11 44.52,17.3 25.84,-2.47 43.13,-20.26 52.46,-41.1 2.48,-5.52 6.69,-18.29 7.2,-24.63z"/>
    <path class="fil12" d="M169.03 172.34c0.43,3.3 1.72,7.12 2.37,10.68 0.6,3.23 1.15,5.84 1.55,9.33l14.29 -2.28c-0.49,-1.82 -0.35,-1.55 -0.25,-3.39 0.57,-10.05 1.91,-7.04 -2.5,-8.88 -1.9,-0.8 -5.51,-3.33 -6.99,-4.57 -0.88,-0.73 -0.82,0.12 -1.59,-1.63 -1.13,-0.53 -5.89,0.07 -6.88,0.74z"/>
    <path class="fil13" d="M112.55 167.89c-1.09,-0.71 -2.19,-1.46 -3.29,-2.14 -1.96,-1.24 -4.44,-1.75 -6.38,-2.93 -0.95,-0.58 -0.48,-0.91 0.08,-1.68 2.2,-3.03 4.32,-6.14 6.53,-9.17 0.82,-1.12 1.56,-2.25 2.36,-3.38 1.1,-1.54 2.49,-3.18 3.71,-4.62 1.18,-1.41 2.4,-2.81 3.59,-4.2 2.47,-2.89 4.94,-5.78 7.42,-8.66 0.48,-0.56 1.39,-1.34 1.96,-1.85 0.64,-0.58 1.51,-1.34 2.08,-1.96 0.15,-0.17 0.12,-0.11 -0.14,-0.37 -0.91,-0.89 -1.92,-1.56 -3.11,-2.02 -1.05,-0.4 -0.62,-0.59 -0.93,-1.36 -0.19,-0.46 -1.18,-0.15 -1.62,-0.12 -0.88,0.04 -2.01,-0.31 -2.96,-0.38 -0.33,-0.03 -0.51,-0.07 -0.12,0.11 0.17,0.07 2.47,0.61 2.78,0.69 0.23,0.07 1.26,0.28 1.36,0.46 0.32,0.56 -3.29,3.88 -3.76,4.44 -0.57,0.67 -1.2,1.58 -1.74,2.3 -4.42,5.84 -8.84,11.68 -13.25,17.52 -0.53,0.69 -1.05,1.39 -1.57,2.08 -1.46,1.93 -2.96,3.86 -4.39,5.81 -0.83,1.12 -2.01,3.69 -3.07,4.39 -0.49,0.32 -0.59,0.19 0.1,0.61 1.26,0.78 2.51,1.61 3.88,2.19 2.39,0.99 4.59,1.72 6.85,3.02 4.61,2.65 8.84,6.63 11.4,11.32 0.37,0.69 2.21,4.36 2.62,4.61 0.32,0.19 1.09,-0.03 0.76,0.24 -0.03,-0.04 -0.34,-1.14 -0.42,-1.34 -1.62,-4.45 -6.77,-11 -10.73,-13.61z"/>
    <path class="fil14" d="M100.58 196.6c1.34,1.05 1.1,1.31 1.87,3.38 2.14,5.79 2.34,6.26 2.06,13.29 -1.4,1.75 -2.86,3.53 -4.22,5.3 -1.12,1.45 -2.42,4.12 -3.28,5.81 -0.69,1.35 -1.49,2.78 -2.12,4.14 -0.66,1.43 -1.29,4.17 -1.67,5.73 -0.5,2.11 -1.01,4.32 -1.43,6.45 -1.4,6.99 -0.33,19.67 2.22,26.33 0.85,2.2 2.38,4.93 2.83,7.11 -1.8,-0.24 -1.18,0.14 -2,-0.95 -1.23,-1.27 -2.68,-2.64 -3.84,-4.02 -1.04,-1.24 -2.08,-3 -3.07,-4.29 -3.44,-4.47 -5.46,-9.72 -7.59,-14.87 -2.78,-6.71 -2.11,-7.84 -3.15,-11.69 -2.76,-11.13 -1.45,-21.68 1.81,-32.52 0.61,-1.93 1.36,-3.15 2.21,-5.12 1.75,-4.05 1.92,-5.52 4.67,-10.05 0.44,-0.73 0.9,-1.95 1.41,-2.53 0.69,-0.79 0.47,-0.28 0.82,-0.7l0.45 -0.87c2.79,0.97 4.62,2.28 6.98,4.04 1.7,1.28 3.87,3.83 5.04,6.03zm-5.08 72.33c-5.65,-13.31 -4.65,-30.12 1.64,-43.04 1.85,-3.8 3.6,-6.74 6.2,-10.04 1.96,-2.5 2.45,-3.39 2.28,-6.68 -0.37,-7.11 -3.37,-13.33 -7.79,-17.81 -2.89,-2.94 -5.59,-5.09 -10.92,-6.17l-2.57 -0.03 -0.43 0.69c-0.65,2.47 -1.78,4.62 -2.8,7 -1.03,2.42 -1.68,4.73 -2.5,7.12 -1.74,5.19 -2.75,9.33 -3.32,14.8 -0.19,1.84 -0.7,3.41 -0.81,5.29 -0.16,2.95 0.07,6.11 0.29,9.06 0.1,1.27 0.21,2.55 0.34,3.82 0.17,1.6 0.37,3.2 0.65,4.78l0.03 0.18c2.11,11.29 7.48,22.99 14.16,31.55 2.24,2.87 4.19,5.08 6.85,7.54 1.5,1.39 2.94,2.73 4.41,4.16 0.65,0.64 1.32,1.02 2,1.66 0.11,0.1 0.73,0.68 0.83,0.71 0,0 0.37,0.01 0.39,-0.01 0.06,-0.07 0.01,-0.66 0,-0.7 -0.08,-0.19 -1.16,-1.15 -1.4,-1.41 -0.53,-0.57 -1.14,-1.34 -1.64,-1.95 -2,-2.48 -4.61,-7.54 -5.89,-10.52z"/>
    <path class="fil11 str3" d="M232.98 155.91c0.52,0.78 0.01,0.19 0.82,0.93 2.95,2.75 8.14,5.04 10.87,6.63 1.3,0.76 3.05,1.45 4.44,2.11l-7.79 5.31c-1.28,0.77 -8.23,4.51 -8.84,5.17 -0.76,0.81 -2.52,8.52 -3.4,10.56 -2.96,6.86 -12.73,23.11 -21.71,18.39 -3.29,-1.73 -4.51,-4.12 -5.22,-8.61 -0.69,-4.43 -0.97,-2.22 1.83,-7.82 2.71,-5.44 -4.58,-0.66 -9.65,-0.75l0.06 -6.96c0.8,-0.45 0.11,-0.11 1.11,-0.43 2.14,-0.68 2.65,-0.01 7.69,-1.89 5.34,-1.99 9.07,-5.38 12.09,-10.03 1.07,-1.65 3.42,-5.61 3.82,-7.49 -0.51,0.35 -0.78,0.64 -1.1,1 0.38,-2.22 0.39,-0.76 -0.85,-1.12 -0.24,1.03 -0.71,1.33 -1.19,2.32l0.91 -0.32 -0.43 1.02c-0.9,4.15 -5.77,8.89 -8.45,10.87 -6.38,4.72 -13.13,3.84 -14.08,4.71 -1.43,2.29 -1.08,6.83 -0.58,9.75l0.85 -0.06 5.59 -1.14 2.87 -0.61 -0.29 1.61c-1.37,3.86 -2.65,6.26 -0.72,11.25 5.08,13.15 23.26,6.05 30.44,-19.3 2,-7.05 0.86,-3.28 10.99,-9.86 2.85,-1.84 5.62,-4.18 8.31,-5.66l-0.24 -0.83c-6.34,-1.02 -12.86,-6.15 -17.47,-9.29 -0.58,-0.4 -0.04,-0.1 -0.84,-0.53l0.16 1.07z"/>
    <path class="fil12" d="M240.29 151.88c0.12,2.31 -1.19,0.56 1.61,1.87 3.87,1.82 10.23,5.94 15.2,5.92l1.54 -1.26c0.54,-0.3 0.71,-0.3 1.03,-0.47 0.77,-0.43 0.38,-0.19 0.9,-0.66 1.13,-1.02 2,-2.24 3.32,-2.79 -1.16,-1.39 -0.36,-0.64 -2.3,-1.4 -0.66,-0.26 -1.29,-0.47 -2.01,-0.73 -1.45,-0.53 -2.01,-1.1 -3.9,-1.56 0.85,-0.53 -1.04,-0.85 1.25,-0.37 -1.05,-1.14 -4.21,-2.73 -5.69,-3.36 0.47,1.36 0.8,0.17 0.01,0.86l-1.95 -0.96c-1.75,1.15 -7.03,4.51 -9.01,4.91z"/>
    <path class="fil15" d="M171.92 256.59l-1.57 1.14 2.03 0.43c2.61,1.79 10.67,1.67 14.79,1.64 -1.7,5.23 -9.68,12.56 -13.8,15.3 -5.53,3.67 -12.05,6.92 -20.19,8 -11.9,1.56 -24.91,-1.65 -33.69,-8.72l-7.38 -6.38 -0.74 -0.02c0.86,2.03 2.79,3.21 4.3,4.41 0.84,0.67 1.43,1.38 2.23,2.03 0.82,0.67 1.53,1.51 2.42,2.06 1.79,0.63 2.78,1.56 4.05,2.29 2.91,1.67 10.7,4.06 14.24,4.88 12.52,2.89 28.91,-1.88 38.63,-10.11 2.82,-2.38 8.48,-8.54 10.06,-11.68 2.83,-5.61 -7.5,-0.99 -14.26,-4.63 0.75,-0.76 8.95,-4.14 10.57,-4.83l10 -5.92c2.74,-1.69 14.98,-11.42 16.95,-14.3l1.98 -1.28 0.25 -2.19c-1.52,0.76 -6.4,6.2 -9.21,8.77 -9.9,9.06 -18.56,13.73 -31.66,19.11z"/>
    <path class="fil16" d="M246.26 92.65c2.52,-0.42 17.4,6.29 20.25,7.82 3.68,1.99 7.84,5.01 11.2,7.76 5.18,4.22 5.65,3.03 -1,10.07 -2.09,2.22 -7.1,4.32 -5.06,4.89l1.27 -0.78c0.78,-0.64 1.79,-1.11 2.61,-1.75 0.84,-0.66 1.72,-1.44 2.69,-2.35 1.13,-1.07 2.48,-2.49 3.46,-3.88 0.39,-0.59 0.74,-1.2 1.04,-1.83 2.52,-3.78 -2.65,-7.48 -4.55,-9.11 -6.73,-5.78 -22.19,-14.8 -30.21,-15.84 -0.58,1.34 -1.58,2.56 -2.13,3.95 -0.07,0.07 -0.15,0.17 -0.19,0.22l-0.36 0.47c-0.05,0.07 -0.12,0.16 -0.17,0.24 -2.57,3.92 -4.97,12.54 -5.39,16.92 -1.2,12.55 3.2,25.34 13.59,32.49 3.6,2.49 11.62,6.51 16.91,6.42 1.31,-0.98 3.32,-3.42 4.35,-4.73 2.87,-3.63 7.49,-11.03 9.02,-14.87 1.25,-3.17 2.71,-7.76 2.5,-11.18 -1.36,0.23 -3.68,1.95 -5.05,2.72 -0.92,0.52 -1.72,0.93 -2.66,1.26 -0.29,0.1 -1.03,0.4 -1.31,0.53l-1.27 0.7 0.93 0.53c1.59,-0.58 2.94,-1.29 4.23,-1.9 1.56,-0.74 2.2,-1.55 4.15,-2 -0.69,4.73 -1.79,7.9 -4.11,12.02 -1.14,2.03 -2.24,3.88 -3.22,6 -0.2,0.43 -0.23,0.35 -0.5,0.69 -0.83,1.09 -1.59,2.31 -2.38,3.44 -1.64,2.34 -3.12,3.33 -4.47,5.76 -4.8,-0.36 -11.21,-2.47 -14.27,-4.79 -2.89,-1.27 -7.81,-6.18 -9.58,-8.58 -7.31,-9.94 -7.73,-24.09 -3.25,-35.42 1.33,-3.39 2.49,-4.84 2.93,-5.89z"/>
    <path class="fil17 str4" d="M95.67 159c-0.86,-2.57 -1.56,-3.01 -1.87,-6.27 -0.27,-2.71 -0.65,-5.54 -0.12,-8.23 2.85,-14.46 16.74,-21.78 30.9,-20.62 -0.1,-0.04 -1.3,-0.34 -1.44,-0.37 -0.13,-0.04 -0.54,-0.12 -0.67,-0.16 -1.08,-0.3 -0.5,-0.08 -0.99,-0.33 -4.09,-1.42 -12,0.73 -15.72,2.23 -5.7,2.3 -4.74,2.77 -7.18,4.39 -5.34,3.53 -8.56,9.1 -8.6,16.72 -0.04,7.45 2.82,8.59 5.69,12.64z"/>
    <path class="fil11 str3" d="M162.51 173.87c0.44,3.39 3.53,12.34 3.26,18.65 -0.13,3.24 -2.52,7.37 -4.76,9.71 -2.99,3.12 -8.38,7.22 -12.4,8.94 -9.33,3.99 -15.49,3.46 -20.06,-4 -2.1,-3.44 -1.04,-8.31 -1.46,-12.74 -0.41,-4.29 -2.43,-8.03 -3.04,-11.58l-0.36 0.03c0.22,-0.39 0.09,-0.03 -0.79,-0.27 1.03,4.77 2.53,6.82 3.08,12.77 0.49,5.38 -0.59,8.74 2.02,13.09 4.7,7.83 13.03,7.05 21.34,3.4 6.4,-2.8 12.73,-8.09 16.13,-14.1 2.38,-4.21 1.41,-7.82 0.51,-12.96l-3.08 -12.2c-0.01,0.13 -0.11,0.72 -0.14,0.81 -0.01,0.07 -0.1,0.31 -0.11,0.26 -0.01,-0.03 -0.09,0.13 -0.14,0.19z"/>
    <path class="fil18 str2" d="M100.82 163.06l-3.22 -1.96 -1.93 -2.1c-2.87,-4.05 -5.73,-5.19 -5.69,-12.64 0.04,-7.62 3.26,-13.19 8.6,-16.72 2.44,-1.62 1.48,-2.09 7.18,-4.39 3.72,-1.5 11.63,-3.65 15.72,-2.23 2.07,0.1 2.64,0.71 4.49,0.24 -4.14,-3.47 -23.72,-1.97 -32.67,10.01 -5.48,7.32 -6.26,17.55 0.29,25.11 1.9,2.19 3.23,4.04 7.23,4.68z"/>
    <path class="fil15" d="M161.84 173.19c0.49,0.31 0.33,0.17 0.67,0.68 0.05,-0.06 0.13,-0.22 0.14,-0.19 0.01,0.05 0.1,-0.19 0.11,-0.26 0.03,-0.09 0.13,-0.68 0.14,-0.81 -0.04,-2.13 -4.22,-11.53 -5.4,-13.85 -2.18,-4.31 -4.51,-8.76 -7.09,-12.29 -4.96,-6.77 -11.85,-15.9 -18.79,-20.06l-0.25 0.67c0.67,1.64 3.14,1.92 5.05,4.32 1.27,1.61 0.67,1.16 2.24,2.4 1.3,1.04 1.39,1.31 2.42,2.61 1.56,1.97 2.79,2.55 4.29,5.06 2.45,4.1 4.54,5.24 7.65,11.26 2.72,5.29 5.86,10.61 7.62,16.45 0.29,0.98 0.79,3.02 1.2,4.01z"/>
    <path class="fil19" d="M240.29 151.88l-1.01 0.88c1.77,2.69 9.9,5.89 13.9,7.19 4.29,1.4 4.13,1.17 6.94,-1.21 2.03,-1.72 3.41,-3.77 5.27,-5.06 -0.46,-1.13 -2.69,-1.29 -3.87,-1.69 -1.6,-0.55 -2.94,-1.36 -4.59,-1.56 -2.29,-0.48 -0.4,-0.16 -1.25,0.37 1.89,0.46 2.45,1.03 3.9,1.56 0.72,0.26 1.35,0.47 2.01,0.73 1.94,0.76 1.14,0.01 2.3,1.4 -1.32,0.55 -2.19,1.77 -3.32,2.79 -0.52,0.47 -0.13,0.23 -0.9,0.66 -0.32,0.17 -0.49,0.17 -1.03,0.47l-1.54 1.26c-4.97,0.02 -11.33,-4.1 -15.2,-5.92 -2.8,-1.31 -1.49,0.44 -1.61,-1.87z"/>
    <path class="fil8 str2" d="M130.71 127.18l0.66 -0.1 0.25 -0.67c-1.19,-1.09 -3.12,-2.51 -5.15,-3.05l0.13 1.3c1.53,0.32 3.22,1.55 4.11,2.52z"/>
    <path class="fil8 str2" d="M153.28 108.14l0.35 -0.01c-0.05,-1.64 0.04,-0.69 -0.64,-1.39 -2.06,-2.1 -1.86,-2.57 -3.11,-3.08 -0.57,-0.23 -0.23,-0.17 -0.47,0.4 0.39,0.96 2.77,3.71 3.87,4.08z"/>
    <polygon class="fil20" points="106.68,192.35 112.83,186.71 117.73,185.81 119.48,189.42 120.51,194.55 120.61,201.49 115.82,204 111.15,207.5 108.79,198.54 106.82,193.71 "/>
    <path class="fil6" d="M114.52 204.11c-0.38,0.3 -2.72,2.19 -3.06,1.88 -0.44,-0.41 -0.85,-3.69 -1.25,-4.62 -0.44,-1.06 -0.7,-2.26 -1.1,-3.37 -0.47,-1.3 -1.02,-2.39 -1.56,-3.64 -0.69,-1.58 -0.05,-1.93 1.14,-2.84 1.29,-1 7.52,-5.94 8.92,-4.93 0.81,0.58 0.96,2.78 1.2,3.78 0.82,3.36 1.58,5.73 1.38,9.3 -0.04,0.6 -0.09,1.64 -0.64,2.01 -0.79,0.52 -2.56,1.07 -3.53,1.52 -0.55,0.27 -1,0.56 -1.5,0.91zm-19.46 -36.69c-1.78,0 -2.65,2.58 -4.34,5.52 -0.47,0.81 -3.54,6.22 -3.42,6.74 0.11,0.45 2.98,1.16 3.48,1.3 5.29,1.59 8.24,3.84 11.92,7.89 3.14,3.54 5.45,7.77 6.59,12.38 0.46,1.89 1.01,3.8 1.24,5.73 0.04,0.32 0.08,0.93 0.44,1.03 1.12,-0.04 1.64,-1.06 2.45,-1.76 2.37,-1.91 4.5,-2.68 7.16,-3.97 0.97,-0.47 0.67,-0.67 0.64,-1.68 -0.17,-7.37 -0.88,-10.36 -3.69,-17.19 -0.57,-1.39 -1.16,-2.41 -2.03,-3.63 -1.63,-2.2 -4.09,-4.98 -6.3,-6.61 -4.23,-3.14 -8.79,-5.46 -14.14,-5.75z"/>
    <path class="fil6" d="M169.63 172.67c1.01,-0.59 4.81,-0.98 5.87,-0.48 0.59,0.29 1.15,1.02 1.69,1.46 0.74,0.59 1.61,1.23 2.38,1.78 2.14,1.52 3.78,2.34 6.26,3.2 1.38,0.49 1.25,1.13 1.16,2.43 -0.06,0.99 -0.18,1.98 -0.27,2.97 -0.09,1.14 -0.17,2.27 -0.24,3.41 -0.1,1.84 -0.29,0.56 0.2,2.38l-13.27 2.17c-0.4,-3.48 -1.01,-6.65 -1.6,-9.89 -0.65,-3.55 -1.75,-6.13 -2.18,-9.43zm1.64 -10.62c-5.05,-19.46 11.95,-26.09 17.16,-24.9 0.4,-0.67 0.23,-0.26 0.3,-1.13 -4.76,-3.96 -3.78,-3.87 -10.67,-7.1 -12.14,-5.69 -25.24,-10.87 -33.01,-21.59 -2.79,1.24 -12.29,10.35 -13.87,12.27 2.55,2.33 6.68,4.1 12.35,10.11 8.9,9.45 17.78,22.47 22.14,34.5 0.69,1.9 2.32,7.25 2.95,8.33 1.5,7.53 2.92,12.36 3.48,20.47l15.37 -2.47c0.42,-3.74 0.71,-7.54 0.77,-11.31 0.01,-0.15 0.05,-0.74 -0.1,-0.81 -0.19,-0.09 -0.99,-0.31 -1.23,-0.38 -0.86,-0.27 -1.31,-0.42 -2.11,-0.83 -0.78,-0.39 -1.58,-0.83 -2.36,-1.24 -1.55,-0.82 -2.5,-1.56 -3.85,-2.66 -0.56,-0.45 -1.14,-0.89 -1.7,-1.34 -0.83,-0.68 -0.8,-1.07 -1.39,-1.89 -1.39,-1.97 -2.44,-3.26 -3.4,-5.54 -0.34,-0.83 -0.6,-1.63 -0.83,-2.49z"/>
    <polygon class="fil20" points="106.68,192.35 112.83,186.71 117.73,185.81 119.48,189.42 120.51,194.55 120.61,201.49 115.82,204 111.15,207.5 108.79,198.54 106.82,193.71 "/>
    <path class="fil6" d="M114.52 204.11c-0.38,0.3 -2.72,2.19 -3.06,1.88 -0.44,-0.41 -0.85,-3.69 -1.25,-4.62 -0.44,-1.06 -0.7,-2.26 -1.1,-3.37 -0.47,-1.3 -1.02,-2.39 -1.56,-3.64 -0.69,-1.58 -0.05,-1.93 1.14,-2.84 1.29,-1 7.52,-5.94 8.92,-4.93 0.81,0.58 0.96,2.78 1.2,3.78 0.82,3.36 1.58,5.73 1.38,9.3 -0.04,0.6 -0.09,1.64 -0.64,2.01 -0.79,0.52 -2.56,1.07 -3.53,1.52 -0.55,0.27 -1,0.56 -1.5,0.91zm-19.46 -36.69c-1.78,0 -2.65,2.58 -4.34,5.52 -0.47,0.81 -3.54,6.22 -3.42,6.74 0.11,0.45 2.98,1.16 3.48,1.3 5.29,1.59 8.24,3.84 11.92,7.89 3.14,3.54 5.45,7.77 6.59,12.38 0.46,1.89 1.01,3.8 1.24,5.73 0.04,0.32 0.08,0.93 0.44,1.03 1.12,-0.04 1.64,-1.06 2.45,-1.76 2.37,-1.91 4.5,-2.68 7.16,-3.97 0.97,-0.47 0.67,-0.67 0.64,-1.68 -0.17,-7.37 -0.88,-10.36 -3.69,-17.19 -0.57,-1.39 -1.16,-2.41 -2.03,-3.63 -1.63,-2.2 -4.09,-4.98 -6.3,-6.61 -4.23,-3.14 -8.79,-5.46 -14.14,-5.75z"/>
   </g>
  </g>
 </g>
</svg>
